<?xml version="1.0" encoding="utf-8"?>
<!-- Generator: Adobe Illustrator 27.5.0, SVG Export Plug-In . SVG Version: 6.00 Build 0)  -->
<svg version="1.1" id="Capa_1" xmlns="http://www.w3.org/2000/svg" xmlns:xlink="http://www.w3.org/1999/xlink" x="0px" y="0px"
	 viewBox="0 0 2122 2122" style="enable-background:new 0 0 2122 2122;" xml:space="preserve">
<rect x="0.01" y="0.01" style="fill:#B4DEE4;" width="2121.305" height="2121.301"/>
<g>
	<g>
		<g>
			<g>
				
					<path style="fill:#F7EFC3;stroke:#585063;stroke-width:20.4924;stroke-linecap:round;stroke-linejoin:round;stroke-miterlimit:10;" d="
					M1454.038,659.175l-115.896-46.728l117.826-10.694l-12.57-138.269l-119.521,10.85l96.925-61.354l-74.25-117.314l-99.03,62.684
					l54.548-92.481l-119.619-70.518l-51.02,86.533l5.622-95.142l-138.581-8.185l-6.363,107.814l-54.236-90.645L818.73,267.013
					l63.6,106.294l-109.583-68.394L699.229,422.71l98.971,61.744l-121.149-10.222l-11.683,138.352l105.47,8.896l-97.899,40.204
					l52.725,128.437l97.909-40.204l-68.774,80.432l105.509,90.24l68.784-80.452L904.586,943.11l135.073,32.15l24.506-102.971
					l25.16,102.81l134.868-33.013l-25.169-102.81l69.291,80.004l104.954-90.903l-69.31-80.009l98.182,39.586L1454.038,659.175z
					 M1063.883,782.872l-94.245-22.421l-73.617-62.957l-36.813-89.607l7.542-89.52l55.23-88.501l95.424-57.095l96.058,5.675
					l90.688,53.471l0.244-0.424l49.675,78.489l9.627,105.841l-32.506,80.589l-73.208,63.424L1063.883,782.872z"/>
				<path style="opacity:0.3;fill:#F7EFC3;" d="M875.461,391.271c-23.805,2.538-44.823-17.856-64.331-28.195
					c-14.275-7.566-28.882-8.916-40.808,3.415c-8.604,8.891-14.948,19.551-22.382,29.369c-7.045,9.291-15.493,20.75-26.037,26.207
					c-5.447,2.816-10.397,3.99-16.497,4.487l31.425,19.61c5.681-0.18,11.352-0.424,17.023-0.863
					c13.759-1.072,28.726-2.757,42.027,1.89c22.245,7.776,35.225,25.34,24.925,48.39c-7.99,17.9-29.164,22.212-46.85,20.603
					c-9.666-0.886-19.011-2.948-28.414-5.349c-9.559-2.441-22.148-6.519-31.98-3.216c-12.346,4.156-7.435,17.369-5.545,26.879
					c1.881,9.54,3.927,19.065,6.5,28.443c8.497,31.059,48.399,13.14,70.167,26.143c11.099,6.621,10.631,19.44,6.714,30.441
					c-6.684,18.67-19.712,28.662-36.238,38.587c-8.214,4.935-18.484,10.216-23.327,18.933c-5.194,9.369-2.466,19.016,0.458,28.628
					c3.166,10.373,7.522,28.18,17.422,34.465c7.337,4.658,17.013-2.884,24.321-4.638c3.907-0.921,7.766-1.939,11.644-2.986
					c14.334-3.873,32.623-10.441,47.522-5.754c16.283,5.135,17.199,21.934,15.074,36.54c-3.342,22.835-23.581,37.973-29.096,59.615
					c-4.2,16.404,6.557,28.18,19.186,37.125c10.543,7.464,32.126,23.225,38.226,2.495c6.431-21.861,61.037-72.043,76.745-33.154
					c6.636,16.404,1.598,35.001,0.575,51.985c-0.585,9.964-1.276,22.918,5.632,31.123c8.088,9.608,22.529,14.665,34.816,15.279
					c13.368,0.677,28.472-5.384,31.96-19.454c2.358-9.583,4.044-19.493,5.671-29.218c2.767-16.365,5.399-37.593,27.011-34.499
					c8.536,1.213,19.391,3.971,25.705,10.358c7.406,7.498,10.855,17.612,13.964,27.468c3.683,11.718,8.127,22.027,14.032,32.731
					c5.33,9.671,11.04,24.404,24.584,19.688c11.693-4.073,24.643-13.515,30.645-24.604c4.473-8.282-0.575-14.377-2.066-22.304
					c-1.169-6.27-1.501-12.638-0.409-18.967c1.949-11.474,3.693-23.128,5.983-34.533c1.383-6.899,3.449-16.443,10.193-20.317
					c15.308-8.823,31.659,3.796,42.192,14.338c13.125,13.14,31.006,42.095,52.998,35.99c21.701-6.012,42.826-38.494,31.727-60.701
					c-9.052-18.08-26.358-32.716-29.661-53.442c-3.138-19.659,19.761-31.386,36.521-30.007c22.762,1.861,56.915,23.376,71.805-3.854
					c5.593-10.246,9.51-25.466,3.712-36.512c-5.652-10.782-18.085-14.913-29.057-18.153c-19.44-5.749-39.824-15.606-42.962-38.368
					c-2.836-20.511,9.12-42.187,28.716-50.007c19.196-7.674,39.922,0.902,59.43-4.828c29.632-8.711,18.572-45.997,6.285-65.091
					c-8.097-12.57-16.818-16.911-31.737-14.163c-10.913,2.012-21.476,5.52-32.321,7.741c-17.871,3.65-37.632,3.021-46.09-16.053
					c-5.544-12.516-6.684-26.314,2.232-37.617c14.246-18.036,63.288-33.491,50.494-62.952
					c-4.473-10.329-13.885-28.667-26.153-31.425c-13.944-3.133-27.235,9.243-38.158,16.005
					c-11.225,6.933-22.665,13.018-36.209,11.937c-11.225-0.901-22.255-10.504-28.531-19.23
					c-12.375-17.213-6.266-31.512,2.543-48.691c6.139-12.044,11.683-25.579,5.447-38.758c-4.891-10.397-13.417-24.555-24.984-28.613
					c-21.983-7.728-33.373,30.864-42.338,44.365c-10.816,16.322-28.589,21.228-46.606,12.375
					c-9.657-4.741-18.261-11.104-22.792-21.115c-4.414-9.764-1.276-21.462-0.117-31.518c0.858-7.411,2.182-19.015-5.71-23.24
					c-5.457-2.933-11.713-4.439-17.803-5.359c-8.536-1.277-23.678-4.283-31.396,0.867c-7.746,5.165-2.835,24.887-2.728,32.604
					c0.117,9.934-0.429,20.043-2.894,29.71c-4.015,15.664-12.473,30.982-29.866,33.398c-18.884,2.621-37.983-10.928-48.097-25.705
					c-9.305-13.598-20.774-43.956-42.036-38.552c-12.19,3.099-26.524,11.191-35.927,19.415c-15.035,13.16-2.758,28.618,4.307,42.445
					c7.912,15.503,18.426,33.315,19.488,51.093C906.496,381.439,892.796,389.434,875.461,391.271z M921.979,429.867l95.424-57.095
					l96.058,5.675l90.688,53.471l0.244-0.424l49.675,78.489l9.627,105.841l-32.506,80.589l-73.208,63.424l-94.099,23.035
					l-94.245-22.421l-73.617-62.957l-36.813-89.607l7.542-89.52L921.979,429.867z"/>
				
					<path style="fill:#F8EC9C;stroke:#585063;stroke-width:20.4924;stroke-linecap:round;stroke-linejoin:round;stroke-miterlimit:10;" d="
					M1301.454,590.542c-7.766,131.575-120.739,231.945-252.324,224.169c-131.565-7.781-231.93-120.745-224.154-252.319
					c7.766-131.575,120.73-231.94,252.314-224.169C1208.866,345.999,1309.24,458.968,1301.454,590.542z"/>
				<path style="opacity:0.2;fill:#F8EC9C;" d="M1253.806,587.727c-6.217,105.266-96.574,185.557-201.85,179.336
					c-105.266-6.217-185.567-96.594-179.331-201.855c6.226-105.261,96.593-185.553,201.849-179.336
					C1179.741,392.099,1260.023,482.466,1253.806,587.727z"/>
				<g>
					<g>
						<g>
							<path style="fill:#F1969B;" d="M1143.804,506.09c-0.087,2.431-2.124,4.332-4.56,4.253c-2.427-0.087-4.336-2.129-4.258-4.56
								c0.087-2.436,2.134-4.336,4.56-4.254C1141.982,501.613,1143.883,503.654,1143.804,506.09z"/>
							<path style="fill:#F1969B;" d="M1168.993,501.896c-0.088,2.436-2.115,4.336-4.56,4.258c-2.436-0.088-4.336-2.124-4.249-4.555
								c0.078-2.441,2.115-4.346,4.55-4.258C1167.171,497.423,1169.071,499.464,1168.993,501.896z"/>
							<path style="fill:#F1969B;" d="M1179.088,512.365c-0.088,2.436-2.114,4.341-4.551,4.254
								c-2.426-0.083-4.346-2.124-4.249-4.555c0.078-2.431,2.115-4.341,4.55-4.258
								C1177.266,507.893,1179.185,509.929,1179.088,512.365z"/>
							<path style="fill:#F1969B;" d="M1184.876,525.047c-0.078,2.431-2.124,4.336-4.551,4.249
								c-2.436-0.083-4.345-2.119-4.258-4.555c0.078-2.431,2.124-4.332,4.551-4.254
								C1183.054,520.575,1184.963,522.611,1184.876,525.047z"/>
							<path style="fill:#F1969B;" d="M1159.658,537.632c-0.078,2.436-2.124,4.336-4.56,4.253c-2.436-0.078-4.336-2.119-4.258-4.555
								c0.097-2.436,2.124-4.336,4.57-4.253C1157.836,533.16,1159.736,535.201,1159.658,537.632z"/>
							<path style="fill:#F1969B;" d="M1144.135,536.78c-0.087,2.426-2.124,4.336-4.56,4.244c-2.427-0.073-4.326-2.119-4.249-4.55
								c0.088-2.432,2.134-4.336,4.561-4.254C1142.323,532.307,1144.223,534.349,1144.135,536.78z"/>
							<path style="fill:#F1969B;" d="M1154.075,513.399c-0.088,2.431-2.134,4.331-4.56,4.253c-2.436-0.088-4.336-2.129-4.259-4.56
								c0.088-2.431,2.124-4.336,4.57-4.253C1152.243,508.921,1154.153,510.967,1154.075,513.399z"/>
							<path style="fill:#F1969B;" d="M1155.721,501.33c-0.088,2.431-2.124,4.336-4.56,4.249c-2.426-0.078-4.326-2.119-4.248-4.55
								c0.078-2.436,2.124-4.341,4.55-4.254C1153.909,496.853,1155.809,498.899,1155.721,501.33z"/>
							<path style="fill:#F1969B;" d="M1165.134,516.965c-0.078,2.431-2.134,4.332-4.55,4.249c-2.436-0.078-4.336-2.119-4.258-4.551
								c0.078-2.441,2.124-4.341,4.56-4.258C1163.312,512.492,1165.212,514.529,1165.134,516.965z"/>
							<path style="fill:#F1969B;" d="M1154.601,525.354c-0.097,2.431-2.134,4.341-4.57,4.259c-2.426-0.083-4.327-2.124-4.239-4.555
								c0.078-2.436,2.124-4.341,4.55-4.254C1152.779,520.882,1154.679,522.923,1154.601,525.354z"/>
							<path style="fill:#F1969B;" d="M1175.57,538.168c-0.088,2.431-2.124,4.336-4.56,4.253c-2.436-0.083-4.336-2.129-4.259-4.56
								c0.078-2.431,2.124-4.331,4.56-4.249C1173.738,533.695,1175.648,535.737,1175.57,538.168z"/>
							<path style="fill:#F1969B;" d="M1172.744,526.207c-0.078,2.431-2.114,4.336-4.551,4.254c-2.426-0.083-4.336-2.129-4.249-4.56
								c0.088-2.431,2.115-4.331,4.56-4.253C1170.932,521.734,1172.842,523.781,1172.744,526.207z"/>
							<path style="fill:#F1969B;" d="M1141.709,521.963c-0.078,2.432-2.134,4.341-4.56,4.254c-2.426-0.083-4.336-2.124-4.248-4.555
								c0.088-2.436,2.124-4.336,4.56-4.249C1139.887,517.491,1141.787,519.537,1141.709,521.963z"/>
						</g>
						<g>
							<path style="fill:#F1969B;" d="M977.521,506.09c0.078,2.431,2.124,4.332,4.551,4.253c2.436-0.087,4.346-2.129,4.268-4.56
								c-0.097-2.436-2.134-4.336-4.57-4.254C979.343,501.613,977.443,503.654,977.521,506.09z"/>
							<path style="fill:#F1969B;" d="M952.323,501.896c0.088,2.436,2.134,4.336,4.56,4.258c2.436-0.088,4.336-2.124,4.268-4.555
								c-0.088-2.441-2.134-4.346-4.56-4.258C954.155,497.423,952.244,499.464,952.323,501.896z"/>
							<path style="fill:#F1969B;" d="M942.227,512.365c0.088,2.436,2.134,4.341,4.551,4.254c2.446-0.083,4.346-2.124,4.268-4.555
								c-0.088-2.431-2.134-4.341-4.57-4.258C944.05,507.893,942.14,509.929,942.227,512.365z"/>
							<path style="fill:#F1969B;" d="M936.449,525.047c0.078,2.431,2.124,4.336,4.561,4.249c2.426-0.083,4.326-2.119,4.239-4.555
								c-0.078-2.431-2.124-4.332-4.55-4.254C938.262,520.575,936.362,522.611,936.449,525.047z"/>
							<path style="fill:#F1969B;" d="M961.658,537.632c0.097,2.436,2.134,4.336,4.57,4.253c2.426-0.078,4.327-2.119,4.258-4.555
								c-0.088-2.436-2.134-4.336-4.57-4.253C963.49,533.16,961.579,535.201,961.658,537.632z"/>
							<path style="fill:#F1969B;" d="M977.189,536.78c0.078,2.426,2.124,4.336,4.551,4.244c2.446-0.073,4.336-2.119,4.258-4.55
								c-0.088-2.432-2.124-4.336-4.57-4.254C979.012,532.307,977.102,534.349,977.189,536.78z"/>
							<path style="fill:#F1969B;" d="M967.251,513.399c0.087,2.431,2.124,4.331,4.56,4.253c2.427-0.088,4.336-2.129,4.258-4.56
								c-0.087-2.431-2.134-4.336-4.56-4.253C969.073,508.921,967.163,510.967,967.251,513.399z"/>
							<path style="fill:#F1969B;" d="M965.604,501.33c0.078,2.431,2.134,4.336,4.56,4.249c2.436-0.078,4.336-2.119,4.249-4.55
								c-0.088-2.436-2.124-4.341-4.56-4.254C967.426,496.853,965.526,498.899,965.604,501.33z"/>
							<path style="fill:#F1969B;" d="M956.201,516.965c0.068,2.431,2.114,4.332,4.55,4.249c2.417-0.078,4.326-2.119,4.249-4.551
								c-0.088-2.441-2.124-4.341-4.56-4.258C958.003,512.492,956.103,514.529,956.201,516.965z"/>
							<path style="fill:#F1969B;" d="M966.724,525.354c0.088,2.431,2.134,4.341,4.56,4.259c2.436-0.083,4.336-2.124,4.248-4.555
								c-0.088-2.436-2.124-4.341-4.56-4.254C968.546,520.882,966.647,522.923,966.724,525.354z"/>
							<path style="fill:#F1969B;" d="M945.755,538.168c0.087,2.431,2.124,4.336,4.56,4.253c2.427-0.083,4.336-2.129,4.249-4.56
								c-0.078-2.431-2.114-4.331-4.55-4.249C947.577,533.695,945.667,535.737,945.755,538.168z"/>
							<path style="fill:#F1969B;" d="M948.571,526.207c0.078,2.431,2.134,4.336,4.55,4.254c2.436-0.083,4.336-2.129,4.258-4.56
								c-0.078-2.431-2.124-4.331-4.55-4.253C950.393,521.734,948.493,523.781,948.571,526.207z"/>
							<path style="fill:#F1969B;" d="M979.606,521.963c0.098,2.432,2.134,4.341,4.57,4.254c2.427-0.083,4.326-2.124,4.239-4.555
								c-0.078-2.436-2.124-4.336-4.55-4.249C981.428,517.491,979.528,519.537,979.606,521.963z"/>
						</g>
					</g>
					
						<path style="fill:none;stroke:#585063;stroke-width:8.1586;stroke-linecap:round;stroke-linejoin:round;stroke-miterlimit:10;" d="
						M1028.561,538.709c0,0,29.447,30.767,64.204,0"/>
					<g>
						
							<path style="fill:none;stroke:#585063;stroke-width:14.967;stroke-linecap:round;stroke-linejoin:round;stroke-miterlimit:10;" d="
							M957.779,462.033c0,0,17.072,19.707,34.669,0"/>
						
							<path style="fill:none;stroke:#585063;stroke-width:14.967;stroke-linecap:round;stroke-linejoin:round;stroke-miterlimit:10;" d="
							M1128.876,462.033c0,0,17.072,19.707,34.679,0"/>
					</g>
				</g>
			</g>
			<g>
				
					<path style="fill:#F1969B;stroke:#585063;stroke-width:20.4924;stroke-linecap:round;stroke-linejoin:round;stroke-miterlimit:10;" d="
					M385.214,1278.064c0-0.063,0-0.132,0-0.2c0.312-32.989,2.436-66.065,7.269-98.869c1.121-8.199,2.748-16.341,4.141-24.506
					l2.241-12.219l2.729-12.127c1.91-8.068,3.615-16.175,5.788-24.165l6.762-23.897c1.101-3.99,2.407-7.918,3.732-11.829
					l3.966-11.752l4.015-11.727c1.403-3.883,2.962-7.708,4.443-11.557c3.06-7.669,5.973-15.396,9.247-22.952
					c3.382-7.513,6.772-15.016,10.163-22.514c14.217-29.661,30.129-58.421,48.292-85.534c18.241-27.045,37.944-52.945,59.566-76.949
					c5.271-6.115,10.991-11.801,16.497-17.676l8.38-8.706c2.836-2.841,5.769-5.588,8.653-8.38
					c5.827-5.52,11.556-11.147,17.529-16.482c6.051-5.242,12.102-10.485,18.125-15.717c49.013-40.993,103.141-74.752,160.125-99.897
					l10.63-4.764l10.806-4.321c7.23-2.831,14.392-5.735,21.632-8.404c14.645-4.945,29.096-10.182,43.878-14.129
					c29.359-8.707,59.137-14.641,88.71-19.201c14.831-1.905,29.583-4.01,44.326-4.896c7.347-0.512,14.685-1.203,22.012-1.491
					c7.308-0.2,14.616-0.39,21.885-0.585c3.645-0.063,7.289-0.195,10.904-0.185c3.644,0.083,7.25,0.156,10.875,0.233
					c7.24,0.195,14.441,0.395,21.622,0.59c7.201,0.414,14.353,0.994,21.486,1.525c7.142,0.575,14.246,1.033,21.32,2.021
					c56.565,6.568,111.035,19.635,161.266,38.719c50.26,19.001,96.476,43.225,137.821,70.81
					c41.364,27.605,77.69,58.742,109.231,91.191c31.513,32.487,58.124,66.416,80.301,100.169
					c22.158,33.773,40.039,67.302,53.924,99.458c3.703,7.927,6.714,15.98,9.832,23.771c3.079,7.815,6.149,15.439,8.624,23.084
					c2.553,7.61,5.067,15.045,7.494,22.3c2.212,7.327,4.219,14.513,6.207,21.505c15.581,56.092,20.589,101.739,22.655,132.613
					c0.604,7.736,1.082,14.572,1.159,20.467c0.146,5.895,0.283,10.86,0.38,14.86c0.166,7.995,0.263,12.117,0.263,12.117
					s0,0.073-0.009,0.2h71.356c0.019-0.122,0.019-0.2,0.019-0.2s-0.097-4.555-0.253-13.383c-0.146-4.414-0.272-9.895-0.448-16.409
					c-0.107-6.509-0.614-14.065-1.267-22.611c-2.309-34.109-7.854-84.593-25.072-146.644c-2.183-7.737-4.424-15.693-6.86-23.795
					c-2.699-8.024-5.456-16.248-8.302-24.672c-2.758-8.448-6.129-16.887-9.53-25.534c-3.43-8.624-6.802-17.515-10.885-26.299
					c-15.357-35.557-35.117-72.643-59.624-109.977c-24.506-37.315-53.934-74.825-88.759-110.727
					c-34.845-35.858-75.01-70.265-120.74-100.784c-45.7-30.499-96.808-57.305-152.418-78.314
					c-55.551-21.096-115.818-35.59-178.376-42.825c-7.805-1.077-15.668-1.608-23.552-2.242c-7.903-0.594-15.805-1.223-23.747-1.676
					c-7.932-0.214-15.912-0.443-23.892-0.667c-3.986-0.078-7.99-0.156-11.986-0.239c-4.015-0.005-8.019,0.127-12.034,0.19
					c-8.049,0.219-16.107,0.438-24.185,0.653c-8.098,0.331-16.224,1.057-24.341,1.637c-16.263,1.018-32.604,3.289-48.984,5.423
					c-32.711,5.018-65.637,11.624-98.113,21.227c-16.37,4.409-32.39,10.139-48.545,15.649c-8.019,2.952-15.941,6.144-23.932,9.286
					l-11.946,4.794l-11.791,5.252c-62.995,27.829-122.863,65.139-177.021,110.459c-6.675,5.783-13.34,11.576-20.024,17.374
					c-6.616,5.9-12.94,12.097-19.371,18.207c-3.215,3.084-6.441,6.129-9.578,9.267l-9.257,9.608
					c-6.08,6.49-12.404,12.804-18.241,19.552c-23.902,26.533-45.7,55.147-65.841,85.046c-20.073,29.997-37.68,61.778-53.408,94.591
					c-3.732,8.287-7.493,16.594-11.235,24.896c-3.615,8.366-6.86,16.901-10.231,25.388c-1.637,4.268-3.352,8.492-4.901,12.789
					l-4.453,12.974l-4.375,12.998c-1.471,4.336-2.904,8.682-4.112,13.092l-7.503,26.431c-2.387,8.843-4.316,17.803-6.392,26.733
					L328.952,1128l-2.485,13.51c-1.569,9.023-3.342,18.036-4.589,27.103c-5.35,36.267-7.717,72.827-8.029,109.251
					c0,0.068,0,0.137,0,0.2H385.214z"/>
				<path style="fill:#E9E9E9;" d="M314.872,1278.064c1.159-24.633,3.4-49.262,7.006-73.768c1.247-9.071,3.021-18.08,4.589-27.103
					l2.485-13.515l3.011-13.417c2.075-8.921,4.005-17.881,6.392-26.729l7.503-26.431c1.208-4.409,2.641-8.76,4.112-13.086
					l4.375-13.009l4.453-12.969c1.549-4.292,3.264-8.531,4.901-12.784c3.372-8.487,6.616-17.028,10.231-25.393
					c3.742-8.307,7.503-16.609,11.235-24.906c15.727-32.804,33.335-64.594,53.408-94.572c20.141-29.919,41.939-58.523,65.841-85.056
					c5.837-6.743,12.161-13.062,18.241-19.542l9.257-9.617c3.138-3.133,6.363-6.188,9.578-9.262
					c6.431-6.109,12.755-12.311,19.371-18.212c6.685-5.802,13.349-11.591,20.024-17.374c54.158-45.32,114.026-82.63,177.021-110.454
					l11.791-5.257l11.946-4.794c7.99-3.143,15.912-6.333,23.932-9.286c16.156-5.505,32.175-11.245,48.545-15.649
					c32.477-9.603,65.403-16.209,98.113-21.228c16.38-2.134,32.721-4.414,48.984-5.418c8.117-0.58,16.243-1.311,24.341-1.642
					c8.078-0.214,16.136-0.434,24.185-0.648c4.015-0.073,8.019-0.2,12.034-0.195c3.995,0.083,8,0.156,11.986,0.239
					c7.98,0.229,15.961,0.443,23.892,0.667c7.941,0.448,15.844,1.086,23.747,1.676c7.883,0.633,15.746,1.164,23.552,2.232
					c62.557,7.245,122.824,21.734,178.376,42.835c55.61,21.008,106.718,47.81,152.418,78.309
					c45.729,30.519,85.895,64.93,120.74,100.788c34.825,35.902,64.253,73.412,88.759,110.728
					c24.506,37.33,44.267,74.421,59.624,109.982c4.083,8.78,7.455,17.666,10.885,26.294c3.401,8.643,6.772,17.091,9.53,25.535
					c2.846,8.419,5.603,16.652,8.302,24.672c2.436,8.107,4.677,16.058,6.86,23.79c17.218,62.061,22.762,112.545,25.072,146.644
					c0.468,6.178,0.877,11.815,1.082,16.926h0.867c0.019-0.122,0.019-0.2,0.019-0.2s-0.097-4.555-0.253-13.383
					c-0.146-4.414-0.272-9.895-0.448-16.409c-0.107-6.509-0.614-14.065-1.267-22.611c-2.309-34.109-7.854-84.593-25.072-146.644
					c-2.183-7.737-4.424-15.693-6.86-23.795c-2.699-8.024-5.456-16.248-8.302-24.672c-2.758-8.448-6.129-16.887-9.53-25.534
					c-3.43-8.624-6.802-17.515-10.885-26.299c-15.357-35.557-35.117-72.643-59.624-109.977
					c-24.506-37.315-53.934-74.825-88.759-110.727c-34.845-35.858-75.01-70.265-120.74-100.784
					c-45.7-30.499-96.808-57.305-152.418-78.314c-55.551-21.096-115.818-35.59-178.376-42.825
					c-7.805-1.077-15.668-1.608-23.552-2.242c-7.903-0.594-15.805-1.223-23.747-1.676c-7.932-0.214-15.912-0.443-23.892-0.667
					c-3.986-0.078-7.99-0.156-11.986-0.239c-4.015-0.005-8.019,0.127-12.034,0.19c-8.049,0.219-16.107,0.438-24.185,0.653
					c-8.098,0.331-16.224,1.057-24.341,1.637c-16.263,1.018-32.604,3.289-48.984,5.423c-32.711,5.018-65.637,11.624-98.113,21.227
					c-16.37,4.409-32.39,10.139-48.545,15.649c-8.019,2.952-15.941,6.144-23.932,9.286l-11.946,4.794l-11.791,5.252
					c-62.995,27.829-122.863,65.139-177.021,110.459c-6.675,5.783-13.34,11.576-20.024,17.374
					c-6.616,5.9-12.94,12.097-19.371,18.207c-3.215,3.084-6.441,6.129-9.578,9.267l-9.257,9.608
					c-6.08,6.49-12.404,12.804-18.241,19.552c-23.902,26.533-45.7,55.147-65.841,85.046c-20.073,29.997-37.68,61.778-53.408,94.591
					c-3.732,8.287-7.493,16.594-11.235,24.896c-3.615,8.366-6.86,16.901-10.231,25.388c-1.637,4.268-3.352,8.492-4.901,12.789
					l-4.453,12.974l-4.375,12.998c-1.471,4.336-2.904,8.682-4.112,13.092l-7.503,26.431c-2.387,8.843-4.316,17.803-6.392,26.733
					L328.952,1128l-2.485,13.51c-1.569,9.023-3.342,18.036-4.589,27.103c-5.35,36.267-7.717,72.827-8.029,109.251
					c0,0.068,0,0.137,0,0.2H314.872z"/>
				
					<path style="fill:#FACBB8;stroke:#585063;stroke-width:20.4924;stroke-linecap:round;stroke-linejoin:round;stroke-miterlimit:10;" d="
					M456.581,1278.064c0-0.063,0-0.132,0-0.2c0.312-29.554,2.183-59.156,6.519-88.491c0.984-7.337,2.466-14.606,3.713-21.9
					l1.988-10.938l2.456-10.831c1.705-7.211,3.196-14.465,5.164-21.603l6.051-21.354c0.955-3.566,2.124-7.074,3.323-10.572
					l3.547-10.504l3.576-10.484c1.247-3.469,2.641-6.884,3.985-10.324c2.738-6.845,5.32-13.764,8.253-20.521l9.072-20.126
					c12.755-26.495,26.952-52.234,43.196-76.482c16.311-24.17,33.939-47.367,53.3-68.838c4.697-5.481,9.841-10.548,14.772-15.815
					l7.474-7.805c2.543-2.534,5.164-4.989,7.756-7.483c5.233-4.931,10.339-9.983,15.679-14.753
					c5.418-4.692,10.826-9.383,16.224-14.065c43.848-36.667,92.267-66.869,143.2-89.339l9.51-4.268l9.657-3.849
					c6.46-2.523,12.872-5.13,19.342-7.527c13.077-4.39,25.998-9.115,39.211-12.614c26.222-7.815,52.852-13.072,79.278-17.174
					c13.282-1.676,26.465-3.601,39.659-4.36c6.577-0.463,13.154-1.101,19.712-1.354c6.548-0.171,13.087-0.336,19.615-0.511
					c3.254-0.063,6.499-0.185,9.754-0.181l9.744,0.219c6.46,0.171,12.93,0.346,19.352,0.521c6.431,0.375,12.843,0.911,19.225,1.374
					c6.392,0.511,12.765,0.901,19.089,1.803c6.314,0.809,12.609,1.608,18.874,2.412l4.706,0.614l4.677,0.809
					c3.099,0.55,6.188,1.101,9.286,1.651c6.177,1.15,12.385,2.11,18.465,3.464c6.1,1.393,12.161,2.787,18.192,4.18
					c3.011,0.711,6.042,1.379,9.033,2.144c2.962,0.828,5.934,1.666,8.896,2.499c5.905,1.686,11.8,3.362,17.675,5.038
					c5.827,1.817,11.557,3.834,17.296,5.749c5.73,2.003,11.498,3.752,17.043,6.046c44.92,16.989,86.255,38.645,123.244,63.308
					c74.016,49.573,129.987,110.922,169.567,171.224c19.81,30.202,35.819,60.175,48.194,88.925
					c3.342,7.079,6.002,14.28,8.789,21.252c2.748,6.982,5.506,13.788,7.708,20.624c2.289,6.806,4.55,13.447,6.723,19.932
					c1.881,6.568,3.722,12.979,5.515,19.225c13.934,50.119,18.445,90.947,20.268,118.571c0.546,6.923,0.984,13.043,1.033,18.323
					c0.137,5.286,0.243,9.73,0.341,13.306c0.175,7.162,0.253,10.855,0.253,10.855s0,0.078-0.02,0.2h71.376
					c0.009-0.127,0.009-0.2,0.009-0.2s-0.097-4.122-0.263-12.117c-0.097-4-0.234-8.965-0.38-14.86
					c-0.078-5.895-0.555-12.731-1.159-20.467c-2.065-30.874-7.074-76.521-22.655-132.613c-1.988-6.992-3.995-14.178-6.207-21.505
					c-2.427-7.255-4.941-14.69-7.494-22.3c-2.475-7.644-5.544-15.269-8.624-23.084c-3.118-7.791-6.129-15.844-9.832-23.771
					c-13.885-32.156-31.766-65.685-53.924-99.458c-22.178-33.753-48.789-67.683-80.301-100.169
					c-31.542-32.448-67.868-63.586-109.231-91.191c-41.345-27.586-87.561-51.809-137.821-70.81
					c-50.231-19.084-104.701-32.151-161.266-38.719c-7.074-0.989-14.178-1.447-21.32-2.021c-7.133-0.531-14.285-1.111-21.486-1.525
					c-7.182-0.195-14.383-0.395-21.622-0.59c-3.625-0.078-7.23-0.151-10.875-0.233c-3.615-0.01-7.26,0.122-10.904,0.185
					c-7.269,0.195-14.577,0.385-21.885,0.585c-7.327,0.287-14.665,0.979-22.012,1.491c-14.743,0.887-29.495,2.991-44.326,4.896
					c-29.573,4.56-59.351,10.494-88.71,19.201c-14.782,3.946-29.232,9.184-43.878,14.129c-7.24,2.67-14.402,5.574-21.632,8.404
					l-10.806,4.321l-10.63,4.764c-56.984,25.145-111.112,58.904-160.125,99.897c-6.022,5.233-12.073,10.475-18.125,15.717
					c-5.973,5.335-11.703,10.962-17.529,16.482c-2.884,2.792-5.817,5.539-8.653,8.38l-8.38,8.706
					c-5.505,5.875-11.225,11.561-16.497,17.676c-21.622,24.004-41.325,49.904-59.566,76.949
					c-18.163,27.113-34.075,55.873-48.292,85.534c-3.391,7.498-6.781,15.001-10.163,22.514c-3.274,7.557-6.187,15.284-9.247,22.952
					c-1.481,3.849-3.04,7.674-4.443,11.557l-4.015,11.727l-3.966,11.752c-1.326,3.912-2.631,7.839-3.732,11.829l-6.762,23.897
					c-2.173,7.99-3.878,16.098-5.788,24.165l-2.729,12.127l-2.241,12.219c-1.393,8.165-3.021,16.307-4.141,24.506
					c-4.833,32.804-6.957,65.88-7.269,98.869c0,0.068,0,0.137,0,0.2H456.581z"/>
				
					<path style="fill:#FACBB8;stroke:#585063;stroke-width:20.4924;stroke-linecap:round;stroke-linejoin:round;stroke-miterlimit:10;" d="
					M456.581,1278.064c0-0.063,0-0.132,0-0.2c0.312-29.554,2.183-59.156,6.519-88.491c0.984-7.337,2.466-14.606,3.713-21.9
					l1.988-10.938l2.456-10.831c1.705-7.211,3.196-14.465,5.164-21.603l6.051-21.354c0.955-3.566,2.124-7.074,3.323-10.572
					l3.547-10.504l3.576-10.484c1.247-3.469,2.641-6.884,3.985-10.324c2.738-6.845,5.32-13.764,8.253-20.521l9.072-20.126
					c12.755-26.495,26.952-52.234,43.196-76.482c16.311-24.17,33.939-47.367,53.3-68.838c4.697-5.481,9.841-10.548,14.772-15.815
					l7.474-7.805c2.543-2.534,5.164-4.989,7.756-7.483c5.233-4.931,10.339-9.983,15.679-14.753
					c5.418-4.692,10.826-9.383,16.224-14.065c43.848-36.667,92.267-66.869,143.2-89.339l9.51-4.268l9.657-3.849
					c6.46-2.523,12.872-5.13,19.342-7.527c13.077-4.39,25.998-9.115,39.211-12.614c26.222-7.815,52.852-13.072,79.278-17.174
					c13.282-1.676,26.465-3.601,39.659-4.36c6.577-0.463,13.154-1.101,19.712-1.354c6.548-0.171,13.087-0.336,19.615-0.511
					c3.254-0.063,6.499-0.185,9.754-0.181l9.744,0.219c6.46,0.171,12.93,0.346,19.352,0.521c6.431,0.375,12.843,0.911,19.225,1.374
					c6.392,0.511,12.765,0.901,19.089,1.803c6.314,0.809,12.609,1.608,18.874,2.412l4.706,0.614l4.677,0.809
					c3.099,0.55,6.188,1.101,9.286,1.651c6.177,1.15,12.385,2.11,18.465,3.464c6.1,1.393,12.161,2.787,18.192,4.18
					c3.011,0.711,6.042,1.379,9.033,2.144c2.962,0.828,5.934,1.666,8.896,2.499c5.905,1.686,11.8,3.362,17.675,5.038
					c5.827,1.817,11.557,3.834,17.296,5.749c5.73,2.003,11.498,3.752,17.043,6.046c44.92,16.989,86.255,38.645,123.244,63.308
					c74.016,49.573,129.987,110.922,169.567,171.224c19.81,30.202,35.819,60.175,48.194,88.925
					c3.342,7.079,6.002,14.28,8.789,21.252c2.748,6.982,5.506,13.788,7.708,20.624c2.289,6.806,4.55,13.447,6.723,19.932
					c1.881,6.568,3.722,12.979,5.515,19.225c13.934,50.119,18.445,90.947,20.268,118.571c0.546,6.923,0.984,13.043,1.033,18.323
					c0.137,5.286,0.243,9.73,0.341,13.306c0.175,7.162,0.253,10.855,0.253,10.855s0,0.078-0.02,0.2h71.376
					c0.009-0.127,0.009-0.2,0.009-0.2s-0.097-4.122-0.263-12.117c-0.097-4-0.234-8.965-0.38-14.86
					c-0.078-5.895-0.555-12.731-1.159-20.467c-2.065-30.874-7.074-76.521-22.655-132.613c-1.988-6.992-3.995-14.178-6.207-21.505
					c-2.427-7.255-4.941-14.69-7.494-22.3c-2.475-7.644-5.544-15.269-8.624-23.084c-3.118-7.791-6.129-15.844-9.832-23.771
					c-13.885-32.156-31.766-65.685-53.924-99.458c-22.178-33.753-48.789-67.683-80.301-100.169
					c-31.542-32.448-67.868-63.586-109.231-91.191c-41.345-27.586-87.561-51.809-137.821-70.81
					c-50.231-19.084-104.701-32.151-161.266-38.719c-7.074-0.989-14.178-1.447-21.32-2.021c-7.133-0.531-14.285-1.111-21.486-1.525
					c-7.182-0.195-14.383-0.395-21.622-0.59c-3.625-0.078-7.23-0.151-10.875-0.233c-3.615-0.01-7.26,0.122-10.904,0.185
					c-7.269,0.195-14.577,0.385-21.885,0.585c-7.327,0.287-14.665,0.979-22.012,1.491c-14.743,0.887-29.495,2.991-44.326,4.896
					c-29.573,4.56-59.351,10.494-88.71,19.201c-14.782,3.946-29.232,9.184-43.878,14.129c-7.24,2.67-14.402,5.574-21.632,8.404
					l-10.806,4.321l-10.63,4.764c-56.984,25.145-111.112,58.904-160.125,99.897c-6.022,5.233-12.073,10.475-18.125,15.717
					c-5.973,5.335-11.703,10.962-17.529,16.482c-2.884,2.792-5.817,5.539-8.653,8.38l-8.38,8.706
					c-5.505,5.875-11.225,11.561-16.497,17.676c-21.622,24.004-41.325,49.904-59.566,76.949
					c-18.163,27.113-34.075,55.873-48.292,85.534c-3.391,7.498-6.781,15.001-10.163,22.514c-3.274,7.557-6.187,15.284-9.247,22.952
					c-1.481,3.849-3.04,7.674-4.443,11.557l-4.015,11.727l-3.966,11.752c-1.326,3.912-2.631,7.839-3.732,11.829l-6.762,23.897
					c-2.173,7.99-3.878,16.098-5.788,24.165l-2.729,12.127l-2.241,12.219c-1.393,8.165-3.021,16.307-4.141,24.506
					c-4.833,32.804-6.957,65.88-7.269,98.869c0,0.068,0,0.137,0,0.2H456.581z"/>
				<path style="fill:#E9E9E9;" d="M1735.857,1265.747c-0.097-4-0.234-8.965-0.38-14.86c-0.078-5.895-0.555-12.731-1.159-20.467
					c-2.065-30.874-7.074-76.521-22.655-132.613c-1.988-6.992-3.995-14.178-6.207-21.505c-2.427-7.255-4.941-14.69-7.494-22.3
					c-2.475-7.644-5.544-15.269-8.624-23.084c-3.118-7.791-6.129-15.844-9.832-23.771c-13.885-32.156-31.766-65.685-53.924-99.458
					c-22.178-33.753-48.789-67.683-80.301-100.169c-31.542-32.448-67.868-63.586-109.231-91.191
					c-41.345-27.586-87.561-51.809-137.821-70.81c-50.231-19.084-104.701-32.151-161.266-38.719
					c-7.074-0.989-14.178-1.447-21.32-2.021c-7.133-0.531-14.285-1.111-21.486-1.525c-7.182-0.195-14.383-0.395-21.622-0.59
					c-3.625-0.078-7.23-0.151-10.875-0.233c-3.615-0.01-7.26,0.122-10.904,0.185c-7.269,0.195-14.577,0.385-21.885,0.585
					c-7.327,0.287-14.665,0.979-22.012,1.491c-14.743,0.887-29.495,2.991-44.326,4.896c-29.573,4.56-59.351,10.494-88.71,19.201
					c-14.782,3.946-29.232,9.184-43.878,14.129c-7.24,2.67-14.402,5.574-21.632,8.404l-10.806,4.321l-10.63,4.764
					c-56.984,25.145-111.112,58.904-160.125,99.897c-6.022,5.233-12.073,10.475-18.125,15.717
					c-5.973,5.335-11.703,10.962-17.529,16.482c-2.884,2.792-5.817,5.539-8.653,8.38l-8.38,8.706
					c-5.505,5.875-11.225,11.561-16.497,17.676c-21.622,24.004-41.325,49.904-59.566,76.949
					c-18.163,27.113-34.075,55.873-48.292,85.534c-3.391,7.498-6.781,15.001-10.163,22.514c-3.274,7.557-6.187,15.284-9.247,22.952
					c-1.481,3.849-3.04,7.674-4.443,11.557l-4.015,11.727l-3.966,11.752c-1.326,3.912-2.631,7.839-3.732,11.829l-6.762,23.897
					c-2.173,7.99-3.878,16.098-5.788,24.165l-2.729,12.127l-2.241,12.219c-1.393,8.165-3.021,16.307-4.141,24.506
					c-4.833,32.804-6.957,65.88-7.269,98.869c0,0.068,0,0.137,0,0.2h18.29c0.965-24.253,2.991-48.501,6.451-72.604
					c1.082-8.199,2.67-16.35,4.044-24.501l2.173-12.229l2.66-12.122c1.841-8.068,3.527-16.17,5.622-24.17l6.597-23.888
					c1.072-3.995,2.338-7.912,3.625-11.834l3.858-11.751l3.927-11.727c1.354-3.883,2.865-7.713,4.316-11.557
					c2.972-7.664,5.808-15.396,8.994-22.957c3.303-7.508,6.596-15.011,9.91-22.514c13.846-29.656,29.34-58.411,47.015-85.534
					c17.773-27.04,36.969-52.94,58.016-76.935c5.145-6.124,10.728-11.815,16.087-17.68l8.137-8.711
					c2.767-2.841,5.623-5.593,8.438-8.375c5.681-5.525,11.255-11.147,17.062-16.487c5.896-5.242,11.791-10.485,17.657-15.713
					c47.717-41.003,100.452-74.757,155.935-99.902l10.358-4.765l10.524-4.322c7.026-2.83,14.022-5.734,21.076-8.399
					c14.236-4.955,28.336-10.188,42.718-14.139c28.589-8.706,57.588-14.641,86.401-19.196c14.431-1.905,28.813-4.01,43.147-4.892
					c7.182-0.521,14.334-1.208,21.447-1.496c7.123-0.195,14.246-0.39,21.32-0.589c3.557-0.063,7.084-0.19,10.631-0.176
					c3.528,0.073,7.055,0.141,10.573,0.229c7.035,0.19,14.06,0.395,21.057,0.59c7.006,0.409,13.973,0.994,20.92,1.53
					c6.958,0.565,13.895,1.028,20.775,2.017c55.083,6.568,108.14,19.625,157.046,38.719c48.935,19.001,93.953,43.225,134.216,70.805
					c40.292,27.605,75.673,58.752,106.376,91.191c30.684,32.492,56.614,66.421,78.187,100.184
					c21.603,33.763,39.006,67.293,52.521,99.449c3.625,7.932,6.548,15.976,9.579,23.776c3.011,7.815,5.983,15.435,8.4,23.079
					c2.484,7.615,4.94,15.05,7.308,22.295c2.153,7.332,4.102,14.523,6.032,21.51c15.162,56.087,20.063,101.748,22.08,132.617
					c0.565,7.732,1.043,14.567,1.12,20.458c0.01,0.258,0.01,0.472,0.01,0.716h18.261c0.009-0.127,0.009-0.2,0.009-0.2
					S1736.023,1273.742,1735.857,1265.747z"/>
				
					<path style="fill:#F7EFC3;stroke:#585063;stroke-width:20.4924;stroke-linecap:round;stroke-linejoin:round;stroke-miterlimit:10;" d="
					M527.947,1278.064c0-0.063,0-0.132,0-0.2c0.312-26.114,1.939-52.238,5.759-78.104c0.857-6.47,2.192-12.877,3.284-19.308
					l1.734-9.642l2.173-9.539c1.53-6.349,2.826-12.755,4.531-19.05l5.359-18.806c0.828-3.152,1.871-6.236,2.914-9.315l3.138-9.252
					l3.128-9.242c1.111-3.055,2.368-6.066,3.528-9.092c2.436-6.036,4.667-12.136,7.269-18.085l8.01-17.739
					c11.254-23.347,23.727-46.051,38.08-67.439c14.421-21.305,29.914-41.788,47.006-60.725c4.141-4.848,8.721-9.301,13.057-13.954
					l6.578-6.894c2.26-2.241,4.57-4.399,6.86-6.597c4.628-4.346,9.111-8.818,13.836-13.023c4.765-4.146,9.54-8.283,14.305-12.409
					c38.704-32.341,81.402-59.001,126.284-78.786l8.38-3.776l8.517-3.386c5.691-2.212,11.332-4.521,17.023-6.626
					c11.547-3.839,22.918-8.058,34.572-11.108c23.094-6.914,46.567-11.494,69.875-15.138c11.703-1.457,23.328-3.206,34.972-3.849
					c5.817-0.395,11.605-0.979,17.403-1.208c5.778-0.136,11.557-0.287,17.315-0.439c2.874-0.053,5.759-0.175,8.633-0.166
					l8.585,0.205c5.73,0.146,11.43,0.292,17.121,0.444c5.68,0.336,11.322,0.823,16.965,1.233c5.632,0.453,11.264,0.765,16.818,1.588
					c5.573,0.706,11.137,1.413,16.662,2.114l4.151,0.536l4.103,0.726l8.214,1.461c5.447,1.018,10.904,1.842,16.283,3.04
					c5.359,1.233,10.699,2.461,16.019,3.693l7.961,1.875l7.825,2.212c5.213,1.486,10.416,2.962,15.581,4.434
					c5.145,1.593,10.182,3.391,15.249,5.072c5.038,1.773,10.124,3.284,15.016,5.325c39.571,14.982,76.004,34.061,108.637,55.805
					c65.285,43.727,114.688,97.89,149.592,151.073c17.481,26.636,31.61,53.052,42.514,78.396c2.962,6.236,5.271,12.594,7.736,18.733
					c2.417,6.153,4.882,12.141,6.782,18.173c2.036,5.992,4.005,11.844,5.944,17.554c1.666,5.793,3.274,11.44,4.853,16.945
					c12.287,44.151,16.253,80.146,17.861,104.54c0.487,6.104,0.896,11.503,0.906,16.175c0.136,4.672,0.224,8.595,0.321,11.761
					c0.137,6.324,0.224,9.583,0.224,9.583s0,0.083,0,0.2h71.346c0.02-0.122,0.02-0.2,0.02-0.2s-0.078-3.693-0.253-10.855
					c-0.098-3.576-0.205-8.019-0.341-13.306c-0.049-5.281-0.487-11.4-1.033-18.323c-1.823-27.625-6.334-68.453-20.268-118.571
					c-1.793-6.246-3.635-12.658-5.515-19.225c-2.173-6.485-4.434-13.126-6.723-19.932c-2.202-6.836-4.96-13.642-7.708-20.624
					c-2.787-6.972-5.447-14.173-8.789-21.252c-12.375-28.75-28.384-58.723-48.194-88.925
					c-39.581-60.302-95.551-121.651-169.567-171.224c-36.989-24.663-78.323-46.319-123.244-63.308
					c-5.545-2.294-11.313-4.044-17.043-6.046c-5.739-1.915-11.469-3.932-17.296-5.749c-5.876-1.676-11.771-3.352-17.675-5.038
					c-2.963-0.833-5.934-1.671-8.896-2.499c-2.991-0.765-6.022-1.432-9.033-2.144c-6.032-1.393-12.092-2.787-18.192-4.18
					c-6.08-1.354-12.287-2.314-18.465-3.464c-3.099-0.55-6.188-1.101-9.286-1.651l-4.677-0.809l-4.706-0.614
					c-6.266-0.804-12.56-1.603-18.874-2.412c-6.324-0.902-12.696-1.291-19.089-1.803c-6.383-0.463-12.794-0.999-19.225-1.374
					c-6.421-0.176-12.892-0.351-19.352-0.521l-9.744-0.219c-3.255-0.005-6.5,0.117-9.754,0.181
					c-6.529,0.175-13.067,0.341-19.615,0.511c-6.557,0.253-13.135,0.892-19.712,1.354c-13.194,0.76-26.377,2.685-39.659,4.36
					c-26.426,4.102-53.056,9.359-79.278,17.174c-13.213,3.498-26.134,8.224-39.211,12.614c-6.47,2.397-12.882,5.004-19.342,7.527
					l-9.657,3.849l-9.51,4.268c-50.933,22.47-99.351,52.672-143.2,89.339c-5.399,4.682-10.806,9.374-16.224,14.065
					c-5.34,4.77-10.445,9.822-15.679,14.753c-2.592,2.494-5.213,4.95-7.756,7.483l-7.474,7.805
					c-4.931,5.267-10.075,10.334-14.772,15.815c-19.362,21.471-36.989,44.667-53.3,68.838
					c-16.244,24.248-30.441,49.987-43.196,76.482l-9.072,20.126c-2.933,6.758-5.515,13.676-8.253,20.521
					c-1.344,3.44-2.738,6.855-3.985,10.324l-3.576,10.484l-3.547,10.504c-1.199,3.498-2.368,7.006-3.323,10.572l-6.051,21.354
					c-1.968,7.138-3.459,14.392-5.164,21.603l-2.456,10.831l-1.988,10.938c-1.247,7.293-2.729,14.562-3.713,21.9
					c-4.336,29.335-6.207,58.938-6.519,88.491c0,0.068,0,0.137,0,0.2H527.947z"/>
				<path style="fill:#E9E9E9;" d="M1664.501,1267.009c-0.098-3.576-0.205-8.019-0.341-13.306c-0.049-5.281-0.487-11.4-1.033-18.323
					c-1.823-27.625-6.334-68.453-20.268-118.571c-1.793-6.246-3.635-12.658-5.515-19.225c-2.173-6.485-4.434-13.126-6.723-19.932
					c-2.202-6.836-4.96-13.642-7.708-20.624c-2.787-6.972-5.447-14.173-8.789-21.252c-12.375-28.75-28.384-58.723-48.194-88.925
					c-39.581-60.302-95.551-121.651-169.567-171.224c-36.989-24.663-78.323-46.319-123.244-63.308
					c-5.545-2.294-11.313-4.044-17.043-6.046c-5.739-1.915-11.469-3.932-17.296-5.749c-5.876-1.676-11.771-3.352-17.675-5.038
					c-2.963-0.833-5.934-1.671-8.896-2.499c-2.991-0.765-6.022-1.432-9.033-2.144c-6.032-1.393-12.092-2.787-18.192-4.18
					c-6.08-1.354-12.287-2.314-18.465-3.464c-3.099-0.55-6.188-1.101-9.286-1.651l-4.677-0.809l-4.706-0.614
					c-6.266-0.804-12.56-1.603-18.874-2.412c-6.324-0.902-12.696-1.291-19.089-1.803c-6.383-0.463-12.794-0.999-19.225-1.374
					c-6.421-0.176-12.892-0.351-19.352-0.521l-9.744-0.219c-3.255-0.005-6.5,0.117-9.754,0.181
					c-6.529,0.175-13.067,0.341-19.615,0.511c-6.557,0.253-13.135,0.892-19.712,1.354c-13.194,0.76-26.377,2.685-39.659,4.36
					c-26.426,4.102-53.056,9.359-79.278,17.174c-13.213,3.498-26.134,8.224-39.211,12.614c-6.47,2.397-12.882,5.004-19.342,7.527
					l-9.657,3.849l-9.51,4.268c-50.933,22.47-99.351,52.672-143.2,89.339c-5.399,4.682-10.806,9.374-16.224,14.065
					c-5.34,4.77-10.445,9.822-15.679,14.753c-2.592,2.494-5.213,4.95-7.756,7.483l-7.474,7.805
					c-4.931,5.267-10.075,10.334-14.772,15.815c-19.362,21.471-36.989,44.667-53.3,68.838
					c-16.244,24.248-30.441,49.987-43.196,76.482l-9.072,20.126c-2.933,6.758-5.515,13.676-8.253,20.521
					c-1.344,3.44-2.738,6.855-3.985,10.324l-3.576,10.484l-3.547,10.504c-1.199,3.498-2.368,7.006-3.323,10.572l-6.051,21.354
					c-1.968,7.138-3.459,14.392-5.164,21.603l-2.456,10.831l-1.988,10.938c-1.247,7.293-2.729,14.562-3.713,21.9
					c-4.336,29.335-6.207,58.938-6.519,88.491c0,0.068,0,0.137,0,0.2h17.208c0.897-20.794,2.66-41.578,5.623-62.226
					c0.964-7.332,2.397-14.606,3.624-21.905l1.92-10.928l2.387-10.84c1.676-7.201,3.138-14.451,5.038-21.598l5.875-21.349
					c0.945-3.576,2.075-7.079,3.245-10.577l3.43-10.504l3.498-10.48c1.208-3.474,2.582-6.889,3.878-10.329
					c2.641-6.85,5.165-13.759,8.01-20.526l8.847-20.122c12.385-26.495,26.202-52.229,42.007-76.482
					c15.873-24.175,33.013-47.362,51.829-68.838c4.589-5.481,9.588-10.548,14.373-15.815l7.279-7.805
					c2.474-2.533,5.028-4.989,7.542-7.483c5.086-4.93,10.056-9.978,15.249-14.753c5.281-4.692,10.524-9.379,15.786-14.065
					c42.65-36.667,89.743-66.874,139.282-89.344l9.238-4.263l9.423-3.849c6.275-2.528,12.492-5.13,18.797-7.517
					c12.725-4.39,25.276-9.125,38.138-12.624c25.51-7.81,51.42-13.072,77.125-17.174c12.911-1.676,25.744-3.601,38.567-4.365
					c6.421-0.463,12.804-1.091,19.186-1.345c6.363-0.176,12.726-0.346,19.06-0.516c3.177-0.059,6.333-0.185,9.491-0.176l9.471,0.214
					c6.305,0.18,12.57,0.346,18.835,0.521c6.246,0.375,12.492,0.906,18.699,1.374c6.217,0.511,12.414,0.906,18.553,1.802
					c6.148,0.804,12.278,1.608,18.368,2.412l4.57,0.614l4.55,0.819c3.021,0.546,6.032,1.096,9.043,1.637
					c6.022,1.159,12.034,2.114,17.978,3.464c5.905,1.403,11.81,2.796,17.686,4.185c2.914,0.711,5.866,1.379,8.78,2.144
					c2.894,0.838,5.778,1.666,8.643,2.5c5.769,1.686,11.488,3.367,17.198,5.047c5.671,1.802,11.245,3.825,16.838,5.739
					c5.564,2.003,11.167,3.751,16.565,6.046c43.703,16.994,83.887,38.65,119.863,63.308
					c72.019,49.573,126.459,110.922,164.929,171.224c19.293,30.197,34.855,60.17,46.908,88.925
					c3.245,7.079,5.837,14.275,8.556,21.247c2.67,6.987,5.349,13.793,7.474,20.628c2.251,6.802,4.434,13.447,6.558,19.932
					c1.841,6.568,3.615,12.984,5.369,19.22c13.545,50.119,17.92,90.952,19.693,118.581c0.468,6.036,0.848,11.425,0.955,16.214h17.12
					c0.02-0.122,0.02-0.2,0.02-0.2S1664.676,1274.171,1664.501,1267.009z"/>
				
					<path style="fill:#B3D8B6;stroke:#585063;stroke-width:20.4924;stroke-linecap:round;stroke-linejoin:round;stroke-miterlimit:10;" d="
					M599.313,1278.064c0-0.063,0-0.132,0-0.2c0.321-22.679,1.695-45.324,4.979-67.726c0.74-5.603,1.939-11.133,2.875-16.711
					l1.471-8.346l1.91-8.253c1.325-5.491,2.426-11.035,3.917-16.473l4.619-16.278c0.711-2.724,1.607-5.393,2.533-8.058l2.719-7.995
					l2.689-8.005c0.965-2.645,2.066-5.237,3.07-7.858c2.114-5.213,4.024-10.499,6.275-15.649l6.928-15.352
					c9.763-20.19,20.541-39.868,32.984-58.387c12.511-18.436,25.9-36.219,40.731-52.623c3.576-4.224,7.571-8.044,11.313-12.087
					l5.7-5.983c1.959-1.944,3.976-3.81,5.954-5.71c4.015-3.756,7.873-7.654,11.976-11.303c4.141-3.586,8.282-7.167,12.414-10.743
					c33.549-28.024,70.518-51.123,109.359-68.233l7.25-3.279l7.376-2.914c4.94-1.9,9.803-3.927,14.724-5.754
					c9.997-3.274,19.8-6.992,29.914-9.593c19.956-6.012,40.282-9.92,60.462-13.106c10.134-1.228,20.18-2.797,30.295-3.318
					c5.037-0.341,10.056-0.881,15.094-1.062c5.028-0.127,10.026-0.249,15.025-0.375c2.504-0.043,4.998-0.161,7.484-0.156
					l7.464,0.195c4.969,0.122,9.929,0.244,14.86,0.365c4.911,0.365,9.813,0.731,14.704,1.096c4.882,0.38,9.773,0.629,14.587,1.359
					c4.823,0.609,9.647,1.223,14.421,1.832l3.605,0.453l3.557,0.643l7.084,1.267c4.716,0.892,9.462,1.569,14.1,2.616
					c4.638,1.072,9.257,2.139,13.866,3.211l6.889,1.598l6.782,1.944c4.501,1.277,8.994,2.548,13.466,3.81
					c4.443,1.388,8.809,2.958,13.184,4.414c4.346,1.53,8.78,2.796,12.979,4.594c34.231,12.974,65.783,29.481,94.051,48.301
					c56.565,37.885,99.419,84.871,129.626,130.922c15.152,23.074,27.411,45.934,36.813,67.873c2.602,5.379,4.55,10.903,6.694,16.204
					c2.085,5.33,4.239,10.495,5.885,15.722c1.744,5.184,3.469,10.246,5.126,15.182c1.432,5.013,2.835,9.9,4.209,14.66
					c10.631,38.187,14.07,69.353,15.435,90.508c0.429,5.301,0.809,9.973,0.809,14.031c0.097,4.049,0.185,7.464,0.243,10.202
					c0.146,5.495,0.234,8.326,0.234,8.326s0,0.083,0,0.2h71.366c0-0.117,0-0.2,0-0.2s-0.088-3.259-0.224-9.583
					c-0.097-3.167-0.185-7.089-0.321-11.761c-0.01-4.672-0.419-10.071-0.906-16.175c-1.608-24.394-5.574-60.389-17.861-104.54
					c-1.579-5.505-3.187-11.152-4.853-16.945c-1.939-5.71-3.907-11.561-5.944-17.554c-1.9-6.032-4.365-12.02-6.782-18.173
					c-2.465-6.139-4.774-12.497-7.736-18.733c-10.904-25.344-25.033-51.761-42.514-78.396
					c-34.903-53.183-84.306-107.346-149.592-151.073c-32.633-21.744-69.067-40.823-108.637-55.805
					c-4.892-2.041-9.978-3.552-15.016-5.325c-5.067-1.681-10.105-3.479-15.249-5.072c-5.165-1.472-10.368-2.948-15.581-4.434
					l-7.825-2.212l-7.961-1.875c-5.32-1.233-10.66-2.461-16.019-3.693c-5.379-1.198-10.836-2.022-16.283-3.04l-8.214-1.461
					l-4.103-0.726l-4.151-0.536c-5.525-0.701-11.089-1.408-16.662-2.114c-5.554-0.823-11.186-1.135-16.818-1.588
					c-5.642-0.41-11.284-0.897-16.965-1.233c-5.691-0.151-11.391-0.297-17.121-0.444l-8.585-0.205
					c-2.874-0.01-5.759,0.112-8.633,0.166c-5.759,0.151-11.537,0.302-17.315,0.439c-5.798,0.229-11.586,0.814-17.403,1.208
					c-11.644,0.643-23.269,2.392-34.972,3.849c-23.308,3.644-46.781,8.224-69.875,15.138c-11.654,3.05-23.025,7.269-34.572,11.108
					c-5.691,2.105-11.332,4.414-17.023,6.626l-8.517,3.386l-8.38,3.776c-44.881,19.785-87.58,46.445-126.284,78.786
					c-4.764,4.126-9.539,8.263-14.305,12.409c-4.726,4.205-9.208,8.677-13.836,13.023c-2.29,2.198-4.599,4.356-6.86,6.597
					l-6.578,6.894c-4.336,4.653-8.916,9.106-13.057,13.954c-17.091,18.938-32.585,39.42-47.006,60.725
					c-14.353,21.388-26.826,44.092-38.08,67.439l-8.01,17.739c-2.602,5.949-4.833,12.049-7.269,18.085
					c-1.159,3.026-2.417,6.037-3.528,9.092l-3.128,9.242l-3.138,9.252c-1.043,3.079-2.085,6.163-2.914,9.315l-5.359,18.806
					c-1.705,6.295-3.001,12.702-4.531,19.05l-2.173,9.539l-1.734,9.642c-1.092,6.431-2.427,12.838-3.284,19.308
					c-3.82,25.866-5.447,51.99-5.759,78.104c0,0.068,0,0.137,0,0.2H599.313z"/>
				<path style="fill:#E9E9E9;" d="M1593.164,1268.281c-0.097-3.167-0.185-7.089-0.321-11.761
					c-0.01-4.672-0.419-10.071-0.906-16.175c-1.608-24.394-5.574-60.389-17.861-104.54c-1.579-5.505-3.187-11.152-4.853-16.945
					c-1.939-5.71-3.907-11.561-5.944-17.554c-1.9-6.032-4.365-12.02-6.782-18.173c-2.465-6.139-4.774-12.497-7.736-18.733
					c-10.904-25.344-25.033-51.761-42.514-78.396c-34.903-53.183-84.306-107.346-149.592-151.073
					c-32.633-21.744-69.067-40.823-108.637-55.805c-4.892-2.041-9.978-3.552-15.016-5.325c-5.067-1.681-10.105-3.479-15.249-5.072
					c-5.165-1.472-10.368-2.948-15.581-4.434l-7.825-2.212l-7.961-1.875c-5.32-1.233-10.66-2.461-16.019-3.693
					c-5.379-1.198-10.836-2.022-16.283-3.04l-8.214-1.461l-4.103-0.726l-4.151-0.536c-5.525-0.701-11.089-1.408-16.662-2.114
					c-5.554-0.823-11.186-1.135-16.818-1.588c-5.642-0.41-11.284-0.897-16.965-1.233c-5.691-0.151-11.391-0.297-17.121-0.444
					l-8.585-0.205c-2.874-0.01-5.759,0.112-8.633,0.166c-5.759,0.151-11.537,0.302-17.315,0.439
					c-5.798,0.229-11.586,0.814-17.403,1.208c-11.644,0.643-23.269,2.392-34.972,3.849c-23.308,3.644-46.781,8.224-69.875,15.138
					c-11.654,3.05-23.025,7.269-34.572,11.108c-5.691,2.105-11.332,4.414-17.023,6.626l-8.517,3.386l-8.38,3.776
					c-44.881,19.785-87.58,46.445-126.284,78.786c-4.764,4.126-9.539,8.263-14.305,12.409c-4.726,4.205-9.208,8.677-13.836,13.023
					c-2.29,2.198-4.599,4.356-6.86,6.597l-6.578,6.894c-4.336,4.653-8.916,9.106-13.057,13.954
					c-17.091,18.938-32.585,39.42-47.006,60.725c-14.353,21.388-26.826,44.092-38.08,67.439l-8.01,17.739
					c-2.602,5.949-4.833,12.049-7.269,18.085c-1.159,3.026-2.417,6.037-3.528,9.092l-3.128,9.242l-3.138,9.252
					c-1.043,3.079-2.085,6.163-2.914,9.315l-5.359,18.806c-1.705,6.295-3.001,12.702-4.531,19.05l-2.173,9.539l-1.734,9.642
					c-1.092,6.431-2.427,12.838-3.284,19.308c-3.82,25.866-5.447,51.99-5.759,78.104c0,0.068,0,0.137,0,0.2h13.057
					c0.848-17.335,2.299-34.651,4.794-51.839c0.828-6.475,2.134-12.872,3.206-19.313l1.686-9.637l2.124-9.549
					c1.481-6.343,2.767-12.745,4.444-19.03l5.213-18.811c0.828-3.157,1.832-6.241,2.884-9.315l3.04-9.257l3.069-9.247
					c1.072-3.055,2.309-6.056,3.44-9.096c2.377-6.022,4.56-12.122,7.094-18.076l7.824-17.739
					c11.011-23.347,23.201-46.051,37.203-67.435c14.1-21.31,29.252-41.792,45.944-60.735c4.054-4.848,8.526-9.301,12.745-13.949
					l6.431-6.894c2.202-2.237,4.473-4.395,6.694-6.597c4.521-4.346,8.896-8.818,13.525-13.028
					c4.668-4.136,9.345-8.273,13.993-12.404c37.798-32.346,79.531-58.996,123.38-78.786l8.195-3.771l8.312-3.386
					c5.564-2.212,11.079-4.526,16.633-6.636c11.284-3.829,22.392-8.053,33.782-11.103c22.548-6.908,45.496-11.498,68.258-15.142
					c11.439-1.447,22.801-3.196,34.182-3.844c5.672-0.395,11.333-0.984,16.984-1.199c5.661-0.156,11.304-0.302,16.936-0.448
					c2.806-0.053,5.622-0.176,8.409-0.171l8.409,0.205c5.593,0.151,11.166,0.302,16.711,0.444
					c5.564,0.346,11.089,0.828,16.574,1.242c5.535,0.444,11.031,0.77,16.448,1.579c5.447,0.711,10.885,1.423,16.283,2.119
					l4.054,0.531l4.015,0.731l8.019,1.461c5.32,1.018,10.66,1.837,15.892,3.035c5.242,1.238,10.455,2.465,15.669,3.698l7.766,1.871
					l7.669,2.217c5.096,1.486,10.163,2.962,15.22,4.433c5.008,1.594,9.939,3.391,14.879,5.072c4.921,1.768,9.92,3.284,14.685,5.325
					c38.655,14.982,74.24,34.061,106.143,55.81c63.775,43.727,112.057,97.889,146.152,151.068
					c17.091,26.636,30.889,53.052,41.549,78.401c2.894,6.231,5.145,12.589,7.571,18.723c2.348,6.158,4.745,12.146,6.616,18.178
					c1.978,5.992,3.917,11.839,5.798,17.549c1.627,5.798,3.206,11.45,4.755,16.95c12.005,44.151,15.864,80.146,17.432,104.545
					c0.331,4.078,0.585,7.815,0.76,11.25h12.891c0-0.117,0-0.2,0-0.2S1593.301,1274.605,1593.164,1268.281z"/>
				<g>
					
						<path style="fill:#B4DEE4;stroke:#585063;stroke-width:20.4924;stroke-linecap:round;stroke-linejoin:round;stroke-miterlimit:10;" d="
						M670.688,1278.064c0-0.063,0-0.132,0-0.2c0.302-19.234,1.423-38.416,4.219-57.344c0.614-4.736,1.656-9.403,2.446-14.119
						l1.208-7.05l1.627-6.962c1.13-4.628,2.027-9.32,3.294-13.91l3.917-13.729c0.565-2.309,1.344-4.56,2.134-6.802l2.3-6.748
						l2.251-6.762c0.809-2.237,1.744-4.419,2.621-6.626c1.784-4.4,3.372-8.877,5.262-13.223l5.866-12.96
						c8.283-17.033,17.345-33.681,27.868-49.335c10.611-15.581,21.905-30.645,34.455-44.521c3.011-3.581,6.431-6.786,9.598-10.216
						l4.804-5.082c1.657-1.637,3.372-3.211,5.038-4.818c3.41-3.167,6.665-6.495,10.134-9.578c3.528-3.031,7.006-6.056,10.514-9.091
						c28.404-23.693,59.643-43.24,92.452-57.661l6.1-2.797l6.236-2.431c4.16-1.607,8.273-3.332,12.434-4.882
						c8.438-2.704,16.692-5.919,25.227-8.078c16.838-5.111,34.026-8.346,51.059-11.084c8.585-0.989,17.052-2.383,25.627-2.792
						c4.278-0.268,8.516-0.765,12.784-0.911c4.248-0.097,8.497-0.205,12.745-0.302c2.114-0.039,4.219-0.166,6.344-0.156l6.314,0.185
						c4.209,0.102,8.419,0.2,12.609,0.297c4.171,0.312,8.312,0.629,12.444,0.94c4.141,0.326,8.282,0.497,12.346,1.149
						c4.083,0.516,8.146,1.028,12.209,1.54l3.031,0.375l3.001,0.551l5.993,1.086c3.976,0.76,8,1.296,11.907,2.193
						c3.917,0.911,7.815,1.818,11.703,2.719l5.808,1.345l5.72,1.647c3.81,1.072,7.61,2.144,11.371,3.211
						c3.751,1.165,7.425,2.519,11.118,3.732c3.673,1.306,7.425,2.324,10.982,3.864c28.872,10.972,55.522,24.901,79.434,40.813
						c47.844,32.039,84.121,71.839,109.68,110.776c12.794,19.503,23.171,38.801,31.084,57.339c2.231,4.531,3.859,9.203,5.651,13.681
						c1.764,4.497,3.625,8.848,4.979,13.271c1.481,4.37,2.924,8.643,4.346,12.804c1.208,4.234,2.378,8.361,3.518,12.385
						c9.004,32.214,11.917,58.553,13.038,76.472c0.38,4.477,0.721,8.438,0.692,11.888c0.078,3.43,0.166,6.324,0.205,8.653
						c0.156,4.648,0.224,7.054,0.224,7.054s0,0.083,0,0.2h71.366c0-0.117,0-0.2,0-0.2s-0.088-2.831-0.234-8.326
						c-0.058-2.739-0.146-6.153-0.243-10.202c0-4.058-0.38-8.731-0.809-14.031c-1.364-21.155-4.804-52.322-15.435-90.508
						c-1.374-4.76-2.777-9.647-4.209-14.66c-1.657-4.936-3.382-9.997-5.126-15.182c-1.647-5.227-3.8-10.392-5.885-15.722
						c-2.144-5.301-4.093-10.826-6.694-16.204c-9.403-21.939-21.661-44.799-36.813-67.873
						c-30.207-46.051-73.061-93.037-129.626-130.922c-28.268-18.82-59.819-35.327-94.051-48.301
						c-4.199-1.798-8.633-3.065-12.979-4.594c-4.375-1.457-8.741-3.026-13.184-4.414c-4.473-1.262-8.965-2.533-13.466-3.81
						l-6.782-1.944l-6.889-1.598c-4.609-1.072-9.228-2.139-13.866-3.211c-4.638-1.047-9.384-1.725-14.1-2.616l-7.084-1.267
						l-3.557-0.643l-3.605-0.453c-4.775-0.609-9.598-1.223-14.421-1.832c-4.814-0.731-9.705-0.979-14.587-1.359
						c-4.892-0.365-9.793-0.731-14.704-1.096c-4.931-0.122-9.89-0.244-14.86-0.365l-7.464-0.195
						c-2.485-0.005-4.98,0.112-7.484,0.156c-4.999,0.127-9.998,0.248-15.025,0.375c-5.038,0.181-10.056,0.721-15.094,1.062
						c-10.115,0.521-20.16,2.09-30.295,3.318c-20.18,3.186-40.506,7.093-60.462,13.106c-10.115,2.602-19.917,6.319-29.914,9.593
						c-4.921,1.827-9.783,3.854-14.724,5.754l-7.376,2.914l-7.25,3.279c-38.84,17.111-75.809,40.209-109.359,68.233
						c-4.131,3.576-8.273,7.157-12.414,10.743c-4.102,3.649-7.961,7.547-11.976,11.303c-1.978,1.9-3.995,3.766-5.954,5.71
						l-5.7,5.983c-3.742,4.044-7.736,7.863-11.313,12.087c-14.831,16.404-28.219,34.187-40.731,52.623
						c-12.443,18.519-23.22,38.197-32.984,58.387l-6.928,15.352c-2.251,5.15-4.161,10.436-6.275,15.649
						c-1.004,2.621-2.105,5.213-3.07,7.858l-2.689,8.005l-2.719,7.995c-0.926,2.665-1.823,5.335-2.533,8.058l-4.619,16.278
						c-1.491,5.438-2.592,10.982-3.917,16.473l-1.91,8.253l-1.471,8.346c-0.935,5.579-2.134,11.108-2.875,16.711
						c-3.284,22.402-4.658,45.047-4.979,67.726c0,0.068,0,0.137,0,0.2H670.688z"/>
				</g>
				<path style="fill:#E9E9E9;" d="M1521.789,1269.538c-0.058-2.739-0.146-6.153-0.243-10.202c0-4.058-0.38-8.731-0.809-14.031
					c-1.364-21.155-4.804-52.322-15.435-90.508c-1.374-4.76-2.777-9.647-4.209-14.66c-1.657-4.936-3.382-9.997-5.126-15.182
					c-1.647-5.227-3.8-10.392-5.885-15.722c-2.144-5.301-4.093-10.826-6.694-16.204c-9.403-21.939-21.661-44.799-36.813-67.873
					c-30.207-46.051-73.061-93.037-129.626-130.922c-28.268-18.82-59.819-35.327-94.051-48.301
					c-4.199-1.798-8.633-3.065-12.979-4.594c-4.375-1.457-8.741-3.026-13.184-4.414c-4.473-1.262-8.965-2.533-13.466-3.81
					l-6.782-1.944l-6.889-1.598c-4.609-1.072-9.228-2.139-13.866-3.211c-4.638-1.047-9.384-1.725-14.1-2.616l-7.084-1.267
					l-3.557-0.643l-3.605-0.453c-4.775-0.609-9.598-1.223-14.421-1.832c-4.814-0.731-9.705-0.979-14.587-1.359
					c-4.892-0.365-9.793-0.731-14.704-1.096c-4.931-0.122-9.89-0.244-14.86-0.365l-7.464-0.195c-2.485-0.005-4.98,0.112-7.484,0.156
					c-4.999,0.127-9.998,0.248-15.025,0.375c-5.038,0.181-10.056,0.721-15.094,1.062c-10.115,0.521-20.16,2.09-30.295,3.318
					c-20.18,3.186-40.506,7.093-60.462,13.106c-10.115,2.602-19.917,6.319-29.914,9.593c-4.921,1.827-9.783,3.854-14.724,5.754
					l-7.376,2.914l-7.25,3.279c-38.84,17.111-75.809,40.209-109.359,68.233c-4.131,3.576-8.273,7.157-12.414,10.743
					c-4.102,3.649-7.961,7.547-11.976,11.303c-1.978,1.9-3.995,3.766-5.954,5.71l-5.7,5.983c-3.742,4.044-7.736,7.863-11.313,12.087
					c-14.831,16.404-28.219,34.187-40.731,52.623c-12.443,18.519-23.22,38.197-32.984,58.387l-6.928,15.352
					c-2.251,5.15-4.161,10.436-6.275,15.649c-1.004,2.621-2.105,5.213-3.07,7.858l-2.689,8.005l-2.719,7.995
					c-0.926,2.665-1.823,5.335-2.533,8.058l-4.619,16.278c-1.491,5.438-2.592,10.982-3.917,16.473l-1.91,8.253l-1.471,8.346
					c-0.935,5.579-2.134,11.108-2.875,16.711c-3.284,22.402-4.658,45.047-4.979,67.726c0,0.068,0,0.137,0,0.2h14.889
					c0.721-15.143,1.969-30.251,4.112-45.237c0.711-5.613,1.871-11.142,2.777-16.721l1.432-8.336l1.841-8.258
					c1.287-5.481,2.329-11.035,3.801-16.472l4.472-16.278c0.692-2.724,1.569-5.398,2.466-8.054l2.621-8.005l2.611-7.995
					c0.945-2.646,1.988-5.242,2.982-7.864c2.036-5.213,3.897-10.499,6.08-15.654l6.704-15.347
					c9.481-20.19,19.907-39.864,31.961-58.377c12.141-18.451,25.14-36.224,39.493-52.638c3.479-4.219,7.337-8.039,10.972-12.083
					l5.534-5.983c1.89-1.939,3.84-3.805,5.769-5.715c3.888-3.751,7.63-7.649,11.605-11.294c4.014-3.591,8.029-7.172,12.034-10.748
					c32.516-28.024,68.345-51.122,105.997-68.233l7.025-3.279l7.162-2.909c4.765-1.91,9.481-3.927,14.275-5.759
					c9.686-3.269,19.167-6.986,28.979-9.593c19.362-6.012,39.064-9.92,58.601-13.11c9.842-1.228,19.576-2.797,29.379-3.313
					c4.882-0.336,9.734-0.877,14.616-1.062c4.872-0.122,9.734-0.243,14.577-0.375c2.416-0.044,4.843-0.171,7.25-0.161l7.24,0.2
					c4.803,0.122,9.607,0.248,14.392,0.37c4.775,0.356,9.53,0.721,14.255,1.082c4.745,0.385,9.481,0.638,14.129,1.369
					c4.697,0.614,9.344,1.223,14.002,1.837l3.488,0.448l3.44,0.638l6.869,1.272c4.57,0.896,9.169,1.568,13.671,2.616
					c4.492,1.077,8.964,2.144,13.437,3.206l6.675,1.607l6.558,1.939c4.385,1.272,8.74,2.543,13.077,3.815
					c4.297,1.378,8.526,2.957,12.774,4.409c4.21,1.535,8.507,2.797,12.599,4.594c33.169,12.974,63.736,29.481,91.156,48.302
					c54.821,37.88,96.34,84.866,125.641,130.927c14.694,23.064,26.553,45.929,35.673,67.872c2.523,5.379,4.414,10.899,6.49,16.205
					c2.036,5.32,4.112,10.485,5.7,15.722c1.705,5.174,3.372,10.241,4.979,15.176c1.384,5.013,2.748,9.9,4.063,14.665
					c10.319,38.182,13.661,69.344,14.967,90.508c0.302,3.659,0.546,7.006,0.692,10.071h14.724c0-0.117,0-0.2,0-0.2
					S1521.935,1275.033,1521.789,1269.538z"/>
				<g>
					
						<path style="fill:#A0C2E7;stroke:#585063;stroke-width:20.4924;stroke-linecap:round;stroke-linejoin:round;stroke-miterlimit:10;" d="
						M742.044,1278.064c0-0.063,0-0.132,0-0.2c0.312-15.8,1.199-31.507,3.479-46.957c0.477-3.878,1.374-7.673,1.988-11.522
						l0.994-5.759l1.335-5.671c0.945-3.771,1.637-7.61,2.67-11.347c1.101-3.722,2.173-7.449,3.196-11.191
						c0.458-1.895,1.101-3.722,1.754-5.544l1.88-5.505l1.812-5.51c0.643-1.822,1.442-3.596,2.144-5.398
						c1.481-3.581,2.738-7.245,4.278-10.787c1.647-3.508,3.245-7.031,4.794-10.563c6.792-13.89,14.129-27.508,22.762-40.297
						c8.691-12.706,17.89-25.062,28.19-36.409c2.426-2.948,5.261-5.54,7.844-8.355l3.907-4.175l4.161-3.932
						c2.787-2.577,5.437-5.32,8.283-7.839l8.604-7.44c23.24-19.371,48.769-35.366,75.526-47.118l4.97-2.294l5.096-1.964
						c3.391-1.335,6.763-2.665,10.134-3.99c6.899-2.153,13.593-4.862,20.57-6.568c13.72-4.214,27.742-6.772,41.647-9.047
						c7.006-0.765,13.924-1.993,20.95-2.266c3.498-0.219,6.967-0.658,10.445-0.765c3.508-0.078,6.997-0.161,10.485-0.243
						c1.725-0.034,3.469-0.151,5.203-0.146l5.184,0.18c3.459,0.073,6.919,0.141,10.349,0.215c3.401,0.268,6.821,0.531,10.202,0.799
						c3.372,0.258,6.772,0.366,10.085,0.926c3.342,0.419,6.665,0.838,9.968,1.267l2.495,0.282l2.456,0.463l4.882,0.897
						c3.245,0.638,6.509,1.033,9.715,1.774c3.186,0.745,6.372,1.491,9.529,2.231c1.598,0.366,3.187,0.682,4.746,1.077l4.658,1.359
						c3.108,0.877,6.207,1.735,9.286,2.602c3.05,0.95,6.032,2.08,9.052,3.069c2.981,1.062,6.071,1.842,8.945,3.138
						c23.542,8.97,45.291,20.317,64.837,33.305c39.103,26.192,68.823,58.816,89.715,90.626
						c10.484,15.941,18.962,31.683,25.403,46.811c1.842,3.693,3.099,7.517,4.579,11.167c1.452,3.663,2.991,7.201,4.063,10.811
						c1.218,3.561,2.397,7.045,3.566,10.435c0.974,3.45,1.929,6.821,2.845,10.1c7.377,26.251,9.734,47.756,10.651,62.445
						c0.302,3.659,0.614,6.899,0.565,9.734c0.068,2.816,0.127,5.194,0.175,7.099c0.127,3.825,0.186,5.793,0.186,5.793
						s0,0.083-0.01,0.2h71.385c0-0.117,0-0.2,0-0.2s-0.068-2.407-0.224-7.054c-0.039-2.329-0.127-5.223-0.205-8.653
						c0.029-3.449-0.312-7.411-0.692-11.888c-1.12-17.919-4.034-44.258-13.038-76.472c-1.14-4.024-2.309-8.151-3.518-12.385
						c-1.422-4.161-2.865-8.433-4.346-12.804c-1.355-4.424-3.215-8.775-4.979-13.271c-1.793-4.478-3.42-9.15-5.651-13.681
						c-7.912-18.538-18.29-37.837-31.084-57.339c-25.559-38.938-61.836-78.737-109.68-110.776
						c-23.912-15.912-50.562-29.841-79.434-40.813c-3.557-1.54-7.308-2.558-10.982-3.864c-3.693-1.213-7.367-2.567-11.118-3.732
						c-3.761-1.067-7.562-2.139-11.371-3.211l-5.72-1.647l-5.808-1.345c-3.888-0.901-7.785-1.807-11.703-2.719
						c-3.907-0.896-7.932-1.432-11.907-2.193l-5.993-1.086l-3.001-0.551l-3.031-0.375c-4.063-0.511-8.127-1.023-12.209-1.54
						c-4.063-0.653-8.205-0.823-12.346-1.149c-4.132-0.312-8.273-0.629-12.444-0.94c-4.19-0.097-8.399-0.195-12.609-0.297
						l-6.314-0.185c-2.124-0.01-4.229,0.117-6.344,0.156c-4.249,0.097-8.497,0.205-12.745,0.302
						c-4.268,0.146-8.507,0.643-12.784,0.911c-8.575,0.409-17.042,1.802-25.627,2.792c-17.033,2.738-34.221,5.973-51.059,11.084
						c-8.536,2.158-16.789,5.374-25.227,8.078c-4.161,1.55-8.273,3.274-12.434,4.882l-6.236,2.431l-6.1,2.797
						c-32.809,14.421-64.048,33.968-92.452,57.661c-3.508,3.035-6.987,6.061-10.514,9.091c-3.469,3.084-6.723,6.411-10.134,9.578
						c-1.666,1.607-3.381,3.181-5.038,4.818l-4.804,5.082c-3.167,3.43-6.587,6.635-9.598,10.216
						c-12.55,13.876-23.844,28.94-34.455,44.521c-10.524,15.654-19.586,32.302-27.868,49.335l-5.866,12.96
						c-1.89,4.346-3.478,8.823-5.262,13.223c-0.877,2.207-1.812,4.389-2.621,6.626l-2.251,6.762l-2.3,6.748
						c-0.789,2.241-1.569,4.492-2.134,6.802l-3.917,13.729c-1.267,4.589-2.163,9.281-3.294,13.91l-1.627,6.962l-1.208,7.05
						c-0.789,4.716-1.831,9.384-2.446,14.119c-2.796,18.928-3.917,38.109-4.219,57.344c0,0.068,0,0.137,0,0.2H742.044z"/>
				</g>
				<path style="fill:#E9E9E9;" d="M1450.433,1270.81c-0.039-2.329-0.127-5.223-0.205-8.653c0.029-3.449-0.312-7.411-0.692-11.888
					c-1.12-17.919-4.034-44.258-13.038-76.472c-1.14-4.024-2.309-8.151-3.518-12.385c-1.422-4.161-2.865-8.433-4.346-12.804
					c-1.355-4.424-3.215-8.775-4.979-13.271c-1.793-4.478-3.42-9.15-5.651-13.681c-7.912-18.538-18.29-37.837-31.084-57.339
					c-25.559-38.938-61.836-78.737-109.68-110.776c-23.912-15.912-50.562-29.841-79.434-40.813
					c-3.557-1.54-7.308-2.558-10.982-3.864c-3.693-1.213-7.367-2.567-11.118-3.732c-3.761-1.067-7.562-2.139-11.371-3.211
					l-5.72-1.647l-5.808-1.345c-3.888-0.901-7.785-1.807-11.703-2.719c-3.907-0.896-7.932-1.432-11.907-2.193l-5.993-1.086
					l-3.001-0.551l-3.031-0.375c-4.063-0.511-8.127-1.023-12.209-1.54c-4.063-0.653-8.205-0.823-12.346-1.149
					c-4.132-0.312-8.273-0.629-12.444-0.94c-4.19-0.097-8.399-0.195-12.609-0.297l-6.314-0.185c-2.124-0.01-4.229,0.117-6.344,0.156
					c-4.249,0.097-8.497,0.205-12.745,0.302c-4.268,0.146-8.507,0.643-12.784,0.911c-8.575,0.409-17.042,1.802-25.627,2.792
					c-17.033,2.738-34.221,5.973-51.059,11.084c-8.536,2.158-16.789,5.374-25.227,8.078c-4.161,1.55-8.273,3.274-12.434,4.882
					l-6.236,2.431l-6.1,2.797c-32.809,14.421-64.048,33.968-92.452,57.661c-3.508,3.035-6.987,6.061-10.514,9.091
					c-3.469,3.084-6.723,6.411-10.134,9.578c-1.666,1.607-3.381,3.181-5.038,4.818l-4.804,5.082
					c-3.167,3.43-6.587,6.635-9.598,10.216c-12.55,13.876-23.844,28.94-34.455,44.521c-10.524,15.654-19.586,32.302-27.868,49.335
					l-5.866,12.96c-1.89,4.346-3.478,8.823-5.262,13.223c-0.877,2.207-1.812,4.389-2.621,6.626l-2.251,6.762l-2.3,6.748
					c-0.789,2.241-1.569,4.492-2.134,6.802l-3.917,13.729c-1.267,4.589-2.163,9.281-3.294,13.91l-1.627,6.962l-1.208,7.05
					c-0.789,4.716-1.831,9.384-2.446,14.119c-2.796,18.928-3.917,38.109-4.219,57.344c0,0.068,0,0.137,0,0.2h18.933
					c0.653-10.412,1.608-20.78,3.06-31.074c0.565-4.741,1.569-9.408,2.309-14.124l1.169-7.045l1.559-6.972
					c1.072-4.623,1.929-9.315,3.138-13.905l3.732-13.729c0.556-2.314,1.296-4.555,2.027-6.802l2.192-6.753l2.173-6.763
					c0.76-2.232,1.656-4.409,2.465-6.626c1.715-4.395,3.235-8.872,5.047-13.218l5.593-12.955
					c7.893-17.038,16.526-33.691,26.582-49.34c10.114-15.576,20.891-30.64,32.866-44.521c2.885-3.581,6.129-6.782,9.14-10.221
					l4.589-5.077c1.578-1.642,3.225-3.206,4.823-4.818c3.254-3.172,6.353-6.495,9.676-9.569c3.333-3.04,6.675-6.066,10.007-9.096
					c27.089-23.698,56.896-43.245,88.194-57.676l5.827-2.787l5.954-2.436c3.966-1.607,7.873-3.323,11.839-4.872
					c8.078-2.714,15.941-5.924,24.087-8.083c16.068-5.116,32.448-8.351,48.692-11.075c8.185-0.999,16.283-2.397,24.458-2.796
					c4.083-0.273,8.127-0.77,12.181-0.911c4.073-0.102,8.127-0.205,12.161-0.307c2.026-0.043,4.044-0.161,6.061-0.156l6.032,0.185
					c4.015,0.102,8.019,0.199,12.024,0.292c3.966,0.317,7.932,0.629,11.878,0.95c3.946,0.322,7.893,0.497,11.781,1.145
					c3.869,0.516,7.756,1.033,11.625,1.545l2.914,0.37l2.865,0.551l5.7,1.086c3.8,0.765,7.61,1.301,11.361,2.198
					c3.732,0.906,7.455,1.807,11.147,2.708l5.564,1.345l5.447,1.656c3.635,1.067,7.25,2.139,10.855,3.206
					c3.576,1.164,7.084,2.514,10.612,3.732c3.498,1.306,7.074,2.324,10.465,3.874c27.547,10.967,52.969,24.891,75.78,40.803
					c45.632,32.034,80.243,71.839,104.623,110.776c12.209,19.503,22.119,38.806,29.661,57.339c2.124,4.531,3.654,9.203,5.379,13.685
					c1.696,4.492,3.459,8.843,4.755,13.267c1.413,4.365,2.797,8.638,4.141,12.804c1.15,4.234,2.27,8.366,3.352,12.38
					c8.585,32.219,11.371,58.557,12.463,76.477c0.029,0.478,0.059,0.877,0.088,1.33h18.923c0-0.117,0-0.2,0-0.2
					S1450.588,1275.457,1450.433,1270.81z"/>
				<g>
					
						<path style="fill:#B79AC8;stroke:#585063;stroke-width:20.4924;stroke-linecap:round;stroke-linejoin:round;stroke-miterlimit:10;" d="
						M813.42,1278.064c0-0.063,0-0.132-0.019-0.2c0.331-12.36,0.955-24.594,2.728-36.574c0.341-3.011,1.101-5.934,1.569-8.921
						l0.711-4.473l1.091-4.385c0.741-2.909,1.218-5.891,2.046-8.785c0.867-2.865,1.686-5.749,2.456-8.643
						c0.331-1.471,0.848-2.884,1.374-4.297l1.442-4.244l1.384-4.273c0.506-1.413,1.149-2.772,1.695-4.171
						c1.15-2.762,2.085-5.608,3.284-8.346c1.306-2.704,2.543-5.427,3.722-8.171c5.291-10.733,10.913-21.335,17.656-31.25
						c6.792-9.841,13.875-19.488,21.895-28.307c1.881-2.319,4.151-4.277,6.13-6.49l3.02-3.264l3.264-3.045
						c2.183-1.988,4.2-4.161,6.421-6.115c2.27-1.89,4.492-3.82,6.694-5.778c18.105-15.055,37.905-27.493,58.601-36.555l3.859-1.813
						l3.936-1.491c2.621-1.038,5.213-2.07,7.834-3.113c5.369-1.583,10.504-3.786,15.922-5.043
						c10.582-3.323,21.447-5.203,32.224-7.026c5.457-0.541,10.806-1.583,16.282-1.744c2.729-0.151,5.408-0.541,8.137-0.619
						c2.757-0.015,5.486-0.063,8.175-0.161c1.374-0.039,2.738-0.151,4.083-0.146l4.063,0.166c2.689,0.088,5.399,0.141,8.078,0.146
						c2.65,0.214,5.291,0.433,7.941,0.648c2.631,0.205,5.281,0.234,7.844,0.716c2.582,0.366,5.165,0.687,7.747,0.97l1.929,0.205
						l1.89,0.375l3.781,0.716c2.514,0.507,5.067,0.755,7.532,1.345c2.465,0.624,4.921,1.204,7.396,1.745
						c1.208,0.277,2.436,0.501,3.654,0.804l3.605,1.087c2.377,0.701,4.785,1.359,7.172,1.983c2.368,0.736,4.677,1.647,7.006,2.392
						c2.299,0.843,4.706,1.379,6.908,2.417c18.212,6.962,35.05,15.737,50.25,25.807c30.373,20.346,53.544,45.793,69.749,70.475
						c8.136,12.375,14.743,24.565,19.673,36.292c1.481,2.831,2.397,5.822,3.567,8.638c1.101,2.831,2.358,5.549,3.128,8.361
						c0.906,2.767,1.851,5.451,2.777,8.058c0.76,2.675,1.481,5.281,2.173,7.815c5.73,20.287,7.591,36.965,8.253,48.409
						c0.253,2.86,0.536,5.374,0.458,7.596c0.049,2.202,0.097,4.058,0.107,5.549c0.127,2.986,0.195,4.526,0.195,4.526
						s0,0.112-0.019,0.2h71.375c0.01-0.117,0.01-0.2,0.01-0.2s-0.059-1.968-0.186-5.793c-0.048-1.905-0.107-4.282-0.175-7.099
						c0.049-2.835-0.263-6.075-0.565-9.734c-0.916-14.69-3.274-36.195-10.651-62.445c-0.916-3.279-1.871-6.65-2.845-10.1
						c-1.169-3.391-2.348-6.874-3.566-10.435c-1.072-3.61-2.612-7.148-4.063-10.811c-1.481-3.649-2.738-7.474-4.579-11.167
						c-6.441-15.128-14.919-30.869-25.403-46.811c-20.891-31.81-50.611-64.433-89.715-90.626
						c-19.547-12.989-41.295-24.336-64.837-33.305c-2.874-1.296-5.964-2.075-8.945-3.138c-3.021-0.989-6.002-2.119-9.052-3.069
						c-3.079-0.867-6.178-1.725-9.286-2.602l-4.658-1.359c-1.559-0.395-3.148-0.711-4.746-1.077
						c-3.157-0.74-6.344-1.486-9.529-2.231c-3.206-0.741-6.47-1.135-9.715-1.774l-4.882-0.897l-2.456-0.463l-2.495-0.282
						c-3.303-0.429-6.626-0.848-9.968-1.267c-3.313-0.56-6.714-0.667-10.085-0.926c-3.381-0.268-6.802-0.531-10.202-0.799
						c-3.43-0.073-6.889-0.141-10.349-0.215l-5.184-0.18c-1.735-0.005-3.479,0.112-5.203,0.146
						c-3.488,0.083-6.977,0.166-10.485,0.243c-3.478,0.107-6.947,0.546-10.445,0.765c-7.026,0.273-13.944,1.501-20.95,2.266
						c-13.905,2.275-27.927,4.833-41.647,9.047c-6.977,1.705-13.671,4.414-20.57,6.568c-3.372,1.325-6.743,2.655-10.134,3.99
						l-5.096,1.964l-4.97,2.294c-26.757,11.752-52.287,27.747-75.526,47.118l-8.604,7.44c-2.846,2.519-5.496,5.262-8.283,7.839
						l-4.161,3.932l-3.907,4.175c-2.582,2.816-5.418,5.408-7.844,8.355c-10.3,11.347-19.498,23.703-28.19,36.409
						c-8.633,12.789-15.971,26.407-22.762,40.297c-1.55,3.532-3.148,7.054-4.794,10.563c-1.54,3.542-2.796,7.206-4.278,10.787
						c-0.701,1.802-1.501,3.576-2.144,5.398l-1.812,5.51l-1.88,5.505c-0.653,1.823-1.296,3.65-1.754,5.544
						c-1.023,3.742-2.095,7.469-3.196,11.191c-1.033,3.737-1.725,7.576-2.67,11.347l-1.335,5.671l-0.994,5.759
						c-0.614,3.849-1.51,7.645-1.988,11.522c-2.28,15.449-3.167,31.157-3.479,46.957c0,0.068,0,0.137,0,0.2H813.42z"/>
				</g>
				<path style="fill:#E9E9E9;" d="M1379.096,1272.071c-0.048-1.905-0.107-4.282-0.175-7.099c0.049-2.835-0.263-6.075-0.565-9.734
					c-0.916-14.69-3.274-36.195-10.651-62.445c-0.916-3.279-1.871-6.65-2.845-10.1c-1.169-3.391-2.348-6.874-3.566-10.435
					c-1.072-3.61-2.612-7.148-4.063-10.811c-1.481-3.649-2.738-7.474-4.579-11.167c-6.441-15.128-14.919-30.869-25.403-46.811
					c-20.891-31.81-50.611-64.433-89.715-90.626c-19.547-12.989-41.295-24.336-64.837-33.305c-2.874-1.296-5.964-2.075-8.945-3.138
					c-3.021-0.989-6.002-2.119-9.052-3.069c-3.079-0.867-6.178-1.725-9.286-2.602l-4.658-1.359
					c-1.559-0.395-3.148-0.711-4.746-1.077c-3.157-0.74-6.344-1.486-9.529-2.231c-3.206-0.741-6.47-1.135-9.715-1.774l-4.882-0.897
					l-2.456-0.463l-2.495-0.282c-3.303-0.429-6.626-0.848-9.968-1.267c-3.313-0.56-6.714-0.667-10.085-0.926
					c-3.381-0.268-6.802-0.531-10.202-0.799c-3.43-0.073-6.889-0.141-10.349-0.215l-5.184-0.18
					c-1.735-0.005-3.479,0.112-5.203,0.146c-3.488,0.083-6.977,0.166-10.485,0.243c-3.478,0.107-6.947,0.546-10.445,0.765
					c-7.026,0.273-13.944,1.501-20.95,2.266c-13.905,2.275-27.927,4.833-41.647,9.047c-6.977,1.705-13.671,4.414-20.57,6.568
					c-3.372,1.325-6.743,2.655-10.134,3.99l-5.096,1.964l-4.97,2.294c-26.757,11.752-52.287,27.747-75.526,47.118l-8.604,7.44
					c-2.846,2.519-5.496,5.262-8.283,7.839l-4.161,3.932l-3.907,4.175c-2.582,2.816-5.418,5.408-7.844,8.355
					c-10.3,11.347-19.498,23.703-28.19,36.409c-8.633,12.789-15.971,26.407-22.762,40.297c-1.55,3.532-3.148,7.054-4.794,10.563
					c-1.54,3.542-2.796,7.206-4.278,10.787c-0.701,1.802-1.501,3.576-2.144,5.398l-1.812,5.51l-1.88,5.505
					c-0.653,1.823-1.296,3.65-1.754,5.544c-1.023,3.742-2.095,7.469-3.196,11.191c-1.033,3.737-1.725,7.576-2.67,11.347
					l-1.335,5.671l-0.994,5.759c-0.614,3.849-1.51,7.645-1.988,11.522c-2.28,15.449-3.167,31.157-3.479,46.957
					c0,0.068,0,0.137,0,0.2h15.074c0.526-8.214,1.277-16.38,2.417-24.467c0.467-3.884,1.335-7.679,1.92-11.523l0.925-5.769
					l1.296-5.676c0.906-3.766,1.549-7.6,2.553-11.347c1.052-3.712,2.075-7.445,3.04-11.191c0.429-1.886,1.052-3.713,1.676-5.535
					l1.802-5.5l1.715-5.52c0.643-1.817,1.383-3.596,2.065-5.398c1.413-3.576,2.612-7.245,4.093-10.782
					c1.559-3.508,3.089-7.026,4.589-10.562c6.48-13.89,13.476-27.513,21.729-40.297c8.302-12.701,17.101-25.057,26.933-36.409
					c2.338-2.952,5.038-5.54,7.503-8.356l3.732-4.176l3.986-3.931c2.66-2.577,5.184-5.321,7.912-7.839l8.204-7.44
					c22.227-19.376,46.597-35.367,72.175-47.113l4.755-2.299l4.862-1.964c3.235-1.335,6.45-2.665,9.676-3.99
					c6.597-2.153,13.008-4.867,19.674-6.568c13.086-4.21,26.494-6.777,39.785-9.048c6.694-0.765,13.301-1.988,20.014-2.275
					c3.333-0.209,6.645-0.648,9.988-0.765c3.352-0.073,6.675-0.146,10.017-0.229c1.666-0.039,3.303-0.156,4.96-0.146l4.969,0.171
					c3.313,0.078,6.606,0.151,9.871,0.219c3.255,0.263,6.519,0.536,9.754,0.794c3.225,0.268,6.48,0.371,9.637,0.931
					c3.197,0.424,6.373,0.843,9.54,1.257l2.368,0.292l2.338,0.468l4.668,0.892c3.099,0.638,6.236,1.033,9.296,1.778
					c3.04,0.745,6.09,1.491,9.101,2.227c1.53,0.37,3.04,0.682,4.54,1.072l4.453,1.369c2.962,0.867,5.924,1.734,8.867,2.592
					c2.904,0.955,5.769,2.085,8.653,3.069c2.865,1.067,5.778,1.847,8.546,3.143c22.48,8.965,43.264,20.317,61.963,33.305
					c37.359,26.192,65.754,58.816,85.7,90.625c10.007,15.942,18.133,31.683,24.272,46.816c1.754,3.678,2.972,7.513,4.385,11.162
					c1.384,3.664,2.865,7.196,3.888,10.816c1.159,3.562,2.299,7.04,3.401,10.431c0.926,3.449,1.842,6.816,2.709,10.1
					c7.045,26.251,9.315,47.751,10.193,62.441c0,0.058,0,0.102,0,0.146h15.045c0.01-0.117,0.01-0.2,0.01-0.2
					S1379.222,1275.896,1379.096,1272.071z"/>
				<g>
					<path style="fill:#E9E9E9;" d="M438.023,939.092c0,0,0.472-1.639,1.617-4.804c1.087-3.198,2.811-7.71,5.164-13.43
						c2.558-5.588,5.369-12.584,9.418-20.141c1.988-3.803,3.956-7.946,6.305-12.151c2.407-4.173,4.94-8.561,7.581-13.138
						c5.428-9.064,11.586-18.75,18.573-28.653c7.113-9.8,14.451-20.317,23.118-30.312c4.273-5.042,8.346-10.429,12.984-15.413
						c4.575-5.033,9.252-10.098,14.031-15.138c2.407-2.509,4.726-5.121,7.221-7.569l7.605-7.262
						c5.086-4.85,10.193-9.719,15.298-14.589c10.607-9.299,21.647-18.088,32.277-27.001c11.118-8.302,22.363-16.063,33.062-23.776
						c11.069-7.184,22.065-13.669,32.36-19.966c5.096-3.242,10.28-6.005,15.362-8.55c5.062-2.575,9.949-5.062,14.641-7.452
						c9.398-4.733,17.866-9.315,25.88-12.351c7.903-3.225,14.796-6.036,20.472-8.351c11.366-4.531,17.89-6.975,17.89-6.975
						c1.062-0.397,2.242,0.142,2.641,1.204c0.351,0.936-0.029,1.966-0.853,2.47l-0.112,0.068c0,0-5.963,3.642-16.448,9.759
						c-5.252,3.008-11.625,6.662-18.943,10.855c-7.454,3.9-15.24,9.425-24.029,14.838c-4.365,2.765-8.906,5.644-13.612,8.623
						c-2.358,1.467-4.755,2.957-7.191,4.473c-2.446,1.506-4.755,3.298-7.191,4.969c-9.647,6.78-19.829,13.927-30.358,21.323
						c-10.158,7.886-20.516,16.175-31.264,24.302c-10.153,8.848-20.721,17.552-30.84,26.738c-4.984,4.677-9.969,9.352-14.933,14.012
						l-7.435,6.97c-2.441,2.35-4.702,4.862-7.04,7.271c-4.629,4.884-9.286,9.664-13.925,14.358
						c-4.662,4.672-8.76,9.744-13.072,14.485c-8.643,9.484-16.404,19.133-23.878,28.229c-3.859,4.461-7.006,9.238-10.446,13.583
						c-3.323,4.426-6.753,8.568-9.603,12.838c-5.895,8.414-11.391,16.097-15.868,23.157c-4.687,6.953-8.332,13.252-11.542,18.356
						c-2.938,5.223-5.462,9.265-6.904,12.071c-1.549,2.767-2.314,4.372-2.314,4.372c-0.735,1.535-2.567,2.185-4.107,1.454
						c-1.374-0.66-2.042-2.212-1.627-3.634L438.023,939.092z"/>
				</g>
				<g>
					<path style="fill:#E9E9E9;" d="M1033.92,1000.095c0,0,5.389-1.644,14.831-3.176c9.467-1.564,23.162-2.984,39.688-2.653
						c8.243,0.253,17.228,0.643,26.626,2.027c4.731,0.509,9.515,1.476,14.465,2.237c4.887,1.033,9.915,2,14.918,3.417
						c2.514,0.672,5.052,1.35,7.606,2.032c2.524,0.792,5.067,1.591,7.625,2.395c5.164,1.481,10.182,3.591,15.308,5.529
						c10.085,4.281,20.219,8.96,29.871,14.553l7.177,4.276l6.938,4.626c4.692,2.977,9.033,6.404,13.423,9.676
						c8.735,6.614,16.579,14.038,23.936,21.359c7.294,7.398,13.847,15.003,19.571,22.553c2.986,3.681,5.705,7.389,8.141,11.116
						c2.426,3.724,4.989,7.167,7.036,10.738c4.2,7.074,8.102,13.488,10.913,19.534c2.976,5.944,5.583,11.094,7.293,15.549
						c3.615,8.809,5.53,13.859,5.525,13.859c0.405,1.062-0.132,2.248-1.194,2.653c-0.901,0.339-1.89,0.008-2.416-0.748l-0.063-0.093
						c0,0-3.084-4.429-8.209-12.209c-2.422-3.968-5.939-8.431-9.608-13.727c-3.586-5.352-8.312-10.899-13.038-17.189
						c-2.358-3.155-5.213-6.126-7.932-9.364c-1.365-1.612-2.748-3.252-4.161-4.918c-1.481-1.593-2.991-3.21-4.522-4.85
						c-6.022-6.638-12.882-13.108-19.975-19.719c-7.191-6.524-15.055-12.718-23.191-18.758c-4.141-2.928-8.209-6.019-12.609-8.66
						l-6.494-4.129l-6.719-3.786c-8.833-5.262-18.143-9.669-27.42-13.735c-9.418-3.72-18.65-7.598-27.975-10.263
						c-9.267-2.814-18.339-5.259-27.084-7.07c-8.731-1.885-17.096-3.184-24.853-4.319c-7.776-0.935-14.948-1.715-21.334-2.141
						c-6.378-0.368-11.981-0.68-16.585-0.714c-9.272-0.183-14.436,0.149-14.436,0.149c-1.705,0.11-3.177-1.184-3.284-2.889
						c-0.097-1.459,0.838-2.745,2.178-3.155L1033.92,1000.095z"/>
				</g>
			</g>
			<g>
				
					<path style="fill:#F5F9FD;stroke:#585063;stroke-width:20.4924;stroke-linecap:round;stroke-linejoin:round;stroke-miterlimit:10;" d="
					M912.508,1361.873c-3.956-37.569-38.197-66.173-82.162-72.872c4.852-11.196,6.967-23.249,5.671-35.571
					c-4.96-46.918-57.11-79.878-116.501-73.627c-14.343,1.506-27.8,5.184-39.883,10.529c-21.583-21.174-52.248-34.421-86.285-34.421
					c-4.385,0-8.682,0.229-12.93,0.658c-17.306-72.297-74.65-125.407-142.8-125.407c-81.811,0-148.14,76.564-148.14,171.019
					c0,2.465,0.059,4.906,0.156,7.342c-0.058,0-0.107,0-0.156,0c-65.334,0-118.313,39.6-118.313,88.457
					c0,48.852,52.979,88.457,118.313,88.457c9.248,0,18.271-0.828,26.923-2.338c-0.682,4.2-1.062,8.458-1.062,12.789
					c0,59.766,65.977,108.214,147.36,108.214c52.093,0,97.822-19.854,124.033-49.793c20.901,12.779,48.243,19.142,77.339,16.078
					c28.258-2.967,53.038-14.29,70.742-30.377c21.135,13.491,49.198,20.287,79.074,17.14
					C873.308,1451.894,917.458,1408.796,912.508,1361.873z"/>
				<path style="fill:#E6F3FC;" d="M790.785,1404.552c-29.096-16.707-63.386-28.555-93.788-7.172
					c-18.406,12.95-33.364,33.198-58.621,29.939c-22.187-2.86-37.943-19.026-58.591-25.793c-12.297-4.029-26.67-4.785-37.914,2.665
					c-8,5.286-13.954,12.643-20.726,19.298c-25.315,24.828-67.41,33.013-101.553,25.812c-15.863-3.337-32.165-10.29-42.562-23.264
					c-11.82-14.738-13.993-31.474-14.051-49.832c-0.049-11.951,0.477-27.259-9.345-35.966c-13.223-11.742-28.833-9.559-44.56-5.33
					c-21.408,5.764-42.182,4.604-60.55-8.911c-12.512-9.218-21.964-26.47-16.175-42.105c6.207-16.706,22.226-27.352,38.324-33.413
					c26.368-9.91,77.719-11.771,74.884-50.801c-0.789-10.87-5.184-20.979-5.954-31.814c-0.614-8.492-0.048-17.174,2.387-25.374
					c5.048-17.125,15.503-32.482,29.398-43.722c27.303-22.139,67.781-32.799,100.199-14.986
					c34.767,19.113,40.75,61.276,69.466,85.977c18.27,15.727,40.234,4.17,51.995-13.851c-4.258,0.015-8.487,0.244-12.628,0.658
					c-17.306-72.297-74.65-125.407-142.8-125.407c-81.811,0-148.14,76.564-148.14,171.019c0,2.465,0.059,4.906,0.156,7.342h-0.156
					c-65.334,0-118.313,39.6-118.313,88.457c0,48.852,52.979,88.457,118.313,88.457c9.248,0,18.271-0.828,26.923-2.338
					c-0.682,4.2-1.062,8.458-1.062,12.789c0,59.766,65.977,108.214,147.36,108.214c52.093,0,97.822-19.854,124.033-49.793
					c20.901,12.779,48.243,19.142,77.339,16.078c28.258-2.967,53.038-14.29,70.742-30.377c21.135,13.491,49.198,20.287,79.074,17.14
					c19.235-2.026,36.843-7.927,51.732-16.56C838.647,1432.834,815.339,1418.647,790.785,1404.552z"/>
			</g>
			<g>
				
					<path style="fill:#F5F9FD;stroke:#585063;stroke-width:20.4924;stroke-linecap:round;stroke-linejoin:round;stroke-miterlimit:10;" d="
					M1208.817,1361.873c3.966-37.569,38.197-66.173,82.182-72.872c-4.872-11.196-6.977-23.249-5.68-35.571
					c4.94-46.918,57.091-79.878,116.5-73.627c14.344,1.506,27.781,5.184,39.873,10.529c21.583-21.174,52.248-34.421,86.284-34.421
					c4.375,0,8.682,0.229,12.94,0.658c17.296-72.297,74.64-125.407,142.791-125.407c81.831,0,148.159,76.564,148.159,171.019
					c0,2.465-0.078,4.906-0.175,7.342c0.058,0,0.127,0,0.175,0c65.325,0,118.294,39.6,118.294,88.457
					c0,48.852-52.969,88.457-118.294,88.457c-9.276,0-18.27-0.828-26.922-2.338c0.662,4.2,1.042,8.458,1.042,12.789
					c0,59.766-65.987,108.214-147.36,108.214c-52.073,0-97.802-19.854-124.023-49.793c-20.921,12.779-48.253,19.142-77.349,16.078
					c-28.239-2.967-53.037-14.29-70.742-30.377c-21.135,13.491-49.188,20.287-79.083,17.14
					C1248.037,1451.894,1203.887,1408.796,1208.817,1361.873z"/>
				<path style="fill:#E6F3FC;" d="M1330.551,1404.552c29.076-16.707,63.366-28.555,93.768-7.172
					c18.416,12.95,33.373,33.198,58.64,29.939c22.168-2.86,37.944-19.026,58.572-25.793c12.297-4.029,26.68-4.785,37.924,2.665
					c8.01,5.286,13.944,12.643,20.745,19.298c25.315,24.828,67.39,33.013,101.524,25.812c15.883-3.337,32.175-10.29,42.572-23.264
					c11.81-14.738,13.993-31.474,14.061-49.832c0.058-11.951-0.477-27.259,9.335-35.966c13.232-11.742,28.842-9.559,44.55-5.33
					c21.437,5.764,42.192,4.604,60.559-8.911c12.521-9.218,21.964-26.47,16.166-42.105c-6.178-16.706-22.198-27.352-38.324-33.413
					c-26.338-9.91-77.709-11.771-74.864-50.801c0.77-10.87,5.164-20.979,5.953-31.814c0.604-8.492,0.029-17.174-2.387-25.374
					c-5.067-17.125-15.513-32.482-29.408-43.722c-27.293-22.139-67.78-32.799-100.199-14.986
					c-34.777,19.113-40.76,61.276-69.476,85.977c-18.27,15.727-40.214,4.17-51.995-13.851c4.278,0.015,8.487,0.244,12.648,0.658
					c17.296-72.297,74.64-125.407,142.791-125.407c81.831,0,148.159,76.564,148.159,171.019c0,2.465-0.078,4.906-0.175,7.342h0.175
					c65.325,0,118.294,39.6,118.294,88.457c0,48.852-52.969,88.457-118.294,88.457c-9.276,0-18.27-0.828-26.922-2.338
					c0.662,4.2,1.042,8.458,1.042,12.789c0,59.766-65.987,108.214-147.36,108.214c-52.073,0-97.802-19.854-124.023-49.793
					c-20.921,12.779-48.253,19.142-77.349,16.078c-28.239-2.967-53.037-14.29-70.742-30.377
					c-21.135,13.491-49.188,20.287-79.083,17.14c-19.235-2.026-36.843-7.927-51.731-16.56
					C1282.687,1432.834,1305.995,1418.647,1330.551,1404.552z"/>
			</g>
			<g>
				
					<line style="fill:none;stroke:#585063;stroke-width:20.4924;stroke-linecap:round;stroke-linejoin:round;stroke-miterlimit:10;" x1="543.966" y1="1800.466" x2="543.966" y2="1942.764"/>
				
					<line style="fill:none;stroke:#585063;stroke-width:20.4924;stroke-linecap:round;stroke-linejoin:round;stroke-miterlimit:10;" x1="515.455" y1="1546.475" x2="515.455" y2="1651.157"/>
				
					<line style="fill:none;stroke:#585063;stroke-width:20.4924;stroke-linecap:round;stroke-linejoin:round;stroke-miterlimit:10;" x1="596.701" y1="1679.02" x2="596.701" y2="1783.701"/>
				
					<line style="fill:none;stroke:#585063;stroke-width:20.4924;stroke-linecap:round;stroke-linejoin:round;stroke-miterlimit:10;" x1="688.169" y1="1533.458" x2="688.169" y2="1638.144"/>
				
					<line style="fill:none;stroke:#585063;stroke-width:20.4924;stroke-linecap:round;stroke-linejoin:round;stroke-miterlimit:10;" x1="693.07" y1="1766.936" x2="693.07" y2="1871.617"/>
				
					<line style="fill:none;stroke:#585063;stroke-width:20.4924;stroke-linecap:round;stroke-linejoin:round;stroke-miterlimit:10;" x1="390.983" y1="1802.512" x2="390.983" y2="1907.193"/>
				
					<line style="fill:none;stroke:#585063;stroke-width:20.4924;stroke-linecap:round;stroke-linejoin:round;stroke-miterlimit:10;" x1="390.983" y1="1585.803" x2="390.983" y2="1690.484"/>
				
					<line style="fill:none;stroke:#585063;stroke-width:20.4924;stroke-linecap:round;stroke-linejoin:round;stroke-miterlimit:10;" x1="454.807" y1="1731.36" x2="454.807" y2="1802.512"/>
			</g>
			<g>
				
					<line style="fill:none;stroke:#585063;stroke-width:20.4924;stroke-linecap:round;stroke-linejoin:round;stroke-miterlimit:10;" x1="1577.35" y1="1800.466" x2="1577.35" y2="1942.764"/>
				
					<line style="fill:none;stroke:#585063;stroke-width:20.4924;stroke-linecap:round;stroke-linejoin:round;stroke-miterlimit:10;" x1="1605.89" y1="1546.475" x2="1605.89" y2="1651.157"/>
				
					<line style="fill:none;stroke:#585063;stroke-width:20.4924;stroke-linecap:round;stroke-linejoin:round;stroke-miterlimit:10;" x1="1524.625" y1="1679.02" x2="1524.625" y2="1783.701"/>
				
					<line style="fill:none;stroke:#585063;stroke-width:20.4924;stroke-linecap:round;stroke-linejoin:round;stroke-miterlimit:10;" x1="1433.156" y1="1533.458" x2="1433.156" y2="1638.144"/>
				
					<line style="fill:none;stroke:#585063;stroke-width:20.4924;stroke-linecap:round;stroke-linejoin:round;stroke-miterlimit:10;" x1="1428.255" y1="1766.936" x2="1428.255" y2="1871.617"/>
				
					<line style="fill:none;stroke:#585063;stroke-width:20.4924;stroke-linecap:round;stroke-linejoin:round;stroke-miterlimit:10;" x1="1730.342" y1="1802.512" x2="1730.342" y2="1907.193"/>
				
					<line style="fill:none;stroke:#585063;stroke-width:20.4924;stroke-linecap:round;stroke-linejoin:round;stroke-miterlimit:10;" x1="1730.342" y1="1585.803" x2="1730.342" y2="1690.484"/>
				
					<line style="fill:none;stroke:#585063;stroke-width:20.4924;stroke-linecap:round;stroke-linejoin:round;stroke-miterlimit:10;" x1="1666.538" y1="1731.36" x2="1666.538" y2="1802.512"/>
			</g>
		</g>
		<g>
			
				<path style="fill:none;stroke:#585063;stroke-width:14.967;stroke-linecap:round;stroke-linejoin:round;stroke-miterlimit:10;" d="
				M1551.372,1340.957c0,0,32.087,33.51,69.934,0"/>
			<g>
				<g>
					<path style="fill:#F7BFC4;" d="M1687.614,1312.597c-0.097,2.958-2.592,5.281-5.544,5.179s-5.291-2.592-5.175-5.554
						c0.098-2.962,2.582-5.281,5.545-5.179C1685.412,1307.145,1687.722,1309.63,1687.614,1312.597z"/>
					<path style="fill:#F7BFC4;" d="M1718.308,1307.491c-0.107,2.967-2.592,5.286-5.554,5.184c-2.972-0.102-5.281-2.592-5.184-5.554
						c0.097-2.963,2.592-5.286,5.554-5.179C1716.087,1302.044,1718.406,1304.529,1718.308,1307.491z"/>
					<path style="fill:#F7BFC4;" d="M1730.605,1320.246c-0.098,2.957-2.592,5.281-5.545,5.179c-2.972-0.107-5.281-2.592-5.184-5.554
						c0.097-2.962,2.592-5.281,5.544-5.178C1728.384,1314.794,1730.713,1317.279,1730.605,1320.246z"/>
					<path style="fill:#F7BFC4;" d="M1737.65,1335.69c-0.088,2.963-2.582,5.281-5.544,5.179c-2.972-0.102-5.281-2.587-5.184-5.549
						c0.097-2.967,2.592-5.281,5.554-5.184C1735.438,1330.239,1737.758,1332.728,1737.65,1335.69z"/>
					<path style="fill:#F7BFC4;" d="M1706.937,1351.018c-0.107,2.967-2.592,5.286-5.564,5.189c-2.963-0.107-5.271-2.592-5.184-5.559
						c0.117-2.962,2.592-5.276,5.564-5.179C1704.715,1345.571,1707.044,1348.061,1706.937,1351.018z"/>
					<path style="fill:#F7BFC4;" d="M1688.033,1349.98c-0.107,2.958-2.592,5.281-5.554,5.174c-2.963-0.097-5.292-2.582-5.184-5.544
						c0.107-2.967,2.592-5.286,5.554-5.184C1685.812,1344.528,1688.131,1347.013,1688.033,1349.98z"/>
					<path style="fill:#F7BFC4;" d="M1700.126,1321.498c-0.097,2.962-2.582,5.286-5.544,5.179c-2.963-0.102-5.281-2.587-5.184-5.549
						c0.107-2.963,2.592-5.286,5.554-5.179C1697.914,1316.051,1700.223,1318.536,1700.126,1321.498z"/>
					<path style="fill:#F7BFC4;" d="M1702.133,1306.799c-0.097,2.962-2.592,5.286-5.544,5.179c-2.962-0.102-5.291-2.587-5.183-5.549
						c0.107-2.962,2.592-5.281,5.564-5.179C1699.911,1301.348,1702.24,1303.837,1702.133,1306.799z"/>
					<path style="fill:#F7BFC4;" d="M1713.602,1325.844c-0.098,2.962-2.592,5.281-5.554,5.179c-2.962-0.102-5.281-2.587-5.184-5.549
						c0.117-2.962,2.592-5.281,5.554-5.184C1711.38,1320.397,1713.719,1322.877,1713.602,1325.844z"/>
					<path style="fill:#F7BFC4;" d="M1700.769,1336.066c-0.107,2.962-2.592,5.286-5.554,5.184c-2.962-0.102-5.281-2.592-5.174-5.554
						c0.097-2.962,2.582-5.281,5.544-5.174C1698.547,1330.619,1700.866,1333.104,1700.769,1336.066z"/>
					<path style="fill:#F7BFC4;" d="M1726.308,1351.671c-0.107,2.967-2.592,5.286-5.554,5.183c-2.952-0.102-5.281-2.592-5.174-5.549
						c0.107-2.967,2.592-5.281,5.544-5.184C1724.086,1346.219,1726.415,1348.714,1726.308,1351.671z"/>
					<path style="fill:#F7BFC4;" d="M1722.878,1337.103c-0.097,2.957-2.582,5.286-5.544,5.179c-2.962-0.097-5.281-2.587-5.184-5.549
						c0.107-2.962,2.592-5.281,5.554-5.179C1720.666,1331.656,1722.985,1334.141,1722.878,1337.103z"/>
					<path style="fill:#F7BFC4;" d="M1685.081,1331.934c-0.117,2.967-2.592,5.286-5.554,5.184c-2.963-0.107-5.281-2.587-5.184-5.554
						c0.098-2.962,2.592-5.281,5.554-5.174C1682.859,1326.487,1685.178,1328.972,1685.081,1331.934z"/>
				</g>
				<g>
					<path style="fill:#F7BFC4;" d="M1485.073,1312.597c0.107,2.958,2.592,5.281,5.545,5.179c2.962-0.102,5.281-2.592,5.184-5.554
						c-0.097-2.962-2.592-5.281-5.544-5.179C1487.285,1307.145,1484.975,1309.63,1485.073,1312.597z"/>
					<path style="fill:#F7BFC4;" d="M1454.388,1307.491c0.098,2.967,2.592,5.286,5.554,5.184c2.962-0.102,5.281-2.592,5.184-5.554
						c-0.117-2.963-2.592-5.286-5.554-5.179C1456.61,1302.044,1454.291,1304.529,1454.388,1307.491z"/>
					<path style="fill:#F7BFC4;" d="M1442.082,1320.246c0.107,2.957,2.592,5.281,5.554,5.179c2.963-0.107,5.281-2.592,5.184-5.554
						c-0.107-2.962-2.592-5.281-5.554-5.178C1444.304,1314.794,1441.984,1317.279,1442.082,1320.246z"/>
					<path style="fill:#F7BFC4;" d="M1435.037,1335.69c0.098,2.963,2.592,5.281,5.554,5.179c2.962-0.102,5.281-2.587,5.184-5.549
						c-0.117-2.967-2.592-5.281-5.554-5.184C1437.258,1330.239,1434.939,1332.728,1435.037,1335.69z"/>
					<path style="fill:#F7BFC4;" d="M1465.75,1351.018c0.117,2.967,2.592,5.286,5.554,5.189c2.962-0.107,5.291-2.592,5.184-5.559
						c-0.107-2.962-2.592-5.276-5.554-5.179C1467.972,1345.571,1465.653,1348.061,1465.75,1351.018z"/>
					<path style="fill:#F7BFC4;" d="M1484.664,1349.98c0.107,2.958,2.592,5.281,5.544,5.174c2.972-0.097,5.291-2.582,5.184-5.544
						c-0.097-2.967-2.592-5.286-5.554-5.184C1486.885,1344.528,1484.556,1347.013,1484.664,1349.98z"/>
					<path style="fill:#F7BFC4;" d="M1472.571,1321.498c0.097,2.962,2.582,5.286,5.544,5.179c2.962-0.102,5.281-2.587,5.184-5.549
						c-0.107-2.963-2.592-5.286-5.554-5.179C1474.783,1316.051,1472.454,1318.536,1472.571,1321.498z"/>
					<path style="fill:#F7BFC4;" d="M1470.554,1306.799c0.107,2.962,2.592,5.286,5.544,5.179c2.963-0.102,5.281-2.587,5.184-5.549
						c-0.098-2.962-2.592-5.281-5.554-5.179C1472.776,1301.348,1470.447,1303.837,1470.554,1306.799z"/>
					<path style="fill:#F7BFC4;" d="M1459.095,1325.844c0.097,2.962,2.572,5.281,5.535,5.179c2.962-0.102,5.301-2.587,5.184-5.549
						c-0.097-2.962-2.592-5.281-5.554-5.184C1461.297,1320.397,1458.978,1322.877,1459.095,1325.844z"/>
					<path style="fill:#F7BFC4;" d="M1471.928,1336.066c0.097,2.962,2.592,5.286,5.544,5.184c2.972-0.102,5.281-2.592,5.184-5.554
						c-0.098-2.962-2.592-5.281-5.545-5.174C1474.15,1330.619,1471.821,1333.104,1471.928,1336.066z"/>
					<path style="fill:#F7BFC4;" d="M1446.369,1351.671c0.117,2.967,2.592,5.286,5.564,5.183c2.962-0.102,5.291-2.592,5.174-5.549
						c-0.098-2.967-2.582-5.281-5.554-5.184C1448.591,1346.219,1446.281,1348.714,1446.369,1351.671z"/>
					<path style="fill:#F7BFC4;" d="M1449.809,1337.103c0.097,2.957,2.592,5.286,5.554,5.179c2.952-0.097,5.281-2.587,5.174-5.549
						c-0.098-2.962-2.592-5.281-5.545-5.179C1452.031,1331.656,1449.702,1334.141,1449.809,1337.103z"/>
					<path style="fill:#F7BFC4;" d="M1487.616,1331.934c0.097,2.967,2.592,5.286,5.554,5.184c2.962-0.107,5.281-2.587,5.174-5.554
						c-0.088-2.962-2.582-5.281-5.544-5.174C1489.838,1326.487,1487.519,1328.972,1487.616,1331.934z"/>
				</g>
			</g>
			<g>
				<g>
					<path style="fill:#585063;" d="M1688.101,1270.687c0,8.263-6.704,14.967-14.967,14.967c-8.282,0-14.986-6.704-14.986-14.967
						c0-8.268,6.704-14.972,14.986-14.972C1681.397,1255.716,1688.101,1262.42,1688.101,1270.687z"/>
					<path style="fill:#FFFFFF;" d="M1684.184,1264.047c0,4.604-3.722,8.336-8.331,8.336c-4.609,0-8.341-3.732-8.341-8.336
						c0-4.599,3.732-8.331,8.341-8.331C1680.462,1255.716,1684.184,1259.448,1684.184,1264.047z"/>
				</g>
				<g>
					<path style="fill:#585063;" d="M1484.595,1270.687c0,8.263,6.704,14.967,14.967,14.967c8.283,0,14.967-6.704,14.967-14.967
						c0-8.268-6.684-14.972-14.967-14.972C1491.3,1255.716,1484.595,1262.42,1484.595,1270.687z"/>
					<path style="fill:#FFFFFF;" d="M1488.503,1264.047c0,4.604,3.732,8.336,8.332,8.336c4.599,0,8.331-3.732,8.331-8.336
						c0-4.599-3.732-8.331-8.331-8.331C1492.235,1255.716,1488.503,1259.448,1488.503,1264.047z"/>
				</g>
			</g>
		</g>
		<g>
			<g>
				<g>
					<path style="fill:#F7BFC4;" d="M614.133,1303.598c-0.088,2.69-2.348,4.799-5.038,4.707c-2.689-0.097-4.804-2.353-4.707-5.043
						c0.098-2.694,2.348-4.799,5.038-4.711C612.116,1298.644,614.231,1300.899,614.133,1303.598z"/>
					<path style="fill:#F7BFC4;" d="M642.021,1298.96c-0.097,2.694-2.358,4.799-5.047,4.707c-2.699-0.093-4.794-2.348-4.716-5.042
						c0.107-2.69,2.368-4.804,5.047-4.712C640.004,1294.005,642.109,1296.271,642.021,1298.96z"/>
					<path style="fill:#F7BFC4;" d="M653.207,1310.546c-0.107,2.694-2.358,4.804-5.047,4.711c-2.699-0.092-4.814-2.353-4.716-5.047
						c0.097-2.689,2.358-4.799,5.047-4.706C651.18,1305.596,653.295,1307.852,653.207,1310.546z"/>
					<path style="fill:#F7BFC4;" d="M659.609,1324.582c-0.097,2.694-2.358,4.799-5.047,4.702c-2.69-0.088-4.814-2.348-4.716-5.038
						c0.097-2.694,2.368-4.799,5.057-4.707C657.582,1319.627,659.697,1321.893,659.609,1324.582z"/>
					<path style="fill:#F7BFC4;" d="M631.692,1338.512c-0.097,2.699-2.348,4.804-5.047,4.711c-2.699-0.092-4.804-2.353-4.707-5.047
						c0.088-2.69,2.348-4.799,5.038-4.707C629.665,1333.567,631.78,1335.822,631.692,1338.512z"/>
					<path style="fill:#F7BFC4;" d="M614.513,1337.566c-0.107,2.69-2.368,4.799-5.047,4.707c-2.699-0.088-4.804-2.353-4.706-5.043
						c0.087-2.694,2.348-4.804,5.037-4.706C612.496,1332.616,614.601,1334.872,614.513,1337.566z"/>
					<path style="fill:#F7BFC4;" d="M625.505,1311.686c-0.098,2.695-2.358,4.799-5.038,4.712c-2.699-0.093-4.804-2.353-4.716-5.048
						c0.088-2.689,2.348-4.799,5.057-4.706C623.497,1306.736,625.592,1308.997,625.505,1311.686z"/>
					<path style="fill:#F7BFC4;" d="M627.327,1298.332c-0.088,2.694-2.348,4.799-5.038,4.701c-2.699-0.087-4.804-2.348-4.706-5.037
						c0.087-2.69,2.348-4.799,5.047-4.707C625.32,1293.382,627.424,1295.642,627.327,1298.332z"/>
					<path style="fill:#F7BFC4;" d="M637.743,1315.637c-0.088,2.69-2.339,4.794-5.028,4.707c-2.699-0.093-4.814-2.353-4.726-5.043
						c0.097-2.694,2.358-4.804,5.047-4.716C635.736,1310.687,637.841,1312.938,637.743,1315.637z"/>
					<path style="fill:#F7BFC4;" d="M626.08,1324.923c-0.088,2.69-2.348,4.804-5.038,4.712c-2.689-0.093-4.804-2.353-4.697-5.043
						c0.078-2.699,2.339-4.804,5.028-4.706C624.063,1319.973,626.177,1322.234,626.08,1324.923z"/>
					<path style="fill:#F7BFC4;" d="M649.3,1339.101c-0.097,2.695-2.358,4.804-5.047,4.712c-2.699-0.088-4.794-2.353-4.707-5.043
						c0.088-2.694,2.348-4.799,5.047-4.706C647.283,1334.156,649.388,1336.416,649.3,1339.101z"/>
					<path style="fill:#F7BFC4;" d="M646.182,1325.869c-0.078,2.69-2.358,4.799-5.038,4.702c-2.699-0.088-4.813-2.348-4.716-5.038
						c0.097-2.699,2.358-4.804,5.047-4.711C644.165,1320.913,646.279,1323.179,646.182,1325.869z"/>
					<path style="fill:#F7BFC4;" d="M611.814,1321.172c-0.088,2.689-2.348,4.799-5.037,4.706c-2.68-0.087-4.794-2.348-4.697-5.042
						c0.088-2.694,2.349-4.799,5.038-4.707C609.807,1316.222,611.912,1318.477,611.814,1321.172z"/>
				</g>
				<g>
					<path style="fill:#F7BFC4;" d="M430.086,1303.598c0.098,2.69,2.358,4.799,5.038,4.707c2.699-0.097,4.813-2.353,4.716-5.043
						c-0.088-2.694-2.348-4.799-5.037-4.711C432.103,1298.644,429.999,1300.899,430.086,1303.598z"/>
					<path style="fill:#F7BFC4;" d="M402.208,1298.96c0.098,2.694,2.358,4.799,5.048,4.707c2.689-0.093,4.794-2.348,4.706-5.042
						c-0.107-2.69-2.358-4.804-5.047-4.712C404.225,1294.005,402.111,1296.271,402.208,1298.96z"/>
					<path style="fill:#F7BFC4;" d="M391.022,1310.546c0.107,2.694,2.368,4.804,5.047,4.711c2.699-0.092,4.804-2.353,4.716-5.047
						c-0.097-2.689-2.358-4.799-5.047-4.706C393.039,1305.596,390.934,1307.852,391.022,1310.546z"/>
					<path style="fill:#F7BFC4;" d="M384.63,1324.582c0.088,2.694,2.339,4.799,5.047,4.702c2.69-0.088,4.794-2.348,4.697-5.038
						c-0.087-2.694-2.358-4.799-5.037-4.707C386.647,1319.627,384.533,1321.893,384.63,1324.582z"/>
					<path style="fill:#F7BFC4;" d="M412.537,1338.512c0.087,2.699,2.348,4.804,5.047,4.711c2.689-0.092,4.794-2.353,4.706-5.047
						c-0.097-2.69-2.348-4.799-5.047-4.707C414.564,1333.567,412.449,1335.822,412.537,1338.512z"/>
					<path style="fill:#F7BFC4;" d="M429.716,1337.566c0.098,2.69,2.358,4.799,5.047,4.707c2.69-0.088,4.804-2.353,4.717-5.043
						c-0.107-2.694-2.368-4.804-5.057-4.706C431.733,1332.616,429.628,1334.872,429.716,1337.566z"/>
					<path style="fill:#F7BFC4;" d="M418.725,1311.686c0.097,2.695,2.348,4.799,5.038,4.712c2.699-0.093,4.794-2.353,4.716-5.048
						c-0.088-2.689-2.358-4.799-5.057-4.706C420.742,1306.736,418.637,1308.997,418.725,1311.686z"/>
					<path style="fill:#F7BFC4;" d="M416.893,1298.332c0.097,2.694,2.358,4.799,5.038,4.701c2.699-0.087,4.804-2.348,4.716-5.037
						c-0.088-2.69-2.348-4.799-5.057-4.707C418.91,1293.382,416.805,1295.642,416.893,1298.332z"/>
					<path style="fill:#F7BFC4;" d="M406.486,1315.637c0.078,2.69,2.338,4.794,5.028,4.707c2.699-0.093,4.804-2.353,4.716-5.043
						c-0.088-2.694-2.358-4.804-5.038-4.716C408.493,1310.687,406.388,1312.938,406.486,1315.637z"/>
					<path style="fill:#F7BFC4;" d="M418.14,1324.923c0.088,2.69,2.358,4.804,5.047,4.712c2.69-0.093,4.804-2.353,4.697-5.043
						c-0.087-2.699-2.348-4.804-5.037-4.706C420.167,1319.973,418.052,1322.234,418.14,1324.923z"/>
					<path style="fill:#F7BFC4;" d="M394.93,1339.101c0.087,2.695,2.348,4.804,5.047,4.712c2.689-0.088,4.794-2.353,4.697-5.043
						c-0.078-2.694-2.329-4.799-5.038-4.706C396.947,1334.156,394.842,1336.416,394.93,1339.101z"/>
					<path style="fill:#F7BFC4;" d="M398.048,1325.869c0.087,2.69,2.358,4.799,5.037,4.702c2.69-0.088,4.814-2.348,4.707-5.038
						c-0.097-2.699-2.348-4.804-5.038-4.711C400.065,1320.913,397.95,1323.179,398.048,1325.869z"/>
					<path style="fill:#F7BFC4;" d="M432.405,1321.172c0.088,2.689,2.358,4.799,5.047,4.706c2.68-0.087,4.804-2.348,4.707-5.042
						c-0.098-2.694-2.368-4.799-5.048-4.707C434.412,1316.222,432.308,1318.477,432.405,1321.172z"/>
				</g>
			</g>
			
				<path style="fill:none;stroke:#585063;stroke-width:14.967;stroke-linecap:round;stroke-linejoin:round;stroke-miterlimit:10;" d="
				M486.573,1330.375c0,0,32.614,34.061,71.084,0"/>
			<g>
				
					<path style="fill:none;stroke:#585063;stroke-width:14.967;stroke-linecap:round;stroke-linejoin:round;stroke-miterlimit:10;" d="
					M635.989,1264.529c0,0-18.884-21.812-38.372,0"/>
				
					<path style="fill:none;stroke:#585063;stroke-width:14.967;stroke-linecap:round;stroke-linejoin:round;stroke-miterlimit:10;" d="
					M446.612,1264.529c0,0-18.903-21.812-38.382,0"/>
			</g>
		</g>
	</g>
	<polygon style="fill:#FFFFFF;" points="1589.725,752.207 1639.245,745.859 1589.618,739.336 1585.028,669.529 1581.004,739.511 
		1533.433,745.859 1581.111,752.388 1586.334,820.806 	"/>
	<polygon style="fill:#FFFFFF;" points="649.573,947.29 699.092,940.941 649.456,934.413 644.876,864.606 640.842,934.593 
		593.281,940.941 640.959,947.465 646.182,1015.888 	"/>
	<polygon style="fill:#FFFFFF;" points="844.679,559.425 894.199,553.077 844.563,546.548 839.983,476.741 835.948,546.728 
		788.387,553.077 836.065,559.6 841.288,628.023 	"/>
	<polygon style="fill:#FFFFFF;" points="980.571,1038.202 1030.091,1031.854 980.464,1025.331 975.874,955.524 971.85,1025.506 
		924.279,1031.854 971.957,1038.383 977.18,1106.801 	"/>
	<polygon style="fill:#FFFFFF;" points="1382.672,932.186 1432.191,925.838 1382.555,919.315 1377.975,849.508 1373.941,919.49 
		1326.38,925.838 1374.058,932.367 1379.281,1000.785 	"/>
	<polygon style="fill:#FFFFFF;" points="985.628,748.539 1009.326,745.499 985.579,742.375 983.387,708.978 981.457,742.463 
		958.705,745.499 981.516,748.622 984.01,781.357 	"/>
	<polygon style="fill:#FFFFFF;" points="629.607,748.539 653.295,745.499 629.558,742.375 627.356,708.978 625.427,742.463 
		602.674,745.499 625.485,748.622 627.98,781.357 	"/>
	<polygon style="fill:#FFFFFF;" points="371.241,978.632 394.93,975.591 371.193,972.473 368.99,939.076 367.061,972.556 
		344.309,975.591 367.119,978.714 369.614,1011.45 	"/>
	<polygon style="fill:#FFFFFF;" points="1763.043,978.632 1786.741,975.591 1762.995,972.473 1760.802,939.076 1758.873,972.556 
		1736.12,975.591 1758.932,978.714 1761.426,1011.45 	"/>
	<polygon style="fill:#FFFFFF;" points="1255.764,631.39 1279.452,628.35 1255.716,625.232 1253.514,591.834 1251.584,625.315 
		1228.832,628.35 1251.643,631.473 1254.137,664.208 	"/>
</g>
</svg>
