<svg id="Layer_1" viewBox="0 0 24 24" xmlns="http://www.w3.org/2000/svg" data-name="Layer 1"><path d="m23 21c-.552 0-1-.448-1-1v-5c-.551-13.27-19.454-13.259-20 0v5c-.006 1.308-1.994 1.307-2 0v-5c.661-15.924 23.345-15.911 24 0v5c0 .552-.448 1-1 1z" opacity=".5"/><path d="m20 20v-5c-.403-10.601-15.6-10.593-16 0v5c.006 1.308 1.994 1.307 2 0v-5c.253-7.932 11.75-7.926 12 0v5c0 .552.448 1 1 1s1-.448 1-1z"/><path d="m16 20v-5c-.169-5.288-7.833-5.284-8 0v5c.006 1.308 1.994 1.307 2 0v-5c.047-2.629 3.954-2.627 4 0v5c0 .552.448 1 1 1s1-.448 1-1z" opacity=".5"/></svg>