<svg version="1.1" id="svg207" xml:space="preserve" width="300" height="300" viewBox="0 0 32 32" xmlns="http://www.w3.org/2000/svg" xmlns:svg="http://www.w3.org/2000/svg" xmlns:xlink="http://www.w3.org/1999/xlink" xmlns:svgjs="http://svgjs.dev/svgjs"><g width="100%" height="100%" transform="matrix(1,0,0,1,0,0)"><defs id="defs211"><clipPath clipPathUnits="userSpaceOnUse" id="clipPath221"><path d="M 0,24 H 24 V 0 H 0 Z" id="path219" fill="#ffffff" fill-opacity="1" data-original-color="#000000ff" stroke="none" stroke-opacity="1"/></clipPath></defs><g id="g213" transform="matrix(1.3333333,0,0,-1.3333333,0,32)"><g id="g215"><g id="g217" clip-path="url(#clipPath221)"><g id="g223" transform="translate(16.9497,20.9438)"><path d="m 0,0 c -1.367,1.371 -3.158,2.056 -4.95,2.056 -1.791,0 -3.583,-0.685 -4.949,-2.056 -2.734,-2.741 -2.734,-7.186 0,-9.927 l 3.566,-3.454 c 0.776,-0.751 2.007,-0.75 2.782,0.003 L 0,-9.927 C 2.734,-7.186 2.734,-2.741 0,0 Z" style="stroke-linecap: round; stroke-linejoin: round; stroke-miterlimit: 10; stroke-dasharray: none;" id="path225" fill="none" fill-opacity="1" stroke="#ffffff" stroke-opacity="1" data-original-stroke-color="#000000ff" stroke-width="2" data-original-stroke-width="2"/></g><g id="g227" transform="translate(9,16.001)"><path d="M 0,0 C 0,1.657 1.343,3 3,3 4.657,3 6,1.657 6,0 6,-1.657 4.657,-3 3,-3 1.343,-3 0,-1.657 0,0 Z" style="stroke-linecap: round; stroke-linejoin: round; stroke-miterlimit: 10; stroke-dasharray: none;" id="path229" fill="none" fill-opacity="1" stroke="#ffffff" stroke-opacity="1" data-original-stroke-color="#000000ff" stroke-width="2" data-original-stroke-width="2"/></g><g id="g231" transform="translate(5.1753,14)"><path d="m 0,0 c -2.182,0.099 -4.175,-1.635 -4.175,-4 v -4.075 c 0,-1.785 1.184,-3.355 2.901,-3.846 l 2.87,-0.897 c 0.734,-0.229 1.518,-0.242 2.259,-0.037 l 5.802,1.716 c 0.706,0.191 1.452,0.185 2.156,-0.018 l 2.302,-0.779 c 1.889,-0.46 3.71,0.971 3.71,2.915 v 5.149 c 0,1.691 -1.064,3.2 -2.657,3.768 l -1.343,0.447" style="stroke-linecap: round; stroke-linejoin: round; stroke-miterlimit: 10; stroke-dasharray: none;" id="path233" fill="none" fill-opacity="1" stroke="#ffffff" stroke-opacity="1" data-original-stroke-color="#000000ff" stroke-width="2" data-original-stroke-width="2"/></g></g></g></g></g></svg>