<svg xmlns="http://www.w3.org/2000/svg" xmlns:xlink="http://www.w3.org/1999/xlink" width="500" zoomAndPan="magnify" viewBox="0 0 375 112.499997" height="150" preserveAspectRatio="xMidYMid meet" version="1.0"><defs><g/></defs><g fill="#ffffff" fill-opacity="1"><g transform="translate(33.739055, 69.441367)"><g><path d="M 10.640625 0 L 1.671875 -31.90625 L 5.328125 -31.90625 L 12.90625 -4.375 L 20.84375 -30.046875 L 23.734375 -30.046875 L 31.671875 -4.375 L 39.21875 -31.90625 L 42.890625 -31.90625 L 33.90625 0 L 29.984375 0 L 22.34375 -24.296875 L 14.5625 0 Z M 10.640625 0 "/></g></g></g><g fill="#ffffff" fill-opacity="1"><g transform="translate(78.270515, 69.441367)"><g><path d="M 12.21875 0.3125 C 10.5 0.3125 9.003906 0.0078125 7.734375 -0.59375 C 6.460938 -1.207031 5.40625 -2.046875 4.5625 -3.109375 C 3.71875 -4.179688 3.085938 -5.40625 2.671875 -6.78125 C 2.253906 -8.15625 2.046875 -9.613281 2.046875 -11.15625 C 2.046875 -12.675781 2.25 -14.132812 2.65625 -15.53125 C 3.0625 -16.925781 3.671875 -18.171875 4.484375 -19.265625 C 5.304688 -20.367188 6.328125 -21.242188 7.546875 -21.890625 C 8.773438 -22.546875 10.210938 -22.875 11.859375 -22.875 C 13.316406 -22.875 14.582031 -22.660156 15.65625 -22.234375 C 16.726562 -21.816406 17.632812 -21.238281 18.375 -20.5 C 19.113281 -19.757812 19.707031 -18.921875 20.15625 -17.984375 C 20.613281 -17.046875 20.9375 -16.050781 21.125 -15 C 21.320312 -13.957031 21.421875 -12.914062 21.421875 -11.875 C 21.421875 -11.59375 21.410156 -11.285156 21.390625 -10.953125 C 21.367188 -10.617188 21.34375 -10.347656 21.3125 -10.140625 L 5.59375 -10.140625 C 5.59375 -9.128906 5.726562 -8.171875 6 -7.265625 C 6.269531 -6.367188 6.679688 -5.570312 7.234375 -4.875 C 7.785156 -4.1875 8.472656 -3.640625 9.296875 -3.234375 C 10.128906 -2.835938 11.09375 -2.640625 12.1875 -2.640625 C 13.476562 -2.640625 14.640625 -2.804688 15.671875 -3.140625 C 16.703125 -3.484375 17.65625 -4.125 18.53125 -5.0625 L 20.84375 -3.203125 C 19.625 -1.972656 18.332031 -1.078125 16.96875 -0.515625 C 15.601562 0.0351562 14.019531 0.3125 12.21875 0.3125 Z M 5.59375 -12.890625 L 18.203125 -12.890625 C 18.179688 -13.796875 18.050781 -14.675781 17.8125 -15.53125 C 17.582031 -16.382812 17.21875 -17.15625 16.71875 -17.84375 C 16.226562 -18.53125 15.582031 -19.078125 14.78125 -19.484375 C 13.988281 -19.890625 13.015625 -20.09375 11.859375 -20.09375 C 10.816406 -20.09375 9.914062 -19.898438 9.15625 -19.515625 C 8.394531 -19.128906 7.757812 -18.601562 7.25 -17.9375 C 6.738281 -17.269531 6.347656 -16.5 6.078125 -15.625 C 5.804688 -14.757812 5.644531 -13.847656 5.59375 -12.890625 Z M 5.59375 -12.890625 "/></g></g></g><g fill="#ffffff" fill-opacity="1"><g transform="translate(101.698622, 69.441367)"><g><path d="M 9.046875 0.453125 C 7.640625 0.453125 6.382812 0.1875 5.28125 -0.34375 C 4.1875 -0.882812 3.320312 -1.65625 2.6875 -2.65625 C 2.050781 -3.65625 1.734375 -4.863281 1.734375 -6.28125 C 1.734375 -8.53125 2.585938 -10.191406 4.296875 -11.265625 C 6.003906 -12.347656 8.460938 -12.890625 11.671875 -12.890625 L 16.8125 -12.890625 C 16.8125 -14.304688 16.632812 -15.554688 16.28125 -16.640625 C 15.925781 -17.722656 15.347656 -18.566406 14.546875 -19.171875 C 13.742188 -19.785156 12.65625 -20.09375 11.28125 -20.09375 C 10.21875 -20.09375 9.28125 -19.914062 8.46875 -19.5625 C 7.664062 -19.207031 6.984375 -18.769531 6.421875 -18.25 C 5.859375 -17.726562 5.394531 -17.207031 5.03125 -16.6875 L 2.578125 -18.609375 C 3.597656 -20.003906 4.800781 -21.085938 6.1875 -21.859375 C 7.582031 -22.640625 9.210938 -23.03125 11.078125 -23.03125 C 12.992188 -23.03125 14.601562 -22.644531 15.90625 -21.875 C 17.21875 -21.101562 18.210938 -20.03125 18.890625 -18.65625 C 19.566406 -17.28125 19.90625 -15.675781 19.90625 -13.84375 L 19.90625 0 L 17.046875 0 L 16.984375 -4.359375 C 16.429688 -3.222656 15.738281 -2.300781 14.90625 -1.59375 C 14.070312 -0.894531 13.15625 -0.378906 12.15625 -0.046875 C 11.15625 0.285156 10.117188 0.453125 9.046875 0.453125 Z M 9.4375 -2.390625 C 10.59375 -2.390625 11.625 -2.628906 12.53125 -3.109375 C 13.445312 -3.597656 14.222656 -4.234375 14.859375 -5.015625 C 15.503906 -5.796875 15.988281 -6.648438 16.3125 -7.578125 C 16.644531 -8.515625 16.8125 -9.4375 16.8125 -10.34375 L 11.984375 -10.34375 C 9.753906 -10.34375 8.066406 -10.023438 6.921875 -9.390625 C 5.785156 -8.753906 5.21875 -7.6875 5.21875 -6.1875 C 5.21875 -5.300781 5.40625 -4.570312 5.78125 -4 C 6.15625 -3.4375 6.660156 -3.023438 7.296875 -2.765625 C 7.941406 -2.515625 8.65625 -2.390625 9.4375 -2.390625 Z M 9.4375 -2.390625 "/></g></g></g><g fill="#ffffff" fill-opacity="1"><g transform="translate(124.833315, 69.441367)"><g><path d="M 10.0625 0.453125 C 8.738281 0.453125 7.675781 0.1875 6.875 -0.34375 C 6.070312 -0.882812 5.492188 -1.640625 5.140625 -2.609375 C 4.785156 -3.578125 4.609375 -4.703125 4.609375 -5.984375 L 4.609375 -19.796875 L 1 -19.796875 L 1 -22.546875 L 4.625 -22.546875 L 4.625 -27.625 L 7.96875 -30.796875 L 7.96875 -22.546875 L 13.6875 -22.546875 L 13.6875 -19.796875 L 7.96875 -19.796875 L 7.96875 -5.953125 C 7.96875 -4.722656 8.238281 -3.8125 8.78125 -3.21875 C 9.320312 -2.625 10.007812 -2.328125 10.84375 -2.328125 C 11.21875 -2.328125 11.597656 -2.378906 11.984375 -2.484375 C 12.378906 -2.585938 12.75 -2.722656 13.09375 -2.890625 L 13.09375 0 C 12.851562 0.101562 12.460938 0.203125 11.921875 0.296875 C 11.378906 0.398438 10.757812 0.453125 10.0625 0.453125 Z M 10.0625 0.453125 "/></g></g></g><g fill="#ffffff" fill-opacity="1"><g transform="translate(140.023215, 69.441367)"><g><path d="M 3.84375 0 L 3.84375 -31.90625 L 7.171875 -31.90625 L 7.171875 -18.84375 C 7.691406 -19.675781 8.335938 -20.398438 9.109375 -21.015625 C 9.878906 -21.628906 10.734375 -22.101562 11.671875 -22.4375 C 12.609375 -22.78125 13.554688 -22.953125 14.515625 -22.953125 C 15.867188 -22.953125 17.023438 -22.707031 17.984375 -22.21875 C 18.941406 -21.726562 19.722656 -21.0625 20.328125 -20.21875 C 20.941406 -19.382812 21.390625 -18.425781 21.671875 -17.34375 C 21.953125 -16.257812 22.09375 -15.113281 22.09375 -13.90625 L 22.09375 0 L 18.6875 0 L 18.6875 -13.359375 C 18.6875 -14.128906 18.617188 -14.894531 18.484375 -15.65625 C 18.347656 -16.414062 18.101562 -17.109375 17.75 -17.734375 C 17.394531 -18.359375 16.910156 -18.859375 16.296875 -19.234375 C 15.679688 -19.609375 14.882812 -19.796875 13.90625 -19.796875 C 12.914062 -19.796875 12.007812 -19.597656 11.1875 -19.203125 C 10.363281 -18.804688 9.65625 -18.253906 9.0625 -17.546875 C 8.46875 -16.835938 8.003906 -16.019531 7.671875 -15.09375 C 7.335938 -14.175781 7.171875 -13.203125 7.171875 -12.171875 L 7.171875 0 Z M 3.84375 0 "/></g></g></g><g fill="#ffffff" fill-opacity="1"><g transform="translate(165.39238, 69.441367)"><g><path d="M 12.21875 0.3125 C 10.5 0.3125 9.003906 0.0078125 7.734375 -0.59375 C 6.460938 -1.207031 5.40625 -2.046875 4.5625 -3.109375 C 3.71875 -4.179688 3.085938 -5.40625 2.671875 -6.78125 C 2.253906 -8.15625 2.046875 -9.613281 2.046875 -11.15625 C 2.046875 -12.675781 2.25 -14.132812 2.65625 -15.53125 C 3.0625 -16.925781 3.671875 -18.171875 4.484375 -19.265625 C 5.304688 -20.367188 6.328125 -21.242188 7.546875 -21.890625 C 8.773438 -22.546875 10.210938 -22.875 11.859375 -22.875 C 13.316406 -22.875 14.582031 -22.660156 15.65625 -22.234375 C 16.726562 -21.816406 17.632812 -21.238281 18.375 -20.5 C 19.113281 -19.757812 19.707031 -18.921875 20.15625 -17.984375 C 20.613281 -17.046875 20.9375 -16.050781 21.125 -15 C 21.320312 -13.957031 21.421875 -12.914062 21.421875 -11.875 C 21.421875 -11.59375 21.410156 -11.285156 21.390625 -10.953125 C 21.367188 -10.617188 21.34375 -10.347656 21.3125 -10.140625 L 5.59375 -10.140625 C 5.59375 -9.128906 5.726562 -8.171875 6 -7.265625 C 6.269531 -6.367188 6.679688 -5.570312 7.234375 -4.875 C 7.785156 -4.1875 8.472656 -3.640625 9.296875 -3.234375 C 10.128906 -2.835938 11.09375 -2.640625 12.1875 -2.640625 C 13.476562 -2.640625 14.640625 -2.804688 15.671875 -3.140625 C 16.703125 -3.484375 17.65625 -4.125 18.53125 -5.0625 L 20.84375 -3.203125 C 19.625 -1.972656 18.332031 -1.078125 16.96875 -0.515625 C 15.601562 0.0351562 14.019531 0.3125 12.21875 0.3125 Z M 5.59375 -12.890625 L 18.203125 -12.890625 C 18.179688 -13.796875 18.050781 -14.675781 17.8125 -15.53125 C 17.582031 -16.382812 17.21875 -17.15625 16.71875 -17.84375 C 16.226562 -18.53125 15.582031 -19.078125 14.78125 -19.484375 C 13.988281 -19.890625 13.015625 -20.09375 11.859375 -20.09375 C 10.816406 -20.09375 9.914062 -19.898438 9.15625 -19.515625 C 8.394531 -19.128906 7.757812 -18.601562 7.25 -17.9375 C 6.738281 -17.269531 6.347656 -16.5 6.078125 -15.625 C 5.804688 -14.757812 5.644531 -13.847656 5.59375 -12.890625 Z M 5.59375 -12.890625 "/></g></g></g><g fill="#ffffff" fill-opacity="1"><g transform="translate(188.820487, 69.441367)"><g><path d="M 3.796875 0 L 3.796875 -22.546875 L 7.15625 -22.546875 L 7.15625 -18.5625 C 7.550781 -19.476562 8.085938 -20.269531 8.765625 -20.9375 C 9.453125 -21.601562 10.226562 -22.117188 11.09375 -22.484375 C 11.957031 -22.847656 12.863281 -23.03125 13.8125 -23.03125 C 14.59375 -23.03125 15.285156 -22.914062 15.890625 -22.6875 C 16.503906 -22.457031 17.023438 -22.179688 17.453125 -21.859375 L 16.03125 -18.9375 C 15.65625 -19.257812 15.234375 -19.484375 14.765625 -19.609375 C 14.296875 -19.734375 13.800781 -19.796875 13.28125 -19.796875 C 11.363281 -19.796875 9.851562 -19.050781 8.75 -17.5625 C 7.65625 -16.082031 7.109375 -13.984375 7.109375 -11.265625 L 7.109375 0 Z M 3.796875 0 "/></g></g></g><g fill="#ffffff" fill-opacity="1"><g transform="translate(206.76398, 69.441367)"><g><path d="M 1.625 0 L 12.1875 -15.953125 L 1.671875 -31.90625 L 5.9375 -31.90625 L 14.25 -18.671875 L 22.59375 -31.90625 L 26.78125 -31.90625 L 16.328125 -15.953125 L 26.8125 0 L 22.640625 0 L 14.203125 -13 L 5.890625 0 Z M 1.625 0 "/></g></g></g><g fill="#ffffff" fill-opacity="1"><g transform="translate(235.202723, 69.441367)"><g><path d="M 3.84375 9.890625 L 3.84375 -22.546875 L 7.21875 -22.546875 L 7.21875 -19.484375 C 7.957031 -20.566406 8.914062 -21.425781 10.09375 -22.0625 C 11.269531 -22.707031 12.609375 -23.03125 14.109375 -23.03125 C 15.628906 -23.03125 16.960938 -22.722656 18.109375 -22.109375 C 19.253906 -21.503906 20.210938 -20.660156 20.984375 -19.578125 C 21.753906 -18.503906 22.335938 -17.253906 22.734375 -15.828125 C 23.128906 -14.410156 23.328125 -12.894531 23.328125 -11.28125 C 23.328125 -9.6875 23.128906 -8.179688 22.734375 -6.765625 C 22.335938 -5.359375 21.753906 -4.113281 20.984375 -3.03125 C 20.222656 -1.945312 19.269531 -1.09375 18.125 -0.46875 C 16.976562 0.144531 15.644531 0.453125 14.125 0.453125 C 12.664062 0.453125 11.34375 0.148438 10.15625 -0.453125 C 8.96875 -1.066406 7.988281 -1.9375 7.21875 -3.0625 L 7.21875 9.890625 Z M 13.40625 -2.390625 C 14.539062 -2.390625 15.515625 -2.632812 16.328125 -3.125 C 17.148438 -3.613281 17.828125 -4.273438 18.359375 -5.109375 C 18.898438 -5.941406 19.296875 -6.894531 19.546875 -7.96875 C 19.804688 -9.039062 19.9375 -10.144531 19.9375 -11.28125 C 19.9375 -12.425781 19.804688 -13.53125 19.546875 -14.59375 C 19.296875 -15.65625 18.898438 -16.609375 18.359375 -17.453125 C 17.828125 -18.296875 17.148438 -18.960938 16.328125 -19.453125 C 15.515625 -19.941406 14.539062 -20.1875 13.40625 -20.1875 C 12.257812 -20.1875 11.273438 -19.941406 10.453125 -19.453125 C 9.640625 -18.960938 8.96875 -18.296875 8.4375 -17.453125 C 7.914062 -16.609375 7.53125 -15.65625 7.28125 -14.59375 C 7.03125 -13.53125 6.90625 -12.425781 6.90625 -11.28125 C 6.90625 -10.144531 7.03125 -9.039062 7.28125 -7.96875 C 7.53125 -6.894531 7.914062 -5.941406 8.4375 -5.109375 C 8.96875 -4.273438 9.640625 -3.613281 10.453125 -3.125 C 11.273438 -2.632812 12.257812 -2.390625 13.40625 -2.390625 Z M 13.40625 -2.390625 "/></g></g></g><g fill="#ffffff" fill-opacity="1"><g transform="translate(260.684752, 69.441367)"><g><path d="M 3.796875 0 L 3.796875 -22.546875 L 7.15625 -22.546875 L 7.15625 -18.5625 C 7.550781 -19.476562 8.085938 -20.269531 8.765625 -20.9375 C 9.453125 -21.601562 10.226562 -22.117188 11.09375 -22.484375 C 11.957031 -22.847656 12.863281 -23.03125 13.8125 -23.03125 C 14.59375 -23.03125 15.285156 -22.914062 15.890625 -22.6875 C 16.503906 -22.457031 17.023438 -22.179688 17.453125 -21.859375 L 16.03125 -18.9375 C 15.65625 -19.257812 15.234375 -19.484375 14.765625 -19.609375 C 14.296875 -19.734375 13.800781 -19.796875 13.28125 -19.796875 C 11.363281 -19.796875 9.851562 -19.050781 8.75 -17.5625 C 7.65625 -16.082031 7.109375 -13.984375 7.109375 -11.265625 L 7.109375 0 Z M 3.796875 0 "/></g></g></g><g fill="#ffffff" fill-opacity="1"><g transform="translate(278.628256, 69.441367)"><g><path d="M 12.21875 0.3125 C 10.5 0.3125 9.003906 0.0078125 7.734375 -0.59375 C 6.460938 -1.207031 5.40625 -2.046875 4.5625 -3.109375 C 3.71875 -4.179688 3.085938 -5.40625 2.671875 -6.78125 C 2.253906 -8.15625 2.046875 -9.613281 2.046875 -11.15625 C 2.046875 -12.675781 2.25 -14.132812 2.65625 -15.53125 C 3.0625 -16.925781 3.671875 -18.171875 4.484375 -19.265625 C 5.304688 -20.367188 6.328125 -21.242188 7.546875 -21.890625 C 8.773438 -22.546875 10.210938 -22.875 11.859375 -22.875 C 13.316406 -22.875 14.582031 -22.660156 15.65625 -22.234375 C 16.726562 -21.816406 17.632812 -21.238281 18.375 -20.5 C 19.113281 -19.757812 19.707031 -18.921875 20.15625 -17.984375 C 20.613281 -17.046875 20.9375 -16.050781 21.125 -15 C 21.320312 -13.957031 21.421875 -12.914062 21.421875 -11.875 C 21.421875 -11.59375 21.410156 -11.285156 21.390625 -10.953125 C 21.367188 -10.617188 21.34375 -10.347656 21.3125 -10.140625 L 5.59375 -10.140625 C 5.59375 -9.128906 5.726562 -8.171875 6 -7.265625 C 6.269531 -6.367188 6.679688 -5.570312 7.234375 -4.875 C 7.785156 -4.1875 8.472656 -3.640625 9.296875 -3.234375 C 10.128906 -2.835938 11.09375 -2.640625 12.1875 -2.640625 C 13.476562 -2.640625 14.640625 -2.804688 15.671875 -3.140625 C 16.703125 -3.484375 17.65625 -4.125 18.53125 -5.0625 L 20.84375 -3.203125 C 19.625 -1.972656 18.332031 -1.078125 16.96875 -0.515625 C 15.601562 0.0351562 14.019531 0.3125 12.21875 0.3125 Z M 5.59375 -12.890625 L 18.203125 -12.890625 C 18.179688 -13.796875 18.050781 -14.675781 17.8125 -15.53125 C 17.582031 -16.382812 17.21875 -17.15625 16.71875 -17.84375 C 16.226562 -18.53125 15.582031 -19.078125 14.78125 -19.484375 C 13.988281 -19.890625 13.015625 -20.09375 11.859375 -20.09375 C 10.816406 -20.09375 9.914062 -19.898438 9.15625 -19.515625 C 8.394531 -19.128906 7.757812 -18.601562 7.25 -17.9375 C 6.738281 -17.269531 6.347656 -16.5 6.078125 -15.625 C 5.804688 -14.757812 5.644531 -13.847656 5.59375 -12.890625 Z M 5.59375 -12.890625 "/></g></g></g><g fill="#ffffff" fill-opacity="1"><g transform="translate(302.056364, 69.441367)"><g><path d="M 10.046875 0.453125 C 8.628906 0.453125 7.347656 0.195312 6.203125 -0.3125 C 5.066406 -0.820312 4.101562 -1.503906 3.3125 -2.359375 C 2.53125 -3.210938 1.96875 -4.132812 1.625 -5.125 L 4.46875 -6.59375 C 4.738281 -5.789062 5.117188 -5.066406 5.609375 -4.421875 C 6.097656 -3.773438 6.710938 -3.257812 7.453125 -2.875 C 8.203125 -2.488281 9.082031 -2.296875 10.09375 -2.296875 C 11.375 -2.296875 12.429688 -2.613281 13.265625 -3.25 C 14.097656 -3.882812 14.515625 -4.8125 14.515625 -6.03125 C 14.515625 -6.78125 14.34375 -7.410156 14 -7.921875 C 13.664062 -8.429688 13.210938 -8.851562 12.640625 -9.1875 C 12.066406 -9.53125 11.425781 -9.828125 10.71875 -10.078125 C 10.007812 -10.328125 9.273438 -10.566406 8.515625 -10.796875 C 7.753906 -11.035156 7.019531 -11.304688 6.3125 -11.609375 C 5.613281 -11.910156 4.976562 -12.273438 4.40625 -12.703125 C 3.832031 -13.140625 3.375 -13.6875 3.03125 -14.34375 C 2.695312 -15 2.53125 -15.8125 2.53125 -16.78125 C 2.53125 -18.132812 2.859375 -19.273438 3.515625 -20.203125 C 4.179688 -21.140625 5.054688 -21.84375 6.140625 -22.3125 C 7.222656 -22.789062 8.40625 -23.03125 9.6875 -23.03125 C 11.425781 -23.03125 12.921875 -22.613281 14.171875 -21.78125 C 15.421875 -20.957031 16.394531 -19.875 17.09375 -18.53125 L 14.609375 -17.109375 C 14.128906 -18.085938 13.46875 -18.863281 12.625 -19.4375 C 11.789062 -20.007812 10.773438 -20.296875 9.578125 -20.296875 C 8.359375 -20.296875 7.394531 -20.007812 6.6875 -19.4375 C 5.976562 -18.863281 5.625 -18.113281 5.625 -17.1875 C 5.625 -16.53125 5.789062 -15.988281 6.125 -15.5625 C 6.46875 -15.132812 6.925781 -14.769531 7.5 -14.46875 C 8.082031 -14.164062 8.734375 -13.898438 9.453125 -13.671875 C 10.179688 -13.453125 10.929688 -13.21875 11.703125 -12.96875 C 12.484375 -12.71875 13.234375 -12.429688 13.953125 -12.109375 C 14.671875 -11.785156 15.320312 -11.378906 15.90625 -10.890625 C 16.488281 -10.398438 16.945312 -9.789062 17.28125 -9.0625 C 17.625 -8.34375 17.796875 -7.46875 17.796875 -6.4375 C 17.796875 -5.28125 17.578125 -4.265625 17.140625 -3.390625 C 16.703125 -2.523438 16.113281 -1.804688 15.375 -1.234375 C 14.632812 -0.671875 13.804688 -0.25 12.890625 0.03125 C 11.972656 0.3125 11.023438 0.453125 10.046875 0.453125 Z M 10.046875 0.453125 "/></g></g></g><g fill="#ffffff" fill-opacity="1"><g transform="translate(321.647498, 69.441367)"><g><path d="M 10.046875 0.453125 C 8.628906 0.453125 7.347656 0.195312 6.203125 -0.3125 C 5.066406 -0.820312 4.101562 -1.503906 3.3125 -2.359375 C 2.53125 -3.210938 1.96875 -4.132812 1.625 -5.125 L 4.46875 -6.59375 C 4.738281 -5.789062 5.117188 -5.066406 5.609375 -4.421875 C 6.097656 -3.773438 6.710938 -3.257812 7.453125 -2.875 C 8.203125 -2.488281 9.082031 -2.296875 10.09375 -2.296875 C 11.375 -2.296875 12.429688 -2.613281 13.265625 -3.25 C 14.097656 -3.882812 14.515625 -4.8125 14.515625 -6.03125 C 14.515625 -6.78125 14.34375 -7.410156 14 -7.921875 C 13.664062 -8.429688 13.210938 -8.851562 12.640625 -9.1875 C 12.066406 -9.53125 11.425781 -9.828125 10.71875 -10.078125 C 10.007812 -10.328125 9.273438 -10.566406 8.515625 -10.796875 C 7.753906 -11.035156 7.019531 -11.304688 6.3125 -11.609375 C 5.613281 -11.910156 4.976562 -12.273438 4.40625 -12.703125 C 3.832031 -13.140625 3.375 -13.6875 3.03125 -14.34375 C 2.695312 -15 2.53125 -15.8125 2.53125 -16.78125 C 2.53125 -18.132812 2.859375 -19.273438 3.515625 -20.203125 C 4.179688 -21.140625 5.054688 -21.84375 6.140625 -22.3125 C 7.222656 -22.789062 8.40625 -23.03125 9.6875 -23.03125 C 11.425781 -23.03125 12.921875 -22.613281 14.171875 -21.78125 C 15.421875 -20.957031 16.394531 -19.875 17.09375 -18.53125 L 14.609375 -17.109375 C 14.128906 -18.085938 13.46875 -18.863281 12.625 -19.4375 C 11.789062 -20.007812 10.773438 -20.296875 9.578125 -20.296875 C 8.359375 -20.296875 7.394531 -20.007812 6.6875 -19.4375 C 5.976562 -18.863281 5.625 -18.113281 5.625 -17.1875 C 5.625 -16.53125 5.789062 -15.988281 6.125 -15.5625 C 6.46875 -15.132812 6.925781 -14.769531 7.5 -14.46875 C 8.082031 -14.164062 8.734375 -13.898438 9.453125 -13.671875 C 10.179688 -13.453125 10.929688 -13.21875 11.703125 -12.96875 C 12.484375 -12.71875 13.234375 -12.429688 13.953125 -12.109375 C 14.671875 -11.785156 15.320312 -11.378906 15.90625 -10.890625 C 16.488281 -10.398438 16.945312 -9.789062 17.28125 -9.0625 C 17.625 -8.34375 17.796875 -7.46875 17.796875 -6.4375 C 17.796875 -5.28125 17.578125 -4.265625 17.140625 -3.390625 C 16.703125 -2.523438 16.113281 -1.804688 15.375 -1.234375 C 14.632812 -0.671875 13.804688 -0.25 12.890625 0.03125 C 11.972656 0.3125 11.023438 0.453125 10.046875 0.453125 Z M 10.046875 0.453125 "/></g></g></g></svg>