<svg xmlns="http://www.w3.org/2000/svg" xmlns:xlink="http://www.w3.org/1999/xlink" width="500" zoomAndPan="magnify" viewBox="0 0 375 112.499997" height="150" preserveAspectRatio="xMidYMid meet" version="1.0"><defs><g/><clipPath id="99f07bb21e"><path d="M 297 10 L 363 10 L 363 64 L 297 64 Z M 297 10 " clip-rule="nonzero"/></clipPath><clipPath id="e11e613ef3"><path d="M 328.316406 -23.035156 L 391.148438 26.3125 L 341.796875 89.144531 L 278.964844 39.796875 Z M 328.316406 -23.035156 " clip-rule="nonzero"/></clipPath><clipPath id="90ab35af68"><path d="M 328.316406 -23.035156 L 391.148438 26.3125 L 341.796875 89.144531 L 278.964844 39.796875 Z M 328.316406 -23.035156 " clip-rule="nonzero"/></clipPath><clipPath id="f8544f51bc"><path d="M 328.316406 -23.035156 L 391.148438 26.3125 L 341.796875 89.144531 L 278.964844 39.796875 Z M 328.316406 -23.035156 " clip-rule="nonzero"/></clipPath><clipPath id="62ae0c42d8"><path d="M 312 14 L 357 14 L 357 46 L 312 46 Z M 312 14 " clip-rule="nonzero"/></clipPath><clipPath id="1eddc48380"><path d="M 328.316406 -23.035156 L 391.148438 26.3125 L 341.796875 89.144531 L 278.964844 39.796875 Z M 328.316406 -23.035156 " clip-rule="nonzero"/></clipPath><clipPath id="c58e85a31a"><path d="M 328.316406 -23.035156 L 391.148438 26.3125 L 341.796875 89.144531 L 278.964844 39.796875 Z M 328.316406 -23.035156 " clip-rule="nonzero"/></clipPath><clipPath id="7c7d74cd61"><path d="M 328.316406 -23.035156 L 391.148438 26.3125 L 341.796875 89.144531 L 278.964844 39.796875 Z M 328.316406 -23.035156 " clip-rule="nonzero"/></clipPath><clipPath id="8a776e0fa2"><path d="M 318 17 L 355 17 L 355 45 L 318 45 Z M 318 17 " clip-rule="nonzero"/></clipPath><clipPath id="2b6c7d2a18"><path d="M 328.316406 -23.035156 L 391.148438 26.3125 L 341.796875 89.144531 L 278.964844 39.796875 Z M 328.316406 -23.035156 " clip-rule="nonzero"/></clipPath><clipPath id="b0939df25e"><path d="M 328.316406 -23.035156 L 391.148438 26.3125 L 341.796875 89.144531 L 278.964844 39.796875 Z M 328.316406 -23.035156 " clip-rule="nonzero"/></clipPath><clipPath id="3b45e06f2e"><path d="M 328.316406 -23.035156 L 391.148438 26.3125 L 341.796875 89.144531 L 278.964844 39.796875 Z M 328.316406 -23.035156 " clip-rule="nonzero"/></clipPath><clipPath id="c1131761aa"><path d="M 319 20 L 353 20 L 353 46 L 319 46 Z M 319 20 " clip-rule="nonzero"/></clipPath><clipPath id="4e6776fcea"><path d="M 328.316406 -23.035156 L 391.148438 26.3125 L 341.796875 89.144531 L 278.964844 39.796875 Z M 328.316406 -23.035156 " clip-rule="nonzero"/></clipPath><clipPath id="4c855a1827"><path d="M 328.316406 -23.035156 L 391.148438 26.3125 L 341.796875 89.144531 L 278.964844 39.796875 Z M 328.316406 -23.035156 " clip-rule="nonzero"/></clipPath><clipPath id="db187d2658"><path d="M 328.316406 -23.035156 L 391.148438 26.3125 L 341.796875 89.144531 L 278.964844 39.796875 Z M 328.316406 -23.035156 " clip-rule="nonzero"/></clipPath><clipPath id="1ab69ee68b"><path d="M 309 10 L 361 10 L 361 50 L 309 50 Z M 309 10 " clip-rule="nonzero"/></clipPath><clipPath id="897c671e9e"><path d="M 328.316406 -23.035156 L 391.148438 26.3125 L 341.796875 89.144531 L 278.964844 39.796875 Z M 328.316406 -23.035156 " clip-rule="nonzero"/></clipPath><clipPath id="9f85989a46"><path d="M 328.316406 -23.035156 L 391.148438 26.3125 L 341.796875 89.144531 L 278.964844 39.796875 Z M 328.316406 -23.035156 " clip-rule="nonzero"/></clipPath><clipPath id="d3785731dc"><path d="M 328.316406 -23.035156 L 391.148438 26.3125 L 341.796875 89.144531 L 278.964844 39.796875 Z M 328.316406 -23.035156 " clip-rule="nonzero"/></clipPath><clipPath id="1673b3fa85"><path d="M 319 24 L 350 24 L 350 46 L 319 46 Z M 319 24 " clip-rule="nonzero"/></clipPath><clipPath id="993d46828a"><path d="M 328.316406 -23.035156 L 391.148438 26.3125 L 341.796875 89.144531 L 278.964844 39.796875 Z M 328.316406 -23.035156 " clip-rule="nonzero"/></clipPath><clipPath id="b4494cecf9"><path d="M 328.316406 -23.035156 L 391.148438 26.3125 L 341.796875 89.144531 L 278.964844 39.796875 Z M 328.316406 -23.035156 " clip-rule="nonzero"/></clipPath><clipPath id="d3a61fd50f"><path d="M 328.316406 -23.035156 L 391.148438 26.3125 L 341.796875 89.144531 L 278.964844 39.796875 Z M 328.316406 -23.035156 " clip-rule="nonzero"/></clipPath><clipPath id="63b7337be0"><path d="M 308 23 L 312 23 L 312 27 L 308 27 Z M 308 23 " clip-rule="nonzero"/></clipPath><clipPath id="031e4023cd"><path d="M 328.316406 -23.035156 L 391.148438 26.3125 L 341.796875 89.144531 L 278.964844 39.796875 Z M 328.316406 -23.035156 " clip-rule="nonzero"/></clipPath><clipPath id="8273b1557b"><path d="M 328.316406 -23.035156 L 391.148438 26.3125 L 341.796875 89.144531 L 278.964844 39.796875 Z M 328.316406 -23.035156 " clip-rule="nonzero"/></clipPath><clipPath id="846b4adef2"><path d="M 328.316406 -23.035156 L 391.148438 26.3125 L 341.796875 89.144531 L 278.964844 39.796875 Z M 328.316406 -23.035156 " clip-rule="nonzero"/></clipPath><clipPath id="4dd0f1cc53"><path d="M 354 52 L 357 52 L 357 54 L 354 54 Z M 354 52 " clip-rule="nonzero"/></clipPath><clipPath id="274f74f629"><path d="M 328.316406 -23.035156 L 391.148438 26.3125 L 341.796875 89.144531 L 278.964844 39.796875 Z M 328.316406 -23.035156 " clip-rule="nonzero"/></clipPath><clipPath id="ab31cccbd1"><path d="M 328.316406 -23.035156 L 391.148438 26.3125 L 341.796875 89.144531 L 278.964844 39.796875 Z M 328.316406 -23.035156 " clip-rule="nonzero"/></clipPath><clipPath id="a6c0d3d20b"><path d="M 328.316406 -23.035156 L 391.148438 26.3125 L 341.796875 89.144531 L 278.964844 39.796875 Z M 328.316406 -23.035156 " clip-rule="nonzero"/></clipPath><clipPath id="9c42a45bd9"><path d="M 306 20 L 308 20 L 308 23 L 306 23 Z M 306 20 " clip-rule="nonzero"/></clipPath><clipPath id="2b42711476"><path d="M 328.316406 -23.035156 L 391.148438 26.3125 L 341.796875 89.144531 L 278.964844 39.796875 Z M 328.316406 -23.035156 " clip-rule="nonzero"/></clipPath><clipPath id="2668555748"><path d="M 328.316406 -23.035156 L 391.148438 26.3125 L 341.796875 89.144531 L 278.964844 39.796875 Z M 328.316406 -23.035156 " clip-rule="nonzero"/></clipPath><clipPath id="40b56577a6"><path d="M 328.316406 -23.035156 L 391.148438 26.3125 L 341.796875 89.144531 L 278.964844 39.796875 Z M 328.316406 -23.035156 " clip-rule="nonzero"/></clipPath><clipPath id="af4692dab7"><path d="M 313 26 L 316 26 L 316 28 L 313 28 Z M 313 26 " clip-rule="nonzero"/></clipPath><clipPath id="f5e28d15db"><path d="M 328.316406 -23.035156 L 391.148438 26.3125 L 341.796875 89.144531 L 278.964844 39.796875 Z M 328.316406 -23.035156 " clip-rule="nonzero"/></clipPath><clipPath id="57a41db71a"><path d="M 328.316406 -23.035156 L 391.148438 26.3125 L 341.796875 89.144531 L 278.964844 39.796875 Z M 328.316406 -23.035156 " clip-rule="nonzero"/></clipPath><clipPath id="68936e20d4"><path d="M 328.316406 -23.035156 L 391.148438 26.3125 L 341.796875 89.144531 L 278.964844 39.796875 Z M 328.316406 -23.035156 " clip-rule="nonzero"/></clipPath><clipPath id="bc50b2adf6"><path d="M 307 19 L 309 19 L 309 21 L 307 21 Z M 307 19 " clip-rule="nonzero"/></clipPath><clipPath id="d91e7abe9b"><path d="M 328.316406 -23.035156 L 391.148438 26.3125 L 341.796875 89.144531 L 278.964844 39.796875 Z M 328.316406 -23.035156 " clip-rule="nonzero"/></clipPath><clipPath id="4c8742bb51"><path d="M 328.316406 -23.035156 L 391.148438 26.3125 L 341.796875 89.144531 L 278.964844 39.796875 Z M 328.316406 -23.035156 " clip-rule="nonzero"/></clipPath><clipPath id="23c4077349"><path d="M 328.316406 -23.035156 L 391.148438 26.3125 L 341.796875 89.144531 L 278.964844 39.796875 Z M 328.316406 -23.035156 " clip-rule="nonzero"/></clipPath><clipPath id="496d31316a"><path d="M 315 24 L 317 24 L 317 26 L 315 26 Z M 315 24 " clip-rule="nonzero"/></clipPath><clipPath id="56c7fc5d91"><path d="M 328.316406 -23.035156 L 391.148438 26.3125 L 341.796875 89.144531 L 278.964844 39.796875 Z M 328.316406 -23.035156 " clip-rule="nonzero"/></clipPath><clipPath id="999449e7d2"><path d="M 328.316406 -23.035156 L 391.148438 26.3125 L 341.796875 89.144531 L 278.964844 39.796875 Z M 328.316406 -23.035156 " clip-rule="nonzero"/></clipPath><clipPath id="f593ced433"><path d="M 328.316406 -23.035156 L 391.148438 26.3125 L 341.796875 89.144531 L 278.964844 39.796875 Z M 328.316406 -23.035156 " clip-rule="nonzero"/></clipPath><clipPath id="1f8f777e1b"><path d="M 352 49 L 354 49 L 354 51 L 352 51 Z M 352 49 " clip-rule="nonzero"/></clipPath><clipPath id="f9cc8aebec"><path d="M 328.316406 -23.035156 L 391.148438 26.3125 L 341.796875 89.144531 L 278.964844 39.796875 Z M 328.316406 -23.035156 " clip-rule="nonzero"/></clipPath><clipPath id="993b966a80"><path d="M 328.316406 -23.035156 L 391.148438 26.3125 L 341.796875 89.144531 L 278.964844 39.796875 Z M 328.316406 -23.035156 " clip-rule="nonzero"/></clipPath><clipPath id="c5d36ac7f5"><path d="M 328.316406 -23.035156 L 391.148438 26.3125 L 341.796875 89.144531 L 278.964844 39.796875 Z M 328.316406 -23.035156 " clip-rule="nonzero"/></clipPath><clipPath id="e781a27ab0"><path d="M 358 54 L 360 54 L 360 56 L 358 56 Z M 358 54 " clip-rule="nonzero"/></clipPath><clipPath id="9584079a32"><path d="M 328.316406 -23.035156 L 391.148438 26.3125 L 341.796875 89.144531 L 278.964844 39.796875 Z M 328.316406 -23.035156 " clip-rule="nonzero"/></clipPath><clipPath id="c669d9c25f"><path d="M 328.316406 -23.035156 L 391.148438 26.3125 L 341.796875 89.144531 L 278.964844 39.796875 Z M 328.316406 -23.035156 " clip-rule="nonzero"/></clipPath><clipPath id="3db7c5800d"><path d="M 328.316406 -23.035156 L 391.148438 26.3125 L 341.796875 89.144531 L 278.964844 39.796875 Z M 328.316406 -23.035156 " clip-rule="nonzero"/></clipPath><clipPath id="cc3031c570"><path d="M 350 50 L 353 50 L 353 53 L 350 53 Z M 350 50 " clip-rule="nonzero"/></clipPath><clipPath id="b8841bce40"><path d="M 328.316406 -23.035156 L 391.148438 26.3125 L 341.796875 89.144531 L 278.964844 39.796875 Z M 328.316406 -23.035156 " clip-rule="nonzero"/></clipPath><clipPath id="dbd4b1e249"><path d="M 328.316406 -23.035156 L 391.148438 26.3125 L 341.796875 89.144531 L 278.964844 39.796875 Z M 328.316406 -23.035156 " clip-rule="nonzero"/></clipPath><clipPath id="601182a691"><path d="M 328.316406 -23.035156 L 391.148438 26.3125 L 341.796875 89.144531 L 278.964844 39.796875 Z M 328.316406 -23.035156 " clip-rule="nonzero"/></clipPath><clipPath id="95388b4bfd"><path d="M 304 21 L 307 21 L 307 24 L 304 24 Z M 304 21 " clip-rule="nonzero"/></clipPath><clipPath id="8f1e9f7482"><path d="M 328.316406 -23.035156 L 391.148438 26.3125 L 341.796875 89.144531 L 278.964844 39.796875 Z M 328.316406 -23.035156 " clip-rule="nonzero"/></clipPath><clipPath id="6cfbca4309"><path d="M 328.316406 -23.035156 L 391.148438 26.3125 L 341.796875 89.144531 L 278.964844 39.796875 Z M 328.316406 -23.035156 " clip-rule="nonzero"/></clipPath><clipPath id="64490f5db6"><path d="M 328.316406 -23.035156 L 391.148438 26.3125 L 341.796875 89.144531 L 278.964844 39.796875 Z M 328.316406 -23.035156 " clip-rule="nonzero"/></clipPath><clipPath id="6baa260c68"><path d="M 312 27 L 315 27 L 315 30 L 312 30 Z M 312 27 " clip-rule="nonzero"/></clipPath><clipPath id="9ff4eb0e4c"><path d="M 328.316406 -23.035156 L 391.148438 26.3125 L 341.796875 89.144531 L 278.964844 39.796875 Z M 328.316406 -23.035156 " clip-rule="nonzero"/></clipPath><clipPath id="228a2d1ca4"><path d="M 328.316406 -23.035156 L 391.148438 26.3125 L 341.796875 89.144531 L 278.964844 39.796875 Z M 328.316406 -23.035156 " clip-rule="nonzero"/></clipPath><clipPath id="0c9f27f597"><path d="M 328.316406 -23.035156 L 391.148438 26.3125 L 341.796875 89.144531 L 278.964844 39.796875 Z M 328.316406 -23.035156 " clip-rule="nonzero"/></clipPath><clipPath id="29b10fe3af"><path d="M 357 55 L 360 55 L 360 58 L 357 58 Z M 357 55 " clip-rule="nonzero"/></clipPath><clipPath id="7ef0c7098b"><path d="M 328.316406 -23.035156 L 391.148438 26.3125 L 341.796875 89.144531 L 278.964844 39.796875 Z M 328.316406 -23.035156 " clip-rule="nonzero"/></clipPath><clipPath id="486d0e0f43"><path d="M 328.316406 -23.035156 L 391.148438 26.3125 L 341.796875 89.144531 L 278.964844 39.796875 Z M 328.316406 -23.035156 " clip-rule="nonzero"/></clipPath><clipPath id="6a652349e2"><path d="M 328.316406 -23.035156 L 391.148438 26.3125 L 341.796875 89.144531 L 278.964844 39.796875 Z M 328.316406 -23.035156 " clip-rule="nonzero"/></clipPath></defs><g clip-path="url(#99f07bb21e)"><g clip-path="url(#e11e613ef3)"><g clip-path="url(#90ab35af68)"><g clip-path="url(#f8544f51bc)"><path fill="#a9c2e7" d="M 358.859375 60.933594 C 357.808594 62.953125 355.183594 63.457031 353.199219 62.636719 C 351.914062 62.105469 350.839844 61.066406 350.273438 59.796875 C 349.675781 60.308594 348.96875 60.699219 348.226562 60.941406 C 347.144531 61.292969 345.957031 61.390625 344.847656 61.117188 C 343.675781 60.828125 342.671875 60.21875 341.871094 59.3125 C 340.753906 58.050781 340.210938 56.304688 340.367188 54.632812 C 339.582031 54.898438 338.761719 55.046875 337.945312 54.886719 C 335.660156 54.445312 334.449219 51.863281 335.015625 49.710938 C 335.554688 47.652344 337.355469 46.339844 339.324219 45.761719 C 338.914062 45.03125 338.785156 44.164062 339.078125 43.328125 C 339.261719 42.800781 339.644531 42.304688 340.125 42.015625 C 340.6875 41.679688 341.328125 41.59375 341.972656 41.679688 C 342.570312 41.761719 343.164062 41.957031 343.738281 42.144531 C 344.308594 42.335938 344.867188 42.554688 345.414062 42.804688 C 345.488281 42.839844 345.5625 42.875 345.632812 42.910156 C 345.648438 42.675781 345.660156 42.441406 345.664062 42.203125 C 345.65625 40.953125 345.503906 39.707031 345.21875 38.488281 C 344.921875 37.386719 344.507812 36.316406 343.96875 35.304688 C 343.476562 34.449219 342.890625 33.648438 342.21875 32.925781 C 341.402344 32.121094 340.480469 31.445312 339.503906 30.851562 C 337.785156 29.859375 335.949219 29.089844 334.039062 28.546875 C 332.179688 28.0625 330.269531 27.796875 328.347656 27.761719 C 326.476562 27.769531 324.613281 27.996094 322.796875 28.433594 C 322.519531 28.507812 322.242188 28.582031 321.96875 28.667969 C 322.9375 29.269531 323.589844 30.222656 323.84375 31.328125 C 324.085938 32.40625 323.878906 33.578125 323.242188 34.480469 C 322.394531 35.683594 320.707031 36.113281 319.339844 35.675781 C 319.269531 36.238281 319.085938 36.785156 318.804688 37.273438 C 318.226562 38.277344 317.332031 39.074219 316.203125 39.402344 C 315.003906 39.753906 313.734375 39.664062 312.574219 39.210938 C 310.441406 38.375 309.105469 36.417969 308.472656 34.292969 C 307.746094 34.644531 306.945312 34.855469 306.144531 34.886719 C 305.097656 34.929688 304.015625 34.742188 303.09375 34.230469 C 302.113281 33.683594 301.351562 32.894531 300.890625 31.867188 C 300.460938 30.917969 300.324219 29.804688 300.492188 28.78125 C 300.570312 28.289062 300.722656 27.824219 300.933594 27.394531 C 299.96875 27.347656 299.015625 27.125 298.304688 26.46875 C 297.421875 25.660156 297.109375 24.457031 297.394531 23.300781 C 297.671875 22.175781 298.328125 21.214844 299.257812 20.523438 C 300.78125 19.386719 302.902344 19.03125 304.71875 19.617188 C 304.863281 19.0625 305.121094 18.542969 305.488281 18.082031 C 306.394531 16.9375 307.804688 16.3125 309.214844 16.46875 C 310.582031 15.542969 312.019531 14.71875 313.503906 13.988281 C 316.121094 12.703125 318.902344 11.789062 321.757812 11.203125 C 324.636719 10.613281 327.585938 10.445312 330.519531 10.625 C 333.476562 10.808594 336.394531 11.414062 339.203125 12.34375 C 347.445312 15.082031 354.675781 21.25 358.167969 29.261719 C 359.441406 32.179688 360.191406 35.355469 360.367188 38.535156 C 360.457031 40.167969 360.421875 41.816406 360.242188 43.441406 C 360.058594 45.074219 359.710938 46.675781 359.269531 48.257812 C 359.113281 48.816406 358.941406 49.363281 358.75 49.90625 C 358.722656 49.894531 358.699219 49.882812 358.671875 49.871094 C 359.136719 50.105469 359.582031 50.375 360 50.6875 C 361.746094 51.992188 362.925781 54.246094 362.253906 56.429688 C 361.839844 57.769531 360.539062 58.816406 359.152344 58.984375 C 359.261719 59.648438 359.160156 60.355469 358.859375 60.933594 Z M 358.859375 60.933594 " fill-opacity="1" fill-rule="nonzero"/></g></g></g></g><g clip-path="url(#62ae0c42d8)"><g clip-path="url(#1eddc48380)"><g clip-path="url(#c58e85a31a)"><g clip-path="url(#7c7d74cd61)"><path fill="#f9d7ab" d="M 356.167969 45.765625 C 356.097656 45.679688 356.027344 45.597656 355.949219 45.523438 C 355.511719 45.078125 354.984375 44.773438 354.421875 44.59375 C 354.605469 43.636719 354.726562 42.667969 354.765625 41.695312 C 354.859375 39.320312 354.554688 36.964844 353.703125 34.734375 C 352.800781 32.378906 351.375 30.226562 349.800781 28.273438 C 346.832031 24.589844 343.140625 21.429688 338.839844 19.40625 C 336.742188 18.421875 334.472656 17.730469 332.175781 17.429688 C 329.71875 17.109375 327.203125 17.25 324.761719 17.660156 C 322.484375 18.039062 320.210938 18.59375 318.015625 19.308594 C 317.128906 18.625 316.058594 18.300781 314.941406 18.320312 C 314.117188 18.335938 313.300781 18.589844 312.621094 19.046875 C 312.570312 18.925781 312.511719 18.8125 312.449219 18.699219 C 312.839844 18.457031 313.234375 18.226562 313.632812 18 C 315.957031 16.738281 318.433594 15.757812 320.992188 15.085938 C 323.457031 14.484375 325.980469 14.175781 328.511719 14.175781 C 331.148438 14.214844 333.773438 14.582031 336.320312 15.253906 C 339.101562 15.988281 341.835938 17.179688 344.34375 18.753906 C 346.339844 20.054688 348.183594 21.550781 349.855469 23.261719 C 350.199219 23.613281 350.535156 23.964844 350.859375 24.328125 C 351.992188 25.652344 352.984375 27.082031 353.804688 28.597656 C 354.777344 30.398438 355.542969 32.308594 356.066406 34.292969 C 356.550781 36.296875 356.789062 38.351562 356.796875 40.414062 C 356.761719 42.214844 356.550781 44.007812 356.167969 45.765625 Z M 356.167969 45.765625 " fill-opacity="1" fill-rule="nonzero"/></g></g></g></g><g clip-path="url(#8a776e0fa2)"><g clip-path="url(#2b6c7d2a18)"><g clip-path="url(#b0939df25e)"><g clip-path="url(#3b45e06f2e)"><path fill="#ee9d9d" d="M 354.421875 44.59375 C 353.972656 44.453125 353.496094 44.390625 353.019531 44.398438 C 352.519531 44.40625 352.015625 44.496094 351.535156 44.652344 C 351.890625 43.015625 352.078125 41.34375 351.980469 39.671875 C 351.839844 37.195312 350.84375 34.828125 349.648438 32.6875 C 348.539062 30.707031 347.097656 28.953125 345.453125 27.386719 C 343.824219 25.835938 341.953125 24.554688 339.964844 23.5 C 338.074219 22.5 336.0625 21.800781 333.984375 21.304688 C 330.886719 20.566406 327.636719 20.445312 324.488281 20.925781 C 322.933594 21.164062 321.40625 21.527344 319.910156 21.988281 C 319.5625 21 318.953125 20.082031 318.148438 19.414062 C 318.125 19.394531 318.097656 19.375 318.074219 19.355469 C 318.054688 19.339844 318.035156 19.324219 318.015625 19.308594 C 320.210938 18.59375 322.484375 18.039062 324.761719 17.660156 C 327.203125 17.25 329.71875 17.109375 332.175781 17.429688 C 334.472656 17.730469 336.742188 18.421875 338.839844 19.40625 C 343.140625 21.429688 346.832031 24.589844 349.800781 28.273438 C 351.375 30.226562 352.800781 32.378906 353.703125 34.734375 C 354.554688 36.964844 354.859375 39.316406 354.765625 41.695312 C 354.726562 42.667969 354.605469 43.636719 354.421875 44.59375 Z M 354.421875 44.59375 " fill-opacity="1" fill-rule="nonzero"/></g></g></g></g><g clip-path="url(#c1131761aa)"><g clip-path="url(#4e6776fcea)"><g clip-path="url(#4c855a1827)"><g clip-path="url(#db187d2658)"><path fill="#faf5bf" d="M 351.535156 44.652344 C 351.359375 44.710938 351.183594 44.777344 351.015625 44.851562 C 350.875 44.914062 350.738281 44.984375 350.601562 45.058594 C 350.230469 45.257812 349.878906 45.492188 349.550781 45.757812 C 349.410156 45.53125 349.238281 45.316406 349.050781 45.125 L 349.054688 45.125 C 349.246094 43.886719 349.308594 42.632812 349.269531 41.375 C 349.164062 37.917969 348.015625 34.375 345.886719 31.632812 C 345.308594 30.886719 344.648438 30.191406 343.941406 29.570312 C 343.070312 28.804688 342.097656 28.1875 341.101562 27.601562 C 339.59375 26.71875 337.996094 25.996094 336.335938 25.460938 C 332.773438 24.304688 329.007812 23.875 325.28125 24.300781 C 323.550781 24.5 321.855469 24.878906 320.214844 25.417969 C 320.347656 24.441406 320.316406 23.449219 320.058594 22.472656 C 320.035156 22.382812 320.011719 22.292969 319.980469 22.203125 C 319.960938 22.132812 319.933594 22.0625 319.910156 21.988281 C 321.40625 21.527344 322.933594 21.164062 324.488281 20.925781 C 327.636719 20.445312 330.886719 20.566406 333.984375 21.304688 C 336.0625 21.800781 338.074219 22.5 339.964844 23.5 C 341.953125 24.554688 343.824219 25.835938 345.453125 27.386719 C 347.097656 28.953125 348.539062 30.707031 349.648438 32.6875 C 350.839844 34.828125 351.839844 37.195312 351.980469 39.671875 C 352.078125 41.34375 351.890625 43.015625 351.535156 44.652344 Z M 351.535156 44.652344 " fill-opacity="1" fill-rule="nonzero"/></g></g></g></g><g clip-path="url(#1ab69ee68b)"><g clip-path="url(#897c671e9e)"><g clip-path="url(#9f85989a46)"><g clip-path="url(#d3785731dc)"><path fill="#e7c9e2" d="M 358.746094 49.90625 C 358.210938 49.628906 357.648438 49.394531 357.078125 49.183594 C 357.355469 48.125 357.046875 46.964844 356.394531 46.054688 C 356.324219 45.957031 356.25 45.859375 356.167969 45.765625 C 356.550781 44.007812 356.761719 42.214844 356.796875 40.414062 C 356.789062 38.351562 356.550781 36.296875 356.066406 34.292969 C 355.542969 32.308594 354.777344 30.398438 353.804688 28.597656 C 352.984375 27.082031 351.992188 25.652344 350.859375 24.328125 C 349.007812 22.164062 346.78125 20.28125 344.34375 18.753906 C 341.835938 17.179688 339.101562 15.988281 336.320312 15.253906 C 333.773438 14.582031 331.148438 14.214844 328.511719 14.175781 C 325.980469 14.175781 323.457031 14.484375 320.992188 15.085938 C 318.433594 15.757812 315.957031 16.738281 313.632812 18 C 313.234375 18.226562 312.839844 18.457031 312.449219 18.699219 C 312.363281 18.542969 312.265625 18.390625 312.160156 18.246094 C 311.652344 17.542969 310.941406 16.984375 310.140625 16.6875 C 309.835938 16.574219 309.523438 16.503906 309.214844 16.46875 C 310.582031 15.542969 312.019531 14.71875 313.503906 13.988281 C 316.121094 12.703125 318.902344 11.789062 321.757812 11.203125 C 324.636719 10.613281 327.585938 10.445312 330.519531 10.625 C 333.476562 10.808594 336.394531 11.414062 339.203125 12.34375 C 347.445312 15.082031 354.675781 21.25 358.167969 29.261719 C 359.441406 32.179688 360.191406 35.355469 360.367188 38.535156 C 360.457031 40.167969 360.421875 41.816406 360.242188 43.441406 C 360.058594 45.074219 359.710938 46.675781 359.269531 48.257812 C 359.113281 48.816406 358.941406 49.363281 358.746094 49.90625 Z M 358.746094 49.90625 " fill-opacity="1" fill-rule="nonzero"/></g></g></g></g><g clip-path="url(#1673b3fa85)"><g clip-path="url(#993d46828a)"><g clip-path="url(#b4494cecf9)"><g clip-path="url(#d3a61fd50f)"><path fill="#b7e0ee" d="M 349.054688 45.125 C 348.894531 44.960938 348.726562 44.8125 348.558594 44.675781 C 348.351562 44.511719 348.136719 44.351562 347.917969 44.203125 C 347.199219 43.707031 346.417969 43.277344 345.632812 42.910156 C 345.648438 42.675781 345.660156 42.441406 345.664062 42.203125 C 345.652344 40.953125 345.503906 39.707031 345.21875 38.488281 C 344.921875 37.386719 344.507812 36.316406 343.96875 35.304688 C 343.472656 34.449219 342.890625 33.648438 342.21875 32.925781 C 341.402344 32.121094 340.480469 31.445312 339.503906 30.851562 C 337.785156 29.859375 335.949219 29.089844 334.039062 28.546875 C 332.179688 28.0625 330.269531 27.796875 328.347656 27.761719 C 326.476562 27.769531 324.613281 27.996094 322.796875 28.433594 C 322.519531 28.507812 322.242188 28.582031 321.96875 28.667969 C 321.953125 28.65625 321.9375 28.648438 321.921875 28.636719 C 321.191406 28.195312 320.367188 27.9375 319.519531 27.878906 C 319.8125 27.183594 320.035156 26.460938 320.164062 25.722656 C 320.183594 25.621094 320.199219 25.519531 320.214844 25.417969 C 321.855469 24.878906 323.550781 24.5 325.28125 24.300781 C 329.007812 23.875 332.773438 24.304688 336.335938 25.460938 C 337.996094 26 339.59375 26.71875 341.101562 27.601562 C 342.097656 28.1875 343.070312 28.804688 343.941406 29.570312 C 344.648438 30.191406 345.308594 30.886719 345.886719 31.632812 C 348.015625 34.375 349.164062 37.917969 349.269531 41.375 C 349.308594 42.632812 349.246094 43.886719 349.054688 45.125 Z M 349.054688 45.125 " fill-opacity="1" fill-rule="nonzero"/></g></g></g></g><g clip-path="url(#63b7337be0)"><g clip-path="url(#031e4023cd)"><g clip-path="url(#8273b1557b)"><g clip-path="url(#846b4adef2)"><path fill="#4574aa" d="M 311.886719 25.019531 C 311.8125 24.964844 311.714844 24.945312 311.625 24.972656 C 311.523438 25.007812 311.445312 25.097656 311.371094 25.175781 C 311.058594 25.511719 310.570312 25.796875 310.089844 25.644531 C 309.867188 25.570312 309.679688 25.402344 309.578125 25.191406 C 309.371094 24.753906 309.617188 24.308594 309.832031 23.925781 C 309.910156 23.789062 309.808594 23.597656 309.675781 23.542969 C 309.515625 23.476562 309.371094 23.5625 309.292969 23.699219 C 309.058594 24.125 308.851562 24.566406 308.9375 25.066406 C 309.101562 26 310.0625 26.46875 310.929688 26.167969 C 311.285156 26.046875 311.59375 25.808594 311.847656 25.535156 C 311.910156 25.464844 311.96875 25.390625 311.988281 25.300781 C 312.007812 25.203125 311.972656 25.097656 311.902344 25.03125 Z M 311.886719 25.019531 " fill-opacity="1" fill-rule="nonzero"/></g></g></g></g><g clip-path="url(#4dd0f1cc53)"><g clip-path="url(#274f74f629)"><g clip-path="url(#ab31cccbd1)"><g clip-path="url(#a6c0d3d20b)"><path fill="#4574aa" d="M 356.308594 53.167969 C 356.242188 53.082031 356.105469 53.050781 356.015625 53.125 L 355.976562 53.152344 L 355.960938 53.160156 L 355.964844 53.160156 L 355.960938 53.160156 L 355.9375 53.171875 L 355.90625 53.183594 L 355.898438 53.1875 L 355.894531 53.183594 L 355.859375 53.191406 L 355.800781 53.195312 L 355.8125 53.199219 L 355.800781 53.195312 C 355.753906 53.195312 355.707031 53.1875 355.660156 53.175781 C 355.664062 53.179688 355.664062 53.179688 355.644531 53.175781 L 355.660156 53.175781 L 355.636719 53.171875 L 355.59375 53.152344 C 355.5625 53.140625 355.53125 53.128906 355.503906 53.113281 L 355.5 53.109375 L 355.492188 53.105469 C 355.476562 53.097656 355.460938 53.085938 355.445312 53.074219 L 355.410156 53.046875 L 355.363281 53 C 355.351562 52.984375 355.339844 52.96875 355.328125 52.953125 L 355.308594 52.925781 L 355.304688 52.917969 L 355.308594 52.925781 L 355.296875 52.90625 C 355.285156 52.882812 355.277344 52.855469 355.269531 52.828125 L 355.269531 52.824219 L 355.269531 52.828125 L 355.269531 52.820312 L 355.261719 52.773438 L 355.257812 52.738281 L 355.257812 52.734375 L 355.261719 52.726562 L 355.265625 52.6875 L 355.265625 52.679688 C 355.257812 52.703125 355.269531 52.648438 355.265625 52.679688 L 355.269531 52.667969 C 355.304688 52.5625 355.269531 52.433594 355.15625 52.390625 C 355.058594 52.351562 354.917969 52.390625 354.882812 52.503906 C 354.753906 52.890625 354.949219 53.273438 355.285156 53.472656 C 355.582031 53.644531 355.984375 53.6875 356.265625 53.464844 C 356.351562 53.394531 356.382812 53.257812 356.308594 53.167969 Z M 356.308594 53.167969 " fill-opacity="1" fill-rule="nonzero"/></g></g></g></g><g clip-path="url(#9c42a45bd9)"><g clip-path="url(#2b42711476)"><g clip-path="url(#2668555748)"><g clip-path="url(#40b56577a6)"><path fill="#4574aa" d="M 307.894531 21.253906 C 307.90625 21.160156 307.894531 21.023438 307.855469 20.9375 C 307.832031 20.886719 307.808594 20.832031 307.773438 20.789062 C 307.707031 20.699219 307.613281 20.625 307.511719 20.582031 C 307.484375 20.570312 307.3125 20.542969 307.304688 20.539062 C 307.265625 20.535156 307.226562 20.535156 307.199219 20.539062 C 307.136719 20.542969 307.074219 20.566406 307.011719 20.582031 C 306.976562 20.59375 306.941406 20.609375 306.90625 20.625 C 306.84375 20.660156 306.78125 20.691406 306.722656 20.730469 C 306.617188 20.789062 306.527344 20.867188 306.445312 20.957031 C 306.394531 21.011719 306.351562 21.09375 306.320312 21.152344 C 306.28125 21.222656 306.265625 21.304688 306.246094 21.378906 C 306.230469 21.449219 306.230469 21.539062 306.238281 21.601562 C 306.242188 21.660156 306.257812 21.71875 306.277344 21.773438 C 306.296875 21.824219 306.324219 21.871094 306.359375 21.917969 C 306.429688 22.011719 306.457031 22.023438 306.542969 22.074219 C 306.628906 22.125 306.648438 22.140625 306.765625 22.15625 C 306.8125 22.164062 306.945312 22.15625 306.921875 22.160156 C 306.984375 22.152344 307.042969 22.136719 307.097656 22.117188 C 307.171875 22.089844 307.25 22.039062 307.3125 22 C 307.375 21.964844 307.433594 21.925781 307.488281 21.875 C 307.550781 21.824219 307.609375 21.765625 307.667969 21.703125 C 307.691406 21.675781 307.71875 21.648438 307.742188 21.617188 C 307.785156 21.558594 307.824219 21.496094 307.847656 21.425781 C 307.863281 21.382812 307.886719 21.3125 307.894531 21.253906 Z M 307.894531 21.253906 " fill-opacity="1" fill-rule="nonzero"/></g></g></g></g><g clip-path="url(#af4692dab7)"><g clip-path="url(#f5e28d15db)"><g clip-path="url(#57a41db71a)"><g clip-path="url(#68936e20d4)"><path fill="#4574aa" d="M 314.921875 27.25 C 314.945312 27.21875 314.964844 27.183594 314.980469 27.152344 C 315.015625 27.085938 315.042969 27.015625 315.054688 26.945312 C 315.0625 26.898438 315.070312 26.824219 315.070312 26.765625 C 315.066406 26.671875 315.03125 26.539062 314.976562 26.460938 C 314.945312 26.414062 314.910156 26.367188 314.867188 26.328125 C 314.789062 26.25 314.683594 26.195312 314.578125 26.171875 C 314.546875 26.164062 314.375 26.167969 314.363281 26.164062 C 314.328125 26.167969 314.289062 26.175781 314.257812 26.183594 C 314.195312 26.199219 314.140625 26.230469 314.082031 26.257812 C 314.050781 26.277344 314.015625 26.296875 313.988281 26.320312 C 313.929688 26.363281 313.875 26.40625 313.824219 26.457031 C 313.726562 26.53125 313.65625 26.625 313.589844 26.726562 C 313.550781 26.789062 313.523438 26.878906 313.5 26.941406 C 313.476562 27.015625 313.472656 27.101562 313.46875 27.175781 C 313.464844 27.246094 313.480469 27.335938 313.496094 27.398438 C 313.515625 27.453125 313.539062 27.507812 313.566406 27.558594 C 313.597656 27.605469 313.632812 27.648438 313.671875 27.6875 C 313.757812 27.769531 313.789062 27.777344 313.882812 27.808594 C 313.976562 27.84375 314 27.855469 314.117188 27.851562 C 314.164062 27.851562 314.292969 27.820312 314.269531 27.828125 C 314.328125 27.808594 314.382812 27.785156 314.4375 27.753906 C 314.503906 27.714844 314.570312 27.648438 314.628906 27.601562 C 314.683594 27.554688 314.734375 27.503906 314.777344 27.449219 C 314.828125 27.386719 314.878906 27.316406 314.921875 27.25 Z M 314.921875 27.25 " fill-opacity="1" fill-rule="nonzero"/></g></g></g></g><g clip-path="url(#bc50b2adf6)"><g clip-path="url(#d91e7abe9b)"><g clip-path="url(#4c8742bb51)"><g clip-path="url(#23c4077349)"><path fill="#4574aa" d="M 307.65625 19.492188 C 307.652344 19.566406 307.664062 19.644531 307.710938 19.707031 C 307.757812 19.765625 307.828125 19.816406 307.90625 19.820312 C 307.925781 19.824219 307.945312 19.828125 307.964844 19.832031 L 308.003906 19.847656 L 308.039062 19.875 L 308.050781 19.890625 C 308.097656 19.949219 308.171875 19.996094 308.246094 20.003906 C 308.285156 20.011719 308.320312 20.007812 308.359375 19.996094 C 308.394531 19.992188 308.429688 19.976562 308.460938 19.949219 C 308.519531 19.902344 308.570312 19.835938 308.574219 19.753906 C 308.582031 19.679688 308.566406 19.601562 308.523438 19.542969 C 308.511719 19.527344 308.5 19.515625 308.488281 19.5 C 308.460938 19.472656 308.433594 19.441406 308.402344 19.414062 C 308.355469 19.375 308.304688 19.347656 308.253906 19.320312 C 308.222656 19.300781 308.191406 19.289062 308.15625 19.277344 C 308.101562 19.261719 308.046875 19.246094 307.988281 19.242188 C 307.949219 19.234375 307.910156 19.238281 307.875 19.25 C 307.839844 19.257812 307.804688 19.273438 307.773438 19.296875 C 307.738281 19.320312 307.714844 19.347656 307.695312 19.386719 C 307.675781 19.417969 307.660156 19.453125 307.65625 19.492188 Z M 307.65625 19.492188 " fill-opacity="1" fill-rule="nonzero"/></g></g></g></g><g clip-path="url(#496d31316a)"><g clip-path="url(#56c7fc5d91)"><g clip-path="url(#999449e7d2)"><g clip-path="url(#f593ced433)"><path fill="#4574aa" d="M 315.164062 25.074219 C 315.214844 25.132812 315.277344 25.175781 315.355469 25.1875 L 315.375 25.195312 L 315.398438 25.214844 L 315.417969 25.242188 L 315.425781 25.257812 L 315.429688 25.296875 C 315.421875 25.367188 315.441406 25.445312 315.484375 25.503906 C 315.527344 25.5625 315.605469 25.613281 315.679688 25.621094 C 315.753906 25.628906 315.835938 25.613281 315.894531 25.566406 C 315.957031 25.515625 316 25.449219 316.011719 25.371094 C 316.058594 25.011719 315.792969 24.667969 315.4375 24.609375 C 315.367188 24.597656 315.285156 24.621094 315.226562 24.664062 C 315.167969 24.707031 315.117188 24.785156 315.109375 24.859375 C 315.101562 24.933594 315.117188 25.015625 315.164062 25.074219 Z M 315.164062 25.074219 " fill-opacity="1" fill-rule="nonzero"/></g></g></g></g><g clip-path="url(#1f8f777e1b)"><g clip-path="url(#f9cc8aebec)"><g clip-path="url(#993b966a80)"><g clip-path="url(#c5d36ac7f5)"><path fill="#4574aa" d="M 353.25 50.203125 C 353.304688 50.09375 353.324219 49.945312 353.273438 49.828125 C 353.210938 49.683594 353.074219 49.574219 352.914062 49.566406 C 352.828125 49.558594 352.746094 49.570312 352.667969 49.609375 C 352.597656 49.644531 352.542969 49.6875 352.488281 49.742188 L 352.484375 49.742188 L 352.476562 49.753906 L 352.457031 49.769531 L 352.453125 49.777344 C 352.414062 49.8125 352.375 49.847656 352.339844 49.886719 C 352.257812 49.984375 352.195312 50.101562 352.167969 50.230469 C 352.140625 50.382812 352.203125 50.558594 352.324219 50.660156 C 352.449219 50.753906 352.625 50.777344 352.765625 50.703125 C 352.878906 50.644531 352.96875 50.566406 353.054688 50.472656 C 353.132812 50.390625 353.199219 50.304688 353.25 50.203125 Z M 353.25 50.203125 " fill-opacity="1" fill-rule="nonzero"/></g></g></g></g><g clip-path="url(#e781a27ab0)"><g clip-path="url(#9584079a32)"><g clip-path="url(#c669d9c25f)"><g clip-path="url(#3db7c5800d)"><path fill="#4574aa" d="M 359.277344 54.757812 C 359.335938 54.644531 359.351562 54.5 359.304688 54.378906 C 359.242188 54.234375 359.105469 54.128906 358.945312 54.117188 C 358.859375 54.113281 358.773438 54.121094 358.699219 54.160156 C 358.625 54.195312 358.574219 54.238281 358.519531 54.292969 L 358.507812 54.304688 L 358.488281 54.320312 L 358.484375 54.328125 C 358.445312 54.363281 358.402344 54.398438 358.371094 54.4375 C 358.285156 54.539062 358.222656 54.65625 358.199219 54.78125 C 358.171875 54.9375 358.230469 55.113281 358.355469 55.210938 C 358.480469 55.308594 358.65625 55.328125 358.796875 55.257812 C 358.910156 55.199219 358.996094 55.117188 359.085938 55.023438 C 359.164062 54.945312 359.230469 54.855469 359.277344 54.757812 Z M 359.277344 54.757812 " fill-opacity="1" fill-rule="nonzero"/></g></g></g></g><g clip-path="url(#cc3031c570)"><g clip-path="url(#b8841bce40)"><g clip-path="url(#dbd4b1e249)"><g clip-path="url(#601182a691)"><path fill="#f4cde3" d="M 352.265625 51.726562 C 352.273438 51.703125 352.285156 51.679688 352.292969 51.652344 C 352.421875 51.191406 352.050781 50.765625 351.71875 50.496094 C 351.394531 50.230469 350.917969 50.113281 350.515625 50.269531 C 350.117188 50.425781 349.96875 50.839844 350.105469 51.226562 C 350.261719 51.675781 350.691406 51.964844 351.132812 52.082031 C 351.527344 52.1875 352.085938 52.15625 352.265625 51.726562 Z M 352.265625 51.726562 " fill-opacity="1" fill-rule="nonzero"/></g></g></g></g><g clip-path="url(#95388b4bfd)"><g clip-path="url(#8f1e9f7482)"><g clip-path="url(#6cfbca4309)"><g clip-path="url(#64490f5db6)"><path fill="#e8adcf" d="M 306.429688 23.273438 C 306.4375 23.25 306.449219 23.226562 306.457031 23.199219 C 306.617188 22.746094 306.269531 22.304688 305.957031 22.015625 C 305.648438 21.730469 305.179688 21.582031 304.769531 21.714844 C 304.363281 21.84375 304.191406 22.25 304.300781 22.644531 C 304.429688 23.101562 304.84375 23.417969 305.277344 23.5625 C 305.664062 23.691406 306.222656 23.691406 306.429688 23.273438 Z M 306.429688 23.273438 " fill-opacity="1" fill-rule="nonzero"/></g></g></g></g><g clip-path="url(#6baa260c68)"><g clip-path="url(#9ff4eb0e4c)"><g clip-path="url(#228a2d1ca4)"><g clip-path="url(#0c9f27f597)"><path fill="#e8adcf" d="M 314.339844 29.488281 C 314.351562 29.464844 314.359375 29.441406 314.371094 29.414062 C 314.527344 28.960938 314.183594 28.515625 313.871094 28.226562 C 313.558594 27.941406 313.089844 27.796875 312.679688 27.925781 C 312.273438 28.058594 312.101562 28.464844 312.214844 28.859375 C 312.34375 29.316406 312.753906 29.632812 313.1875 29.777344 C 313.574219 29.90625 314.136719 29.90625 314.339844 29.488281 Z M 314.339844 29.488281 " fill-opacity="1" fill-rule="nonzero"/></g></g></g></g><g clip-path="url(#29b10fe3af)"><g clip-path="url(#7ef0c7098b)"><g clip-path="url(#486d0e0f43)"><g clip-path="url(#6a652349e2)"><path fill="#f4cde3" d="M 359.292969 56.933594 C 359.304688 56.910156 359.3125 56.882812 359.320312 56.859375 C 359.449219 56.394531 359.078125 55.972656 358.75 55.703125 C 358.421875 55.4375 357.945312 55.316406 357.542969 55.476562 C 357.144531 55.628906 357 56.042969 357.132812 56.433594 C 357.289062 56.878906 357.71875 57.171875 358.160156 57.289062 C 358.554688 57.394531 359.113281 57.363281 359.292969 56.933594 Z M 359.292969 56.933594 " fill-opacity="1" fill-rule="nonzero"/></g></g></g></g><g fill="#ffffff" fill-opacity="1"><g transform="translate(20.616708, 69.441367)"><g><path d="M 10.640625 0 L 1.671875 -31.90625 L 5.328125 -31.90625 L 12.90625 -4.375 L 20.84375 -30.046875 L 23.734375 -30.046875 L 31.671875 -4.375 L 39.21875 -31.90625 L 42.890625 -31.90625 L 33.90625 0 L 29.984375 0 L 22.34375 -24.296875 L 14.5625 0 Z M 10.640625 0 "/></g></g></g><g fill="#ffffff" fill-opacity="1"><g transform="translate(65.148168, 69.441367)"><g><path d="M 12.21875 0.3125 C 10.5 0.3125 9.003906 0.0078125 7.734375 -0.59375 C 6.460938 -1.207031 5.40625 -2.046875 4.5625 -3.109375 C 3.71875 -4.179688 3.085938 -5.40625 2.671875 -6.78125 C 2.253906 -8.15625 2.046875 -9.613281 2.046875 -11.15625 C 2.046875 -12.675781 2.25 -14.132812 2.65625 -15.53125 C 3.0625 -16.925781 3.671875 -18.171875 4.484375 -19.265625 C 5.304688 -20.367188 6.328125 -21.242188 7.546875 -21.890625 C 8.773438 -22.546875 10.210938 -22.875 11.859375 -22.875 C 13.316406 -22.875 14.582031 -22.660156 15.65625 -22.234375 C 16.726562 -21.816406 17.632812 -21.238281 18.375 -20.5 C 19.113281 -19.757812 19.707031 -18.921875 20.15625 -17.984375 C 20.613281 -17.046875 20.9375 -16.050781 21.125 -15 C 21.320312 -13.957031 21.421875 -12.914062 21.421875 -11.875 C 21.421875 -11.59375 21.410156 -11.285156 21.390625 -10.953125 C 21.367188 -10.617188 21.34375 -10.347656 21.3125 -10.140625 L 5.59375 -10.140625 C 5.59375 -9.128906 5.726562 -8.171875 6 -7.265625 C 6.269531 -6.367188 6.679688 -5.570312 7.234375 -4.875 C 7.785156 -4.1875 8.472656 -3.640625 9.296875 -3.234375 C 10.128906 -2.835938 11.09375 -2.640625 12.1875 -2.640625 C 13.476562 -2.640625 14.640625 -2.804688 15.671875 -3.140625 C 16.703125 -3.484375 17.65625 -4.125 18.53125 -5.0625 L 20.84375 -3.203125 C 19.625 -1.972656 18.332031 -1.078125 16.96875 -0.515625 C 15.601562 0.0351562 14.019531 0.3125 12.21875 0.3125 Z M 5.59375 -12.890625 L 18.203125 -12.890625 C 18.179688 -13.796875 18.050781 -14.675781 17.8125 -15.53125 C 17.582031 -16.382812 17.21875 -17.15625 16.71875 -17.84375 C 16.226562 -18.53125 15.582031 -19.078125 14.78125 -19.484375 C 13.988281 -19.890625 13.015625 -20.09375 11.859375 -20.09375 C 10.816406 -20.09375 9.914062 -19.898438 9.15625 -19.515625 C 8.394531 -19.128906 7.757812 -18.601562 7.25 -17.9375 C 6.738281 -17.269531 6.347656 -16.5 6.078125 -15.625 C 5.804688 -14.757812 5.644531 -13.847656 5.59375 -12.890625 Z M 5.59375 -12.890625 "/></g></g></g><g fill="#ffffff" fill-opacity="1"><g transform="translate(88.576275, 69.441367)"><g><path d="M 9.046875 0.453125 C 7.640625 0.453125 6.382812 0.1875 5.28125 -0.34375 C 4.1875 -0.882812 3.320312 -1.65625 2.6875 -2.65625 C 2.050781 -3.65625 1.734375 -4.863281 1.734375 -6.28125 C 1.734375 -8.53125 2.585938 -10.191406 4.296875 -11.265625 C 6.003906 -12.347656 8.460938 -12.890625 11.671875 -12.890625 L 16.8125 -12.890625 C 16.8125 -14.304688 16.632812 -15.554688 16.28125 -16.640625 C 15.925781 -17.722656 15.347656 -18.566406 14.546875 -19.171875 C 13.742188 -19.785156 12.65625 -20.09375 11.28125 -20.09375 C 10.21875 -20.09375 9.28125 -19.914062 8.46875 -19.5625 C 7.664062 -19.207031 6.984375 -18.769531 6.421875 -18.25 C 5.859375 -17.726562 5.394531 -17.207031 5.03125 -16.6875 L 2.578125 -18.609375 C 3.597656 -20.003906 4.800781 -21.085938 6.1875 -21.859375 C 7.582031 -22.640625 9.210938 -23.03125 11.078125 -23.03125 C 12.992188 -23.03125 14.601562 -22.644531 15.90625 -21.875 C 17.21875 -21.101562 18.210938 -20.03125 18.890625 -18.65625 C 19.566406 -17.28125 19.90625 -15.675781 19.90625 -13.84375 L 19.90625 0 L 17.046875 0 L 16.984375 -4.359375 C 16.429688 -3.222656 15.738281 -2.300781 14.90625 -1.59375 C 14.070312 -0.894531 13.15625 -0.378906 12.15625 -0.046875 C 11.15625 0.285156 10.117188 0.453125 9.046875 0.453125 Z M 9.4375 -2.390625 C 10.59375 -2.390625 11.625 -2.628906 12.53125 -3.109375 C 13.445312 -3.597656 14.222656 -4.234375 14.859375 -5.015625 C 15.503906 -5.796875 15.988281 -6.648438 16.3125 -7.578125 C 16.644531 -8.515625 16.8125 -9.4375 16.8125 -10.34375 L 11.984375 -10.34375 C 9.753906 -10.34375 8.066406 -10.023438 6.921875 -9.390625 C 5.785156 -8.753906 5.21875 -7.6875 5.21875 -6.1875 C 5.21875 -5.300781 5.40625 -4.570312 5.78125 -4 C 6.15625 -3.4375 6.660156 -3.023438 7.296875 -2.765625 C 7.941406 -2.515625 8.65625 -2.390625 9.4375 -2.390625 Z M 9.4375 -2.390625 "/></g></g></g><g fill="#ffffff" fill-opacity="1"><g transform="translate(111.710968, 69.441367)"><g><path d="M 10.0625 0.453125 C 8.738281 0.453125 7.675781 0.1875 6.875 -0.34375 C 6.070312 -0.882812 5.492188 -1.640625 5.140625 -2.609375 C 4.785156 -3.578125 4.609375 -4.703125 4.609375 -5.984375 L 4.609375 -19.796875 L 1 -19.796875 L 1 -22.546875 L 4.625 -22.546875 L 4.625 -27.625 L 7.96875 -30.796875 L 7.96875 -22.546875 L 13.6875 -22.546875 L 13.6875 -19.796875 L 7.96875 -19.796875 L 7.96875 -5.953125 C 7.96875 -4.722656 8.238281 -3.8125 8.78125 -3.21875 C 9.320312 -2.625 10.007812 -2.328125 10.84375 -2.328125 C 11.21875 -2.328125 11.597656 -2.378906 11.984375 -2.484375 C 12.378906 -2.585938 12.75 -2.722656 13.09375 -2.890625 L 13.09375 0 C 12.851562 0.101562 12.460938 0.203125 11.921875 0.296875 C 11.378906 0.398438 10.757812 0.453125 10.0625 0.453125 Z M 10.0625 0.453125 "/></g></g></g><g fill="#ffffff" fill-opacity="1"><g transform="translate(126.900868, 69.441367)"><g><path d="M 3.84375 0 L 3.84375 -31.90625 L 7.171875 -31.90625 L 7.171875 -18.84375 C 7.691406 -19.675781 8.335938 -20.398438 9.109375 -21.015625 C 9.878906 -21.628906 10.734375 -22.101562 11.671875 -22.4375 C 12.609375 -22.78125 13.554688 -22.953125 14.515625 -22.953125 C 15.867188 -22.953125 17.023438 -22.707031 17.984375 -22.21875 C 18.941406 -21.726562 19.722656 -21.0625 20.328125 -20.21875 C 20.941406 -19.382812 21.390625 -18.425781 21.671875 -17.34375 C 21.953125 -16.257812 22.09375 -15.113281 22.09375 -13.90625 L 22.09375 0 L 18.6875 0 L 18.6875 -13.359375 C 18.6875 -14.128906 18.617188 -14.894531 18.484375 -15.65625 C 18.347656 -16.414062 18.101562 -17.109375 17.75 -17.734375 C 17.394531 -18.359375 16.910156 -18.859375 16.296875 -19.234375 C 15.679688 -19.609375 14.882812 -19.796875 13.90625 -19.796875 C 12.914062 -19.796875 12.007812 -19.597656 11.1875 -19.203125 C 10.363281 -18.804688 9.65625 -18.253906 9.0625 -17.546875 C 8.46875 -16.835938 8.003906 -16.019531 7.671875 -15.09375 C 7.335938 -14.175781 7.171875 -13.203125 7.171875 -12.171875 L 7.171875 0 Z M 3.84375 0 "/></g></g></g><g fill="#ffffff" fill-opacity="1"><g transform="translate(152.270033, 69.441367)"><g><path d="M 12.21875 0.3125 C 10.5 0.3125 9.003906 0.0078125 7.734375 -0.59375 C 6.460938 -1.207031 5.40625 -2.046875 4.5625 -3.109375 C 3.71875 -4.179688 3.085938 -5.40625 2.671875 -6.78125 C 2.253906 -8.15625 2.046875 -9.613281 2.046875 -11.15625 C 2.046875 -12.675781 2.25 -14.132812 2.65625 -15.53125 C 3.0625 -16.925781 3.671875 -18.171875 4.484375 -19.265625 C 5.304688 -20.367188 6.328125 -21.242188 7.546875 -21.890625 C 8.773438 -22.546875 10.210938 -22.875 11.859375 -22.875 C 13.316406 -22.875 14.582031 -22.660156 15.65625 -22.234375 C 16.726562 -21.816406 17.632812 -21.238281 18.375 -20.5 C 19.113281 -19.757812 19.707031 -18.921875 20.15625 -17.984375 C 20.613281 -17.046875 20.9375 -16.050781 21.125 -15 C 21.320312 -13.957031 21.421875 -12.914062 21.421875 -11.875 C 21.421875 -11.59375 21.410156 -11.285156 21.390625 -10.953125 C 21.367188 -10.617188 21.34375 -10.347656 21.3125 -10.140625 L 5.59375 -10.140625 C 5.59375 -9.128906 5.726562 -8.171875 6 -7.265625 C 6.269531 -6.367188 6.679688 -5.570312 7.234375 -4.875 C 7.785156 -4.1875 8.472656 -3.640625 9.296875 -3.234375 C 10.128906 -2.835938 11.09375 -2.640625 12.1875 -2.640625 C 13.476562 -2.640625 14.640625 -2.804688 15.671875 -3.140625 C 16.703125 -3.484375 17.65625 -4.125 18.53125 -5.0625 L 20.84375 -3.203125 C 19.625 -1.972656 18.332031 -1.078125 16.96875 -0.515625 C 15.601562 0.0351562 14.019531 0.3125 12.21875 0.3125 Z M 5.59375 -12.890625 L 18.203125 -12.890625 C 18.179688 -13.796875 18.050781 -14.675781 17.8125 -15.53125 C 17.582031 -16.382812 17.21875 -17.15625 16.71875 -17.84375 C 16.226562 -18.53125 15.582031 -19.078125 14.78125 -19.484375 C 13.988281 -19.890625 13.015625 -20.09375 11.859375 -20.09375 C 10.816406 -20.09375 9.914062 -19.898438 9.15625 -19.515625 C 8.394531 -19.128906 7.757812 -18.601562 7.25 -17.9375 C 6.738281 -17.269531 6.347656 -16.5 6.078125 -15.625 C 5.804688 -14.757812 5.644531 -13.847656 5.59375 -12.890625 Z M 5.59375 -12.890625 "/></g></g></g><g fill="#ffffff" fill-opacity="1"><g transform="translate(175.69814, 69.441367)"><g><path d="M 3.796875 0 L 3.796875 -22.546875 L 7.15625 -22.546875 L 7.15625 -18.5625 C 7.550781 -19.476562 8.085938 -20.269531 8.765625 -20.9375 C 9.453125 -21.601562 10.226562 -22.117188 11.09375 -22.484375 C 11.957031 -22.847656 12.863281 -23.03125 13.8125 -23.03125 C 14.59375 -23.03125 15.285156 -22.914062 15.890625 -22.6875 C 16.503906 -22.457031 17.023438 -22.179688 17.453125 -21.859375 L 16.03125 -18.9375 C 15.65625 -19.257812 15.234375 -19.484375 14.765625 -19.609375 C 14.296875 -19.734375 13.800781 -19.796875 13.28125 -19.796875 C 11.363281 -19.796875 9.851562 -19.050781 8.75 -17.5625 C 7.65625 -16.082031 7.109375 -13.984375 7.109375 -11.265625 L 7.109375 0 Z M 3.796875 0 "/></g></g></g><g fill="#ffffff" fill-opacity="1"><g transform="translate(193.641633, 69.441367)"><g><path d="M 1.625 0 L 12.1875 -15.953125 L 1.671875 -31.90625 L 5.9375 -31.90625 L 14.25 -18.671875 L 22.59375 -31.90625 L 26.78125 -31.90625 L 16.328125 -15.953125 L 26.8125 0 L 22.640625 0 L 14.203125 -13 L 5.890625 0 Z M 1.625 0 "/></g></g></g><g fill="#ffffff" fill-opacity="1"><g transform="translate(222.080376, 69.441367)"><g><path d="M 3.84375 9.890625 L 3.84375 -22.546875 L 7.21875 -22.546875 L 7.21875 -19.484375 C 7.957031 -20.566406 8.914062 -21.425781 10.09375 -22.0625 C 11.269531 -22.707031 12.609375 -23.03125 14.109375 -23.03125 C 15.628906 -23.03125 16.960938 -22.722656 18.109375 -22.109375 C 19.253906 -21.503906 20.210938 -20.660156 20.984375 -19.578125 C 21.753906 -18.503906 22.335938 -17.253906 22.734375 -15.828125 C 23.128906 -14.410156 23.328125 -12.894531 23.328125 -11.28125 C 23.328125 -9.6875 23.128906 -8.179688 22.734375 -6.765625 C 22.335938 -5.359375 21.753906 -4.113281 20.984375 -3.03125 C 20.222656 -1.945312 19.269531 -1.09375 18.125 -0.46875 C 16.976562 0.144531 15.644531 0.453125 14.125 0.453125 C 12.664062 0.453125 11.34375 0.148438 10.15625 -0.453125 C 8.96875 -1.066406 7.988281 -1.9375 7.21875 -3.0625 L 7.21875 9.890625 Z M 13.40625 -2.390625 C 14.539062 -2.390625 15.515625 -2.632812 16.328125 -3.125 C 17.148438 -3.613281 17.828125 -4.273438 18.359375 -5.109375 C 18.898438 -5.941406 19.296875 -6.894531 19.546875 -7.96875 C 19.804688 -9.039062 19.9375 -10.144531 19.9375 -11.28125 C 19.9375 -12.425781 19.804688 -13.53125 19.546875 -14.59375 C 19.296875 -15.65625 18.898438 -16.609375 18.359375 -17.453125 C 17.828125 -18.296875 17.148438 -18.960938 16.328125 -19.453125 C 15.515625 -19.941406 14.539062 -20.1875 13.40625 -20.1875 C 12.257812 -20.1875 11.273438 -19.941406 10.453125 -19.453125 C 9.640625 -18.960938 8.96875 -18.296875 8.4375 -17.453125 C 7.914062 -16.609375 7.53125 -15.65625 7.28125 -14.59375 C 7.03125 -13.53125 6.90625 -12.425781 6.90625 -11.28125 C 6.90625 -10.144531 7.03125 -9.039062 7.28125 -7.96875 C 7.53125 -6.894531 7.914062 -5.941406 8.4375 -5.109375 C 8.96875 -4.273438 9.640625 -3.613281 10.453125 -3.125 C 11.273438 -2.632812 12.257812 -2.390625 13.40625 -2.390625 Z M 13.40625 -2.390625 "/></g></g></g><g fill="#ffffff" fill-opacity="1"><g transform="translate(247.562405, 69.441367)"><g><path d="M 3.796875 0 L 3.796875 -22.546875 L 7.15625 -22.546875 L 7.15625 -18.5625 C 7.550781 -19.476562 8.085938 -20.269531 8.765625 -20.9375 C 9.453125 -21.601562 10.226562 -22.117188 11.09375 -22.484375 C 11.957031 -22.847656 12.863281 -23.03125 13.8125 -23.03125 C 14.59375 -23.03125 15.285156 -22.914062 15.890625 -22.6875 C 16.503906 -22.457031 17.023438 -22.179688 17.453125 -21.859375 L 16.03125 -18.9375 C 15.65625 -19.257812 15.234375 -19.484375 14.765625 -19.609375 C 14.296875 -19.734375 13.800781 -19.796875 13.28125 -19.796875 C 11.363281 -19.796875 9.851562 -19.050781 8.75 -17.5625 C 7.65625 -16.082031 7.109375 -13.984375 7.109375 -11.265625 L 7.109375 0 Z M 3.796875 0 "/></g></g></g><g fill="#ffffff" fill-opacity="1"><g transform="translate(265.505909, 69.441367)"><g><path d="M 12.21875 0.3125 C 10.5 0.3125 9.003906 0.0078125 7.734375 -0.59375 C 6.460938 -1.207031 5.40625 -2.046875 4.5625 -3.109375 C 3.71875 -4.179688 3.085938 -5.40625 2.671875 -6.78125 C 2.253906 -8.15625 2.046875 -9.613281 2.046875 -11.15625 C 2.046875 -12.675781 2.25 -14.132812 2.65625 -15.53125 C 3.0625 -16.925781 3.671875 -18.171875 4.484375 -19.265625 C 5.304688 -20.367188 6.328125 -21.242188 7.546875 -21.890625 C 8.773438 -22.546875 10.210938 -22.875 11.859375 -22.875 C 13.316406 -22.875 14.582031 -22.660156 15.65625 -22.234375 C 16.726562 -21.816406 17.632812 -21.238281 18.375 -20.5 C 19.113281 -19.757812 19.707031 -18.921875 20.15625 -17.984375 C 20.613281 -17.046875 20.9375 -16.050781 21.125 -15 C 21.320312 -13.957031 21.421875 -12.914062 21.421875 -11.875 C 21.421875 -11.59375 21.410156 -11.285156 21.390625 -10.953125 C 21.367188 -10.617188 21.34375 -10.347656 21.3125 -10.140625 L 5.59375 -10.140625 C 5.59375 -9.128906 5.726562 -8.171875 6 -7.265625 C 6.269531 -6.367188 6.679688 -5.570312 7.234375 -4.875 C 7.785156 -4.1875 8.472656 -3.640625 9.296875 -3.234375 C 10.128906 -2.835938 11.09375 -2.640625 12.1875 -2.640625 C 13.476562 -2.640625 14.640625 -2.804688 15.671875 -3.140625 C 16.703125 -3.484375 17.65625 -4.125 18.53125 -5.0625 L 20.84375 -3.203125 C 19.625 -1.972656 18.332031 -1.078125 16.96875 -0.515625 C 15.601562 0.0351562 14.019531 0.3125 12.21875 0.3125 Z M 5.59375 -12.890625 L 18.203125 -12.890625 C 18.179688 -13.796875 18.050781 -14.675781 17.8125 -15.53125 C 17.582031 -16.382812 17.21875 -17.15625 16.71875 -17.84375 C 16.226562 -18.53125 15.582031 -19.078125 14.78125 -19.484375 C 13.988281 -19.890625 13.015625 -20.09375 11.859375 -20.09375 C 10.816406 -20.09375 9.914062 -19.898438 9.15625 -19.515625 C 8.394531 -19.128906 7.757812 -18.601562 7.25 -17.9375 C 6.738281 -17.269531 6.347656 -16.5 6.078125 -15.625 C 5.804688 -14.757812 5.644531 -13.847656 5.59375 -12.890625 Z M 5.59375 -12.890625 "/></g></g></g><g fill="#ffffff" fill-opacity="1"><g transform="translate(288.934017, 69.441367)"><g><path d="M 10.046875 0.453125 C 8.628906 0.453125 7.347656 0.195312 6.203125 -0.3125 C 5.066406 -0.820312 4.101562 -1.503906 3.3125 -2.359375 C 2.53125 -3.210938 1.96875 -4.132812 1.625 -5.125 L 4.46875 -6.59375 C 4.738281 -5.789062 5.117188 -5.066406 5.609375 -4.421875 C 6.097656 -3.773438 6.710938 -3.257812 7.453125 -2.875 C 8.203125 -2.488281 9.082031 -2.296875 10.09375 -2.296875 C 11.375 -2.296875 12.429688 -2.613281 13.265625 -3.25 C 14.097656 -3.882812 14.515625 -4.8125 14.515625 -6.03125 C 14.515625 -6.78125 14.34375 -7.410156 14 -7.921875 C 13.664062 -8.429688 13.210938 -8.851562 12.640625 -9.1875 C 12.066406 -9.53125 11.425781 -9.828125 10.71875 -10.078125 C 10.007812 -10.328125 9.273438 -10.566406 8.515625 -10.796875 C 7.753906 -11.035156 7.019531 -11.304688 6.3125 -11.609375 C 5.613281 -11.910156 4.976562 -12.273438 4.40625 -12.703125 C 3.832031 -13.140625 3.375 -13.6875 3.03125 -14.34375 C 2.695312 -15 2.53125 -15.8125 2.53125 -16.78125 C 2.53125 -18.132812 2.859375 -19.273438 3.515625 -20.203125 C 4.179688 -21.140625 5.054688 -21.84375 6.140625 -22.3125 C 7.222656 -22.789062 8.40625 -23.03125 9.6875 -23.03125 C 11.425781 -23.03125 12.921875 -22.613281 14.171875 -21.78125 C 15.421875 -20.957031 16.394531 -19.875 17.09375 -18.53125 L 14.609375 -17.109375 C 14.128906 -18.085938 13.46875 -18.863281 12.625 -19.4375 C 11.789062 -20.007812 10.773438 -20.296875 9.578125 -20.296875 C 8.359375 -20.296875 7.394531 -20.007812 6.6875 -19.4375 C 5.976562 -18.863281 5.625 -18.113281 5.625 -17.1875 C 5.625 -16.53125 5.789062 -15.988281 6.125 -15.5625 C 6.46875 -15.132812 6.925781 -14.769531 7.5 -14.46875 C 8.082031 -14.164062 8.734375 -13.898438 9.453125 -13.671875 C 10.179688 -13.453125 10.929688 -13.21875 11.703125 -12.96875 C 12.484375 -12.71875 13.234375 -12.429688 13.953125 -12.109375 C 14.671875 -11.785156 15.320312 -11.378906 15.90625 -10.890625 C 16.488281 -10.398438 16.945312 -9.789062 17.28125 -9.0625 C 17.625 -8.34375 17.796875 -7.46875 17.796875 -6.4375 C 17.796875 -5.28125 17.578125 -4.265625 17.140625 -3.390625 C 16.703125 -2.523438 16.113281 -1.804688 15.375 -1.234375 C 14.632812 -0.671875 13.804688 -0.25 12.890625 0.03125 C 11.972656 0.3125 11.023438 0.453125 10.046875 0.453125 Z M 10.046875 0.453125 "/></g></g></g><g fill="#ffffff" fill-opacity="1"><g transform="translate(308.525151, 69.441367)"><g><path d="M 10.046875 0.453125 C 8.628906 0.453125 7.347656 0.195312 6.203125 -0.3125 C 5.066406 -0.820312 4.101562 -1.503906 3.3125 -2.359375 C 2.53125 -3.210938 1.96875 -4.132812 1.625 -5.125 L 4.46875 -6.59375 C 4.738281 -5.789062 5.117188 -5.066406 5.609375 -4.421875 C 6.097656 -3.773438 6.710938 -3.257812 7.453125 -2.875 C 8.203125 -2.488281 9.082031 -2.296875 10.09375 -2.296875 C 11.375 -2.296875 12.429688 -2.613281 13.265625 -3.25 C 14.097656 -3.882812 14.515625 -4.8125 14.515625 -6.03125 C 14.515625 -6.78125 14.34375 -7.410156 14 -7.921875 C 13.664062 -8.429688 13.210938 -8.851562 12.640625 -9.1875 C 12.066406 -9.53125 11.425781 -9.828125 10.71875 -10.078125 C 10.007812 -10.328125 9.273438 -10.566406 8.515625 -10.796875 C 7.753906 -11.035156 7.019531 -11.304688 6.3125 -11.609375 C 5.613281 -11.910156 4.976562 -12.273438 4.40625 -12.703125 C 3.832031 -13.140625 3.375 -13.6875 3.03125 -14.34375 C 2.695312 -15 2.53125 -15.8125 2.53125 -16.78125 C 2.53125 -18.132812 2.859375 -19.273438 3.515625 -20.203125 C 4.179688 -21.140625 5.054688 -21.84375 6.140625 -22.3125 C 7.222656 -22.789062 8.40625 -23.03125 9.6875 -23.03125 C 11.425781 -23.03125 12.921875 -22.613281 14.171875 -21.78125 C 15.421875 -20.957031 16.394531 -19.875 17.09375 -18.53125 L 14.609375 -17.109375 C 14.128906 -18.085938 13.46875 -18.863281 12.625 -19.4375 C 11.789062 -20.007812 10.773438 -20.296875 9.578125 -20.296875 C 8.359375 -20.296875 7.394531 -20.007812 6.6875 -19.4375 C 5.976562 -18.863281 5.625 -18.113281 5.625 -17.1875 C 5.625 -16.53125 5.789062 -15.988281 6.125 -15.5625 C 6.46875 -15.132812 6.925781 -14.769531 7.5 -14.46875 C 8.082031 -14.164062 8.734375 -13.898438 9.453125 -13.671875 C 10.179688 -13.453125 10.929688 -13.21875 11.703125 -12.96875 C 12.484375 -12.71875 13.234375 -12.429688 13.953125 -12.109375 C 14.671875 -11.785156 15.320312 -11.378906 15.90625 -10.890625 C 16.488281 -10.398438 16.945312 -9.789062 17.28125 -9.0625 C 17.625 -8.34375 17.796875 -7.46875 17.796875 -6.4375 C 17.796875 -5.28125 17.578125 -4.265625 17.140625 -3.390625 C 16.703125 -2.523438 16.113281 -1.804688 15.375 -1.234375 C 14.632812 -0.671875 13.804688 -0.25 12.890625 0.03125 C 11.972656 0.3125 11.023438 0.453125 10.046875 0.453125 Z M 10.046875 0.453125 "/></g></g></g></svg>